<svg width="64" height="64" viewBox="0 0 64 64" fill="none" xmlns="http://www.w3.org/2000/svg">
<circle cx="32" cy="32" r="32" fill="#0058A9"/>
<path d="M46.1667 19H17.8333C16.2691 19 15 20.2478 15 21.7857V42.2143C15 43.7522 16.2691 45 17.8333 45H46.1667C47.7309 45 49 43.7522 49 42.2143V21.7857C49 20.2478 47.7309 19 46.1667 19ZM25.3889 24.5714C27.4726 24.5714 29.1667 26.2371 29.1667 28.2857C29.1667 30.3344 27.4726 32 25.3889 32C23.3052 32 21.6111 30.3344 21.6111 28.2857C21.6111 26.2371 23.3052 24.5714 25.3889 24.5714ZM32 38.3143C32 38.9295 31.4097 39.4286 30.6778 39.4286H20.1C19.3681 39.4286 18.7778 38.9295 18.7778 38.3143V37.2C18.7778 35.3545 20.5545 33.8571 22.7444 33.8571H23.0396C23.7656 34.1531 24.5566 34.3214 25.3889 34.3214C26.2212 34.3214 27.0181 34.1531 27.7382 33.8571H28.0333C30.2233 33.8571 32 35.3545 32 37.2V38.3143ZM45.2222 37.1071C45.2222 37.3625 45.0097 37.5714 44.75 37.5714H36.25C35.9903 37.5714 35.7778 37.3625 35.7778 37.1071V36.1786C35.7778 35.9232 35.9903 35.7143 36.25 35.7143H44.75C45.0097 35.7143 45.2222 35.9232 45.2222 36.1786V37.1071ZM45.2222 32.4643C45.2222 32.7196 45.0097 32.9286 44.75 32.9286H36.25C35.9903 32.9286 35.7778 32.7196 35.7778 32.4643V31.5357C35.7778 31.2804 35.9903 31.0714 36.25 31.0714H44.75C45.0097 31.0714 45.2222 31.2804 45.2222 31.5357V32.4643ZM45.2222 27.8214C45.2222 28.0768 45.0097 28.2857 44.75 28.2857H36.25C35.9903 28.2857 35.7778 28.0768 35.7778 27.8214V26.8929C35.7778 26.6375 35.9903 26.4286 36.25 26.4286H44.75C45.0097 26.4286 45.2222 26.6375 45.2222 26.8929V27.8214Z" fill="white"/>
</svg>
