<svg width="64" height="64" viewBox="0 0 64 64" fill="none" xmlns="http://www.w3.org/2000/svg">
<circle cx="32" cy="32" r="32" fill="#2650E3"/>
<path d="M25 44C23.4 44 21.8 42.6 21 42C17 39.2 15.8 38.2 15 37.6V46C15 47.1044 15.8956 48 17 48H33C34.1044 48 35 47.1044 35 46V37.6C34.2 38.2 33 39.2 29 42C28.2 42.6 26.6 44 25 44ZM33 32H17C15.8956 32 15 32.8956 15 34V35C16.6 36.2 16.4 36.2 22.2 40.4C22.8 40.8 24 42 25 42C26 42 27.2 40.8 27.8 40.6C33.6 36.4 33.4 36.4 35 35.2V34C35 32.8956 34.1044 32 33 32ZM49 26H29C27.8956 26 27 26.8956 27 28V30H33C35.0756 30 36.7869 31.5888 36.9819 33.6138L37 33.6V42H49C50.1044 42 51 41.1044 51 40V28C51 26.8956 50.1044 26 49 26ZM47 34H43V30H47V34ZM25 28C25 25.7944 26.7944 24 29 24H43V18C43 16.8956 42.1044 16 41 16H21C19.8956 16 19 16.8956 19 18V30H25V28Z" fill="white"/>
</svg>
