<svg width="64" height="64" viewBox="0 0 64 64" fill="none" xmlns="http://www.w3.org/2000/svg">
<circle cx="32" cy="32" r="32" fill="#F224F2"/>
<path d="M45.9917 36.0163H41.7855C41.795 36.1664 41.7998 36.3117 41.7998 36.4558C41.7998 42.7944 36.7122 46.7198 32 46.7198C27.2878 46.7198 22.2002 42.7956 22.2002 36.4558C22.2002 36.3117 22.205 36.1664 22.2145 36.0163H18.0083C18.0024 36.1628 18 36.3093 18 36.4558C18 45.1821 25 51 32 51C39 51 46 45.1821 46 36.4558C46 36.3093 45.9976 36.1628 45.9917 36.0163Z" fill="white"/>
<path d="M32 18.4377L35.0005 22.5618H40.2936C36.42 17.1325 32 13 32 13C32 13 27.58 17.1325 23.7064 22.5618H28.9995L32 18.4377Z" fill="white"/>
<path d="M32 32.2338C33.5463 32.2338 34.7998 30.956 34.7998 29.3799C34.7998 27.8037 33.5463 26.526 32 26.526C30.4537 26.526 29.2002 27.8037 29.2002 29.3799C29.2002 30.956 30.4537 32.2338 32 32.2338Z" fill="white"/>
<path d="M40.4005 32.2338C41.9467 32.2338 43.2002 30.956 43.2002 29.3799C43.2002 27.8037 41.9467 26.526 40.4005 26.526C38.8542 26.526 37.6007 27.8037 37.6007 29.3799C37.6007 30.956 38.8542 32.2338 40.4005 32.2338Z" fill="white"/>
<path d="M23.5995 32.2338C25.1458 32.2338 26.3993 30.956 26.3993 29.3799C26.3993 27.8037 25.1458 26.526 23.5995 26.526C22.0532 26.526 20.7997 27.8037 20.7997 29.3799C20.7997 30.956 22.0532 32.2338 23.5995 32.2338Z" fill="white"/>
</svg>
