<svg width="64" height="64" viewBox="0 0 64 64" fill="none" xmlns="http://www.w3.org/2000/svg">
<circle cx="32" cy="32" r="32" fill="#F68D2E"/>
<path d="M46.6256 34.7234C45.7979 34.2182 44.8415 33.9676 43.8742 34.0024C42.9069 34.0372 41.9707 34.3559 41.1808 34.9192C41.0262 35.0309 40.8429 35.0956 40.6528 35.1056C40.4627 35.1156 40.2738 35.0704 40.1084 34.9754L35.1748 32.1079C35.1562 32.0967 35.1408 32.081 35.1301 32.0621C35.1194 32.0431 35.1138 32.0218 35.1138 32C35.1138 31.9782 35.1194 31.9569 35.1301 31.938C35.1408 31.919 35.1562 31.9033 35.1748 31.8921L40.0805 29.041C40.2467 28.9451 40.4369 28.8997 40.6282 28.9101C40.8195 28.9205 41.0037 28.9863 41.1587 29.0996C41.9476 29.6692 42.8849 29.9935 43.8549 30.0324C44.8249 30.0714 45.7849 29.8233 46.6163 29.3188C47.6992 28.6457 48.4878 27.5837 48.8228 26.3476C49.1579 25.1115 49.0143 23.7934 48.4212 22.6598C47.8782 21.6486 47.0056 20.8566 45.9505 20.4173C44.8955 19.9779 43.7222 19.918 42.6284 20.2477C41.5346 20.5774 40.587 21.2764 39.9452 22.2272C39.3034 23.1779 39.0065 24.3223 39.1047 25.4676C39.1224 25.6578 39.0858 25.849 38.9991 26.0189C38.9125 26.1888 38.7794 26.3303 38.6156 26.4266L33.6843 29.2942C33.6655 29.305 33.6441 29.3107 33.6224 29.3107C33.6007 29.3106 33.5793 29.3049 33.5605 29.294C33.5417 29.2831 33.526 29.2674 33.5151 29.2485C33.5041 29.2296 33.4982 29.2082 33.498 29.1863V23.45C33.499 23.2581 33.5548 23.0706 33.6586 22.9098C33.7625 22.7489 33.91 22.6214 34.0837 22.5426C35.1126 22.066 35.9489 21.2497 36.4537 20.2289C36.9586 19.2082 37.1017 18.0444 36.8594 16.9305C36.6172 15.8166 36.004 14.8195 35.1216 14.1046C34.2393 13.3898 33.1407 13 32.0082 13C30.8756 13 29.7771 13.3898 28.8947 14.1046C28.0123 14.8195 27.3992 15.8166 27.1569 16.9305C26.9146 18.0444 27.0578 19.2082 27.5626 20.2289C28.0675 21.2497 28.9037 22.066 29.9326 22.5426C30.2877 22.7032 30.516 23.0584 30.5183 23.45V29.1852C30.5181 29.207 30.5122 29.2285 30.5013 29.2474C30.4903 29.2662 30.4746 29.2819 30.4558 29.2928C30.437 29.3037 30.4157 29.3095 30.3939 29.3095C30.3722 29.3095 30.3509 29.3039 30.332 29.293L25.4007 26.4266C25.2369 26.3306 25.1038 26.1894 25.0172 26.0196C24.9305 25.8499 24.8939 25.6588 24.9116 25.4688C25.0093 24.3331 24.7184 23.1978 24.0873 22.2514C23.4562 21.3049 22.5227 20.6041 21.4417 20.265C20.3607 19.926 19.197 19.9691 18.1437 20.3873C17.0904 20.8055 16.2107 21.5736 15.6504 22.5642C15.0902 23.5549 14.883 24.7086 15.0634 25.834C15.2437 26.9594 15.8007 27.989 16.642 28.752C17.4833 29.5149 18.5583 29.9655 19.6888 30.0289C20.8193 30.0924 21.9373 29.7649 22.8576 29.1008C23.0127 28.9872 23.1971 28.9211 23.3886 28.9105C23.58 28.8999 23.7705 28.9452 23.937 29.041L28.8427 31.8921C28.8613 31.9033 28.8767 31.919 28.8874 31.938C28.8981 31.9569 28.9037 31.9782 28.9037 32C28.9037 32.0218 28.8981 32.0431 28.8874 32.0621C28.8767 32.081 28.8613 32.0967 28.8427 32.1079L23.9091 34.9754C23.7436 35.0706 23.5544 35.1159 23.3641 35.106C23.1737 35.096 22.9903 35.0312 22.8355 34.9192C22.0457 34.3561 21.1098 34.0376 20.1427 34.0028C19.1756 33.968 18.2195 34.2185 17.3919 34.7234C16.3119 35.3977 15.526 36.4592 15.1926 37.6938C14.8592 38.9285 15.003 40.2445 15.5952 41.3765C16.1397 42.3896 17.015 43.1824 18.073 43.6209C19.131 44.0594 20.307 44.1168 21.4021 43.7832C22.4973 43.4497 23.4445 42.7457 24.0837 41.7903C24.7229 40.8349 25.015 39.6866 24.9105 38.5394C24.8916 38.3483 24.9277 38.1558 25.0144 37.9847C25.1011 37.8137 25.2348 37.6713 25.3995 37.5746L30.332 34.707C30.3509 34.6961 30.3722 34.6905 30.3939 34.6905C30.4157 34.6905 30.437 34.6963 30.4558 34.7072C30.4746 34.7181 30.4903 34.7338 30.5013 34.7526C30.5122 34.7715 30.5181 34.793 30.5183 34.8148V40.55C30.5174 40.7417 30.4618 40.9292 30.3582 41.09C30.2546 41.2509 30.1073 41.3784 29.9338 41.4574C28.9049 41.934 28.0686 42.7503 27.5638 43.7711C27.0589 44.7918 26.9158 45.9556 27.1581 47.0695C27.4003 48.1834 28.0135 49.1805 28.8959 49.8954C29.7782 50.6102 30.8768 51 32.0093 51C33.1419 51 34.2404 50.6102 35.1228 49.8954C36.0052 49.1805 36.6183 48.1834 36.8606 47.0695C37.1029 45.9556 36.9597 44.7918 36.4549 43.7711C35.95 42.7503 35.1138 41.934 34.0849 41.4574C33.9111 41.3786 33.7633 41.2512 33.6593 41.0904C33.5553 40.9295 33.4993 40.742 33.498 40.55V34.816C33.4982 34.7941 33.5041 34.7727 33.5151 34.7538C33.526 34.7349 33.5417 34.7193 33.5605 34.7084C33.5793 34.6975 33.6007 34.6917 33.6224 34.6917C33.6441 34.6916 33.6655 34.6973 33.6843 34.7081L38.618 37.5757C38.9545 37.7739 39.1454 38.1502 39.1059 38.5406C39.0014 39.6877 39.2934 40.836 39.9326 41.7915C40.5719 42.7469 41.5191 43.4508 42.6142 43.7844C43.7094 44.1179 44.8853 44.0606 45.9433 43.6221C47.0014 43.1836 47.8766 42.3908 48.4212 41.3777C49.0134 40.2458 49.1574 38.9299 48.8242 37.6953C48.4911 36.4606 47.7054 35.3991 46.6256 34.7246V34.7234Z" fill="white"/>
</svg>
