<svg width="64" height="64" viewBox="0 0 64 64" fill="none" xmlns="http://www.w3.org/2000/svg">
<circle cx="32" cy="32" r="32" fill="#FF7A59"/>
<path d="M41.6431 27.5118V22.9865C42.2362 22.7071 42.7385 22.2636 43.0913 21.7076C43.4442 21.1515 43.6331 20.5059 43.6362 19.8458V19.7413C43.6362 18.8171 43.272 17.9308 42.6239 17.2774C41.9757 16.6239 41.0966 16.2568 40.1799 16.2568H40.0762C39.1596 16.2568 38.2805 16.6239 37.6323 17.2774C36.9841 17.9308 36.62 18.8171 36.62 19.7413V19.8458C36.623 20.5059 36.812 21.1515 37.1648 21.7076C37.5177 22.2636 38.0199 22.7071 38.6131 22.9865V27.5118C36.9082 27.7748 35.3026 28.4872 33.9587 29.577L21.6498 19.9109C21.7369 19.5921 21.7834 19.2635 21.7881 18.9329C21.7894 18.1563 21.5623 17.3968 21.1355 16.7503C20.7086 16.1039 20.1012 15.5996 19.3901 15.3013C18.6789 15.0029 17.896 14.9239 17.1403 15.0743C16.3846 15.2246 15.6901 15.5975 15.1446 16.1458C14.5992 16.6941 14.2272 17.3932 14.0759 18.1546C13.9246 18.916 14.0006 19.7056 14.2944 20.4235C14.5883 21.1413 15.0866 21.7552 15.7266 22.1874C16.3665 22.6197 17.1192 22.8509 17.8894 22.8518C18.563 22.8488 19.224 22.6678 19.8065 22.3268L31.9287 31.8349C30.8395 33.4935 30.2712 35.4445 30.2979 37.4335C30.3246 39.4225 30.9451 41.3572 32.0785 42.9854L28.3918 46.7023C28.0937 46.6063 27.7831 46.5554 27.4701 46.5513C26.8378 46.5517 26.2198 46.7412 25.6942 47.0957C25.1686 47.4501 24.7591 47.9537 24.5173 48.5428C24.2755 49.1319 24.2124 49.78 24.3358 50.4053C24.4593 51.0305 24.7639 51.6048 25.211 52.0556C25.6581 52.5064 26.2278 52.8134 26.848 52.9379C27.4681 53.0624 28.111 52.9988 28.6953 52.755C29.2796 52.5112 29.7791 52.0983 30.1307 51.5684C30.4823 51.0386 30.6702 50.4155 30.6706 49.778C30.6667 49.4625 30.6162 49.1493 30.5209 48.8488L34.1683 45.1714C35.3577 46.0942 36.7408 46.7302 38.2116 47.0309C39.6824 47.3316 41.202 47.2888 42.654 46.906C44.1059 46.5232 45.4517 45.8105 46.5882 44.8223C47.7247 43.8342 48.6219 42.597 49.2109 41.2053C49.7999 39.8137 50.0652 38.3046 49.9864 36.7937C49.9077 35.2827 49.487 33.81 48.7565 32.4882C48.0261 31.1665 47.0052 30.0309 45.7722 29.1683C44.5393 28.3057 43.1268 27.7391 41.6431 27.5118V27.5118ZM40.1315 42.3931C39.1338 42.3922 38.1587 42.0931 37.3296 41.5336C36.5004 40.9741 35.8543 40.1794 35.473 39.2498C35.0917 38.3203 34.9923 37.2977 35.1874 36.3112C35.3824 35.3247 35.8631 34.4186 36.5688 33.7075C37.2745 32.9964 38.1734 32.5121 39.152 32.3159C40.1305 32.1198 41.1448 32.2204 42.0667 32.6053C42.9885 32.9901 43.7765 33.6418 44.331 34.478C44.8856 35.3143 45.1818 36.2974 45.1823 37.3033C45.1823 38.6526 44.6506 39.9466 43.7043 40.9007C42.758 41.8548 41.4745 42.3908 40.1361 42.3908" fill="white"/>
</svg>
