<svg width="64" height="64" viewBox="0 0 64 64" fill="none" xmlns="http://www.w3.org/2000/svg">
<circle cx="32" cy="32" r="32" fill="#FF5722"/>
<path d="M21.4051 23.013C19.9432 23.013 18.4352 22.4134 18.4352 18.7578C18.4352 15.5033 21.4534 14 23.2068 14C24.8617 14 26.2755 14.8024 26.2755 16.8037C26.2733 20.962 23.3997 23.013 21.4051 23.013Z" fill="white"/>
<path d="M47.6965 48.4471C46.9955 49.3914 45.4082 50 43.6547 50C39.5647 50 37.3246 47.1467 37.3246 42.4407C37.3246 39.788 38.1027 36.1819 38.1027 33.829C38.1027 32.4767 37.8112 31.5256 36.9345 31.5256C34.8895 31.5256 33.0878 37.985 33.0878 46.2948C33.0878 47.6966 32.1628 49.9504 27.3911 49.9504C26.6612 49.9504 26.3193 49.3509 26.2711 48.2984C25.1992 49.2495 23.8359 49.7498 22.4243 49.7498C17.657 49.7498 16 45.8936 16 41.0885C16 36.9324 16.4866 29.7225 17.2669 28.0705C18.0472 26.3689 20.5788 24.4667 22.135 24.4667C22.9635 24.4667 23.985 25.0662 23.985 26.5695C23.985 28.2733 22.8167 32.2265 22.8167 37.6334C22.8167 43.0403 23.3997 44.6427 24.5702 44.6427C25.7384 44.6427 26.03 43.0898 26.6634 42.1906C26.7599 41.1403 26.8081 40.0878 26.8585 38.9857C26.9067 30.4235 27.0536 29.5242 27.3933 28.3207C27.8317 25.8663 31.5315 24.2142 33.1382 24.2142C34.2582 24.2142 34.8434 24.8656 34.8434 26.0669C34.8434 27.169 34.1136 28.67 33.8198 30.8224C34.9881 28.1178 38.0567 24.665 40.8798 24.665C44.0449 24.665 44.8712 27.1194 44.8712 30.1733C44.8712 33.4774 44.0427 36.7319 44.0427 40.3357C44.0427 43.0898 44.4811 44.3407 45.3074 44.6923C47.9954 46.2956 48.3976 47.5028 47.6965 48.4471Z" fill="white"/>
</svg>
