<svg width="64" height="64" viewBox="0 0 64 64" fill="none" xmlns="http://www.w3.org/2000/svg">
<circle cx="32" cy="32" r="32" fill="#36A635"/>
<path d="M42.2199 51.5472L45.5917 47.9277C46.1361 47.2994 46.1361 46.6174 45.5917 46.0375L33.5935 33.3451H44.7479C45.5408 33.3451 45.987 32.8739 45.987 32.0348V26.8431C45.987 26.0053 45.542 25.5315 44.7479 25.5315H28.3376V13.3104C28.3376 12.4713 27.8927 12 27.0973 12H22.2391C21.4474 12 21 12.4713 21 13.3104V50.6557C21 51.4948 21.445 51.9661 22.2391 51.9661H27.0985C27.8927 51.9661 28.3376 51.4948 28.3376 50.6557V38.7501L40.434 51.5472C40.9808 52.1245 41.6731 52.1768 42.2199 51.5472Z" fill="white"/>
</svg>
