<svg width="64" height="64" viewBox="0 0 64 64" fill="none" xmlns="http://www.w3.org/2000/svg">
<circle cx="32" cy="32" r="32" fill="#11AD66"/>
<path d="M43.6667 16H20.3333C18.4917 16 17 17.5343 17 19.4286V43.4286C17 45.3229 18.4917 46.8571 20.3333 46.8571H27L30.566 50.525C31.3514 51.3328 32.6486 51.3328 33.434 50.525L37 46.8571H43.6667C45.5083 46.8571 47 45.3229 47 43.4286V19.4286C47 17.5343 45.5083 16 43.6667 16ZM32 21.6571C34.4833 21.6571 36.5 23.7314 36.5 26.2857C36.5 28.84 34.4833 30.9143 32 30.9143C29.5167 30.9143 27.5 28.84 27.5 26.2857C27.5 23.7314 29.5167 21.6571 32 21.6571ZM42 40H22V38.4571C22 35.0286 28.6667 33.1429 32 33.1429C35.3333 33.1429 42 35.0286 42 38.4571V40Z" fill="white"/>
</svg>
