<svg width="64" height="64" viewBox="0 0 64 64" fill="none" xmlns="http://www.w3.org/2000/svg">
<circle cx="32" cy="32" r="32" fill="#009BF3"/>
<path fill-rule="evenodd" clip-rule="evenodd" d="M26.2523 39.9346C26.1572 39.5495 25.9867 39.1872 25.7506 38.8685L13.3965 22.1905C12.4188 20.8705 13.361 19 15.0036 19L49.0628 19C50.7054 19 51.6476 20.8705 50.6699 22.1905L44.5993 30.3857C43.283 29.7094 41.6278 29.9225 40.5251 31.0251C39.3072 32.243 39.1745 34.1352 40.127 35.5H35C33.067 35.5 31.5 37.067 31.5 39C31.5 40.933 33.067 42.5 35 42.5H37.1803L35.3966 49.7195C35.0657 51.059 33.8639 52 32.4842 52H31.5822C30.2025 52 29.0007 51.059 28.6698 49.7195L26.2523 39.9346ZM43.3695 32.046C42.874 31.9206 42.327 32.0517 41.9393 32.4393C41.4408 32.9379 41.3665 33.7002 41.7167 34.2773C41.7779 34.3782 41.8521 34.4735 41.9393 34.5606C41.9393 34.5606 41.9393 34.5607 41.9393 34.5607L44.8787 37.5H39.3295H35C34.1716 37.5 33.5 38.1716 33.5 39C33.5 39.8284 34.1716 40.5 35 40.5H37.6744H44.8787L41.9393 43.4393C41.3536 44.0251 41.3536 44.9749 41.9393 45.5607C42.5251 46.1464 43.4749 46.1464 44.0607 45.5607L49.5607 40.0607C50.1464 39.4749 50.1464 38.5251 49.5607 37.9393L44.0607 32.4393C43.8625 32.2412 43.6227 32.1101 43.3695 32.046Z" fill="white"/>
</svg>
