<svg width="64" height="64" viewBox="0 0 64 64" fill="none" xmlns="http://www.w3.org/2000/svg">
<circle cx="32" cy="32" r="32" fill="#08A742"/>
<path d="M35.7054 14C31.7721 14 29.4972 15.7989 28.3997 17.0413C28.2696 15.9705 27.5763 14.5813 24.8721 14.5813H19V20.8466H21.4065C21.8139 20.8466 21.9447 20.9792 21.9447 21.3935V50H28.9449V39.2626C28.9449 38.9728 28.9394 38.7021 28.9316 38.4594C30.0252 39.483 32.1128 40.8922 35.3748 40.8922C42.2167 40.8922 47 35.3646 47 27.4473C47.0008 19.4046 42.4588 14 35.7054 14ZM34.2828 34.678C30.514 34.678 28.8023 31.0004 28.8023 27.5934C28.8023 22.2263 31.682 20.3141 34.3768 20.3141C37.681 20.3141 39.9035 23.218 39.9035 27.5431C39.9035 32.4759 37.0778 34.678 34.2828 34.678Z" fill="white"/>
</svg>
