<svg width="64" height="64" viewBox="0 0 64 64" fill="none" xmlns="http://www.w3.org/2000/svg">
<circle cx="32" cy="32" r="32" fill="#4A5468"/>
<path fill-rule="evenodd" clip-rule="evenodd" d="M49 18C50.1046 18 51 18.8954 51 20V43C51 44.6569 49.7489 46 48 46H15C12.9596 46 12 44.933 12 43L12 23C12 21.8954 12.8954 21 14 21L16 21L17 21V20C17 18.8954 17.8954 18 19 18H49ZM15.5 24V43H17V24H15.5ZM22 21C21.4477 21 21 21.4477 21 22V29C21 29.5523 21.4477 30 22 30H46C46.5523 30 47 29.5523 47 29V22C47 21.4477 46.5523 21 46 21H22ZM21 33C21 32.4477 21.4477 32 22 32H32C32.5523 32 33 32.4477 33 33V34C33 34.5523 32.5523 35 32 35H22C21.4477 35 21 34.5523 21 34V33ZM22 37C21.4477 37 21 37.4477 21 38C21 38.5523 21.4477 39 22 39H32C32.5523 39 33 38.5523 33 38C33 37.4477 32.5523 37 32 37H22ZM21 42C21 41.4477 21.4477 41 22 41H32C32.5523 41 33 41.4477 33 42C33 42.5523 32.5523 43 32 43H22C21.4477 43 21 42.5523 21 42ZM36 32C35.4477 32 35 32.4477 35 33V34C35 34.5523 35.4477 35 36 35H46C46.5523 35 47 34.5523 47 34V33C47 32.4477 46.5523 32 46 32H36ZM35 38C35 37.4477 35.4477 37 36 37H46C46.5523 37 47 37.4477 47 38C47 38.5523 46.5523 39 46 39H36C35.4477 39 35 38.5523 35 38ZM36 41C35.4477 41 35 41.4477 35 42C35 42.5523 35.4477 43 36 43H46C46.5523 43 47 42.5523 47 42C47 41.4477 46.5523 41 46 41H36Z" fill="white"/>
</svg>
