<svg width="64" height="64" viewBox="0 0 64 64" fill="none" xmlns="http://www.w3.org/2000/svg">
<circle cx="32" cy="32" r="32" fill="#D5671D"/>
<path fill-rule="evenodd" clip-rule="evenodd" d="M17 20.9999C15.7675 21.4885 15 22.5685 15 23.9999V44.9999C15 46.8942 16.1215 47.9999 18 47.9999H46C47.8785 47.9999 49 46.8942 49 44.9999V23.9999C49 22.1056 47.8785 20.9999 46 20.9999H26L38.6554 15.5761C39.4154 15.2504 39.7989 14.3965 39.5374 13.6121C39.2466 12.7396 38.2783 12.2951 37.4271 12.6433L17 20.9999ZM23.5 44.9999C20.5 44.9999 18 42.337 18 39.4999C18 36.6627 20 33.9999 23.5 33.9999C26.8475 33.9999 29 36.4999 29 39.4999C29 42.9999 26.3135 44.9999 23.5 44.9999ZM46 30.9999H42V28.4999C42 27.6715 41.3284 26.9999 40.5 26.9999C39.6716 26.9999 39 27.6715 39 28.4999V30.9999H18V23.9999H46V30.9999ZM32 34.9999C32 34.4476 32.4477 33.9999 33 33.9999H43C43.5523 33.9999 44 34.4476 44 34.9999C44 35.5522 43.5523 35.9999 43 35.9999H33C32.4477 35.9999 32 35.5522 32 34.9999ZM33 37.9999C32.4477 37.9999 32 38.4476 32 38.9999C32 39.5522 32.4477 39.9999 33 39.9999H43C43.5523 39.9999 44 39.5522 44 38.9999C44 38.4476 43.5523 37.9999 43 37.9999H33ZM32 42.9999C32 42.4476 32.4477 41.9999 33 41.9999H43C43.5523 41.9999 44 42.4476 44 42.9999C44 43.5522 43.5523 43.9999 43 43.9999H33C32.4477 43.9999 32 43.5522 32 42.9999ZM23.5 41.9999C24.8807 41.9999 26 40.8806 26 39.4999C26 38.1192 24.8807 36.9999 23.5 36.9999C22.1193 36.9999 21 38.1192 21 39.4999C21 40.8806 22.1193 41.9999 23.5 41.9999Z" fill="white"/>
</svg>
