<svg width="64" height="64" viewBox="0 0 64 64" fill="none" xmlns="http://www.w3.org/2000/svg">
<circle cx="32" cy="32" r="32" fill="#2DA4D7"/>
<path d="M13.2071 30.9361L34.6511 21.4379C36.7679 20.4486 43.9465 17.2825 43.9465 17.2825C43.9465 17.2825 47.2598 15.8974 46.9837 19.2613C46.8916 20.6464 46.1553 25.4944 45.4191 30.7382L43.1182 46.2716C43.1182 46.2716 42.9341 48.5472 41.3696 48.943C39.805 49.3388 37.228 47.5579 36.7679 47.1621C36.3997 46.8653 29.8653 42.413 27.4724 40.2364C26.8281 39.6427 26.0919 38.4555 27.5644 37.0703C30.8777 33.8053 34.8351 29.7488 37.228 27.1764C38.3324 25.9891 39.4368 23.2188 34.8351 26.5828L21.8583 35.982C21.8583 35.982 20.3857 36.9714 17.6247 36.0809C14.8637 35.1905 11.6425 34.0032 11.6425 34.0032C11.6425 34.0032 9.43366 32.5191 13.2071 30.9361V30.9361Z" fill="white"/>
</svg>
