<svg width="64" height="64" viewBox="0 0 64 64" fill="none" xmlns="http://www.w3.org/2000/svg">
<circle cx="32" cy="32" r="32" fill="#0058A9"/>
<path fill-rule="evenodd" clip-rule="evenodd" d="M17.2727 16H46.7273C48.5355 16 50 17.4917 50 19.3333L49.9836 39.6667C49.9836 41.5083 48.5355 43 46.7273 43H38.5455L39.6467 46.3805C40.0677 47.673 39.1044 49 37.745 49H25.6906C24.2038 49 23.2369 47.4354 23.9018 46.1056L25.4545 43H17.2727C15.4645 43 14 41.5083 14 39.6667L14 19.3333C14 17.4917 15.4646 16 17.2727 16ZM17.2727 40H47V19H17L17.2727 40ZM28.2251 33.1813C28.4394 33.1813 28.6299 33.3179 28.6987 33.5209L29.0846 34.6604C29.1534 34.8634 29.3439 35 29.5582 35H31.1417C31.4883 35 31.7298 34.6558 31.6118 34.3299L28.2483 25.0339C28.1767 24.8359 27.9887 24.704 27.7782 24.704H25.5758C25.3652 24.704 25.1772 24.8359 25.1056 25.0339L21.7421 34.3299C21.6242 34.6558 21.8656 35 22.2123 35H23.7664C23.9807 35 24.1712 34.8634 24.24 34.6604L24.6259 33.5209C24.6947 33.3179 24.8852 33.1813 25.0995 33.1813H28.2251ZM26.6623 27.476L27.9383 31.2453H25.401L26.6623 27.476ZM39.6908 25.3493C38.8792 24.9191 37.9308 24.704 36.8454 24.704H33.4881C33.212 24.704 32.9881 24.9278 32.9881 25.204V34.5C32.9881 34.7761 33.212 35 33.4881 35H36.8454C37.921 35 38.8645 34.7849 39.6761 34.3546C40.4974 33.9244 41.1281 33.3182 41.5681 32.536C42.0179 31.7538 42.2428 30.8591 42.2428 29.852C42.2428 28.8351 42.0179 27.9404 41.5681 27.168C41.1281 26.3858 40.5023 25.7795 39.6908 25.3493ZM38.8988 32.052C38.3708 32.5702 37.6325 32.8293 36.6841 32.8293H35.4961V26.8453H36.6841C37.6325 26.8453 38.3708 27.1093 38.8988 27.6373C39.4268 28.1653 39.6908 28.9035 39.6908 29.852C39.6908 30.8004 39.4268 31.5338 38.8988 32.052Z" fill="white"/>
</svg>
