<svg width="64" height="64" viewBox="0 0 64 64" fill="none" xmlns="http://www.w3.org/2000/svg">
<path d="M64 32C64 49.6731 49.6731 64 32 64C14.3269 64 0 49.6731 0 32C0 14.3269 14.3269 0 32 0C49.6731 0 64 14.3269 64 32Z" fill="#FF4A00"/>
<path d="M49.7489 29.0007H39.2417L46.671 21.571C46.0869 20.7511 45.4362 19.9815 44.7261 19.2714C44.0169 18.5622 43.2484 17.9115 42.4294 17.3283L35.0001 24.758V14.2502C34.0272 14.0873 33.0291 14.0009 32.0094 14H31.9905C30.9718 14.0009 29.9728 14.0873 28.9999 14.2502V24.758L21.5706 17.3283C20.7507 17.9124 19.9822 18.5622 19.273 19.2723L19.2703 19.275C18.5611 19.9842 17.9113 20.752 17.3281 21.571L24.7574 29.0007H14.2502C14.2502 29.0007 14 30.9744 14 31.9941V32.0068C14 33.0274 14.0873 34.0264 14.2502 35.0002H24.7574L17.3281 42.4299C18.4954 44.0698 19.9309 45.5053 21.5706 46.6726L28.9999 39.2429V49.7498C29.9719 49.9127 30.9691 49.9991 31.9869 50H32.013C33.0309 49.9991 34.0281 49.9127 35.0001 49.7498V39.2429L42.4294 46.6726C43.2493 46.0894 44.0169 45.4387 44.727 44.7295L44.7288 44.7277C45.438 44.0185 46.0887 43.2498 46.6719 42.4299L39.2426 35.0002H49.7498C49.9127 34.0282 49.9991 33.031 50 32.0131V31.987C49.9982 30.9699 49.9118 29.9718 49.7489 29.0007ZM36.4994 32.0086C36.4985 33.346 36.2537 34.6267 35.8083 35.8084C34.6266 36.254 33.345 36.4997 32.0076 36.5006H31.9923C30.655 36.4997 29.3743 36.2549 28.1926 35.8093C27.7472 34.6276 27.5015 33.346 27.5006 32.0086V31.9933C27.5015 30.6558 27.7463 29.3751 28.1917 28.1934C29.3743 27.7469 30.655 27.5021 31.9932 27.5012H32.0085C33.3468 27.5021 34.6275 27.7478 35.8092 28.1934C36.2546 29.3751 36.4994 30.6558 36.5003 31.9933V32.0086H36.4994Z" fill="white"/>
</svg>
