<svg width="64" height="64" viewBox="0 0 64 64" fill="none" xmlns="http://www.w3.org/2000/svg">
<circle cx="32" cy="32" r="32" fill="#00363D"/>
<path d="M45.8488 36.3876C44.2642 37.2811 42.5456 37.7109 40.8606 37.7109C39.7558 37.7109 38.6622 37.53 37.7471 37.1567C36.062 38.6949 34.2542 39.7807 33.3392 40.2783C34.656 42.4046 36.7651 44.0333 39.3652 44.6892C40.1687 44.8928 40.9721 44.9833 41.7645 44.9833C43.5388 44.9833 45.2462 44.4857 46.708 43.694C46.9201 42.857 47.0317 41.9861 47.0317 41.1153C47.0205 39.5205 46.6411 37.8919 45.8488 36.3876Z" fill="white"/>
<path d="M44.1525 23.7202C44.0298 23.6863 43.9182 23.6411 43.7954 23.6071V23.6185C43.9293 23.6524 44.0298 23.6976 44.1525 23.7202Z" fill="white"/>
<path d="M43.7954 23.7083C43.4941 25.7328 42.6348 27.5312 41.4185 28.8657C41.4854 29.2164 41.5301 29.6122 41.5301 30.0194C41.5301 32.3832 40.3249 34.4416 38.8183 36.0929C39.2536 36.1494 39.6888 36.1721 40.1128 36.1721C42.2554 36.1721 44.4203 35.4708 46.2505 34.0345C48.3596 32.3606 49.6317 29.9854 50 27.5651C48.5828 25.665 46.4848 24.3084 44.1525 23.7202C44.0298 23.6976 43.9182 23.6411 43.7954 23.6185L43.7954 23.7083Z" fill="white"/>
<path d="M42.2108 21.9783C42.2108 19.2526 41.1507 16.787 39.4991 15C39.4545 15 39.3987 15 39.354 15C36.9771 15 34.8903 15.8596 33.0044 17.59C34.8122 19.5353 35.4594 22.001 35.4594 24.4666C35.4594 24.6701 35.4482 24.8624 35.4482 25.0547C35.85 24.9529 36.2629 24.8963 36.6646 24.8963C36.6981 24.8963 36.7316 24.8963 36.7762 24.8963C38.3274 24.9303 39.8897 25.7107 40.7936 27.181C41.6863 25.6541 42.2108 23.8784 42.2108 21.9783Z" fill="white"/>
<path d="M24.2778 15.181C24.1327 15.181 23.9876 15.181 23.9318 15.1471C22.3026 16.9567 21.3317 19.3431 21.3317 21.9444C21.3317 21.9784 21.3317 22.0123 21.3205 22.0349C21.4321 22.0349 21.5437 22.0349 21.6665 22.0349C24.4005 22.0349 26.9002 23.1433 28.6745 24.919C30.1587 25.0208 31.6876 25.8238 32.491 27.4185C32.9262 26.5703 33.5623 25.9369 34.2319 25.6202C34.2319 25.5071 34.2319 25.394 34.2319 25.2696C34.2319 22.4873 33.0936 19.705 30.8841 17.7258C28.987 16.0066 26.6212 15.181 24.2778 15.181Z" fill="white"/>
<path d="M27.0676 25.0548C25.5722 24.1726 23.8537 23.6749 22.057 23.6749C21.4768 23.6749 20.8853 23.7202 20.305 23.8333C17.6491 24.3196 15.4396 25.8126 14 27.7692C14.3906 30.2009 15.6627 32.4855 17.7049 34.1029C19.2003 32.067 21.287 30.7551 23.452 30.3366C23.452 30.2348 23.452 30.1217 23.452 30.0086C23.4408 27.2602 25.137 25.5637 27.0676 25.0548Z" fill="white"/>
<path d="M18.2963 36.4101C17.504 37.9144 17.1246 39.5317 17.1246 41.1264C17.1246 42.0765 17.2585 43.0265 17.4594 43.8635C18.9101 44.6665 20.5505 45.1076 22.2467 45.1076C23.0502 45.1076 23.8537 45.0058 24.6794 44.8022C24.4339 43.8861 24.3112 42.97 24.3112 42.0652C24.3112 39.905 24.9919 37.8352 26.186 36.1161C25.0365 34.8493 24.0545 33.3564 23.6528 31.6712C21.4321 32.4968 19.4904 34.1255 18.2963 36.4101Z" fill="white"/>
<path d="M26.7327 45.7974H26.7216L26.6212 45.8532L26.7327 45.7974Z" fill="white"/>
<path d="M32.1227 51.0001C34.3546 50.0161 36.2405 48.2178 37.2895 45.8087C34.7452 44.7343 32.8592 42.7324 31.9107 40.4138C31.0961 39.984 28.9981 38.7965 27.0787 37.0095C26.3533 38.4345 25.9739 40.0179 25.9739 41.6466C25.9739 43.0151 26.2418 44.4176 26.8444 45.7522C27.9268 48.2404 29.902 50.0613 32.1227 51.0001Z" fill="white"/>
<path d="M26.8332 45.7522L26.7216 45.7974H26.7327L26.8332 45.7522Z" fill="white"/>
</svg>
