<svg xmlns="http://www.w3.org/2000/svg" viewBox="0 0 108 144"><defs><style>.cls-1,.cls-13,.cls-8{fill:#fff;}.cls-1,.cls-10,.cls-4,.cls-9{fill-rule:evenodd;}.cls-2,.cls-9{fill:#c6cbd5;}.cls-10,.cls-3{fill:#028fd7;}.cls-4{fill:#e6eaed;}.cls-5{fill:#ff6259;}.cls-6{fill:#ffbd2d;}.cls-7{fill:#2bca41;}.cls-11,.cls-12{fill:none;stroke:#028fd7;}.cls-11,.cls-13{stroke-miterlimit:10;}.cls-12{stroke-linejoin:round;}.cls-13{stroke:#c6cbd5;}</style></defs><title>Blog Post</title><g id="Layer_2" data-name="Layer 2"><g id="Blog_Post" data-name="Blog Post"><path class="cls-1" d="M5.63,143.5A5.13,5.13,0,0,1,.5,138.38V15.5h107V138.38a5.13,5.13,0,0,1-5.12,5.13Z"/><path class="cls-2" d="M107,16V138.38a4.63,4.63,0,0,1-4.62,4.63H5.63A4.63,4.63,0,0,1,1,138.38V16H107m1-1H0V138.38A5.62,5.62,0,0,0,5.63,144h96.75a5.62,5.62,0,0,0,5.63-5.62V15Z"/><path class="cls-3" d="M94.85,28A1.09,1.09,0,0,1,96,29V60a1.09,1.09,0,0,1-1.15,1H13.15A1.09,1.09,0,0,1,12,60V29a1.09,1.09,0,0,1,1.15-1h81.7m0-1H13.15A2.09,2.09,0,0,0,11,29V60a2.09,2.09,0,0,0,2.15,2h81.7A2.09,2.09,0,0,0,97,60V29a2.09,2.09,0,0,0-2.15-2Z"/><path class="cls-4" d="M.5,15.5V5.63A5.13,5.13,0,0,1,5.63.5h96.75a5.13,5.13,0,0,1,5.13,5.13V15.5Z"/><path class="cls-2" d="M102.38,1A4.63,4.63,0,0,1,107,5.63V15H1V5.63A4.63,4.63,0,0,1,5.63,1h96.75m0-1H5.63A5.62,5.62,0,0,0,0,5.63V16H108V5.63A5.62,5.62,0,0,0,102.38,0Z"/><circle class="cls-5" cx="11" cy="8" r="2"/><circle class="cls-6" cx="17" cy="8" r="2"/><circle class="cls-7" cx="23" cy="8" r="2"/><rect class="cls-8" x="34.5" y="4.5" width="64" height="7" rx="1.22" ry="1.22"/><path class="cls-2" d="M97.28,5a.73.73,0,0,1,.72.72v4.55a.73.73,0,0,1-.72.72H35.72a.73.73,0,0,1-.72-.72V5.72A.73.73,0,0,1,35.72,5H97.28m0-1H35.72A1.72,1.72,0,0,0,34,5.72v4.55A1.72,1.72,0,0,0,35.72,12H97.28A1.72,1.72,0,0,0,99,10.28V5.72A1.72,1.72,0,0,0,97.28,4Z"/><path class="cls-9" d="M11,83H97v2H11Z"/><path class="cls-9" d="M11,88.38l56-.63,0,2-56,.63Z"/><path class="cls-9" d="M11,78H89v2H11Z"/><path class="cls-9" d="M11,93H98v2H11Z"/><path class="cls-10" d="M11,73H80v2H11Z"/><polygon class="cls-11" points="41 53.5 48.43 42.99 52.14 47.41 57.71 40.55 67 53.5 41 53.5"/><circle class="cls-11" cx="51.34" cy="38.87" r="1.83"/><path class="cls-10" d="M11,68H97v2H11Z"/><path class="cls-12" d="M21.06,116.52,19,116l-.21-.85A6.45,6.45,0,0,0,21,114.5s-1-.75-1-3.5-.83-3-1.25-3H18.5a1.39,1.39,0,0,0-1.25-.5A3.18,3.18,0,0,0,14.5,111c0,2.75-1,3.5-1,3.5a6.32,6.32,0,0,0,2.21.65l-.21.85-2.06.52A2.56,2.56,0,0,0,11.5,119H23A2.56,2.56,0,0,0,21.06,116.52Z"/><g id="_Group_" data-name="&lt;Group&gt;"><path id="_Path_" data-name="&lt;Path&gt;" class="cls-12" d="M97,132h0a2.77,2.77,0,0,0-2.19-2.66l-2.33-.55-.27-1a3.34,3.34,0,0,0,1.15-2.21h0a.56.56,0,0,0,.56-.47l.14-1.07a.55.55,0,0,0-.55-.6l.07-1.34.28-.27a1,1,0,0,0,0-1.34,2.16,2.16,0,0,0-1.9-.8,3.55,3.55,0,0,0-2.05.54c-2.28,0-2.54.92-2.54,1.87,0,.34.13,1.34.13,1.34h-.06a.55.55,0,0,0-.56.6l.14,1.07a.56.56,0,0,0,.56.47h.09a3.35,3.35,0,0,0,1.1,2.16l-.28,1.05-2.33.55A2.77,2.77,0,0,0,84,132Z"/></g><path class="cls-9" d="M49,126H78v2H49Z"/><path class="cls-9" d="M33,122H78v2H33Z"/><path class="cls-9" d="M28,114H71v2H28Z"/><path class="cls-9" d="M28,110H66v2H28Z"/><line class="cls-13" x1="0.5" y1="101.5" x2="107.5" y2="101.5"/></g></g></svg>