<svg xmlns="http://www.w3.org/2000/svg" viewBox="0 0 108 144"><defs><style>.cls-1,.cls-11,.cls-7{fill:#fff;}.cls-1,.cls-10,.cls-3{fill-rule:evenodd;}.cls-2{fill:#c6cbd5;}.cls-3,.cls-8{fill:#e6eaed;}.cls-4{fill:#ff6259;}.cls-5{fill:#ffbd2d;}.cls-6{fill:#2bca41;}.cls-10,.cls-9{fill:#028fd7;}.cls-11{font-size:8px;font-family:ProximaNova-Extrabld, Proxima Nova;font-weight:700;}.cls-12{letter-spacing:0.01em;}.cls-13{letter-spacing:0.02em;}.cls-14{letter-spacing:0em;}.cls-15{letter-spacing:0.03em;}.cls-16{letter-spacing:0.02em;}.cls-17{letter-spacing:-0.01em;}</style></defs><title>Calendar</title><g id="Layer_2" data-name="Layer 2"><g id="Calendar"><path class="cls-1" d="M5.63,143.5A5.13,5.13,0,0,1,.5,138.38V15.5h107V138.38a5.13,5.13,0,0,1-5.12,5.13Z"/><path class="cls-2" d="M107,16V138.38a4.63,4.63,0,0,1-4.62,4.63H5.63A4.63,4.63,0,0,1,1,138.38V16H107m1-1H0V138.38A5.62,5.62,0,0,0,5.63,144h96.75a5.62,5.62,0,0,0,5.63-5.62V15Z"/><path class="cls-3" d="M.5,15.5V5.63A5.13,5.13,0,0,1,5.63.5h96.75a5.13,5.13,0,0,1,5.13,5.13V15.5Z"/><path class="cls-2" d="M102.38,1A4.63,4.63,0,0,1,107,5.63V15H1V5.63A4.63,4.63,0,0,1,5.63,1h96.75m0-1H5.63A5.63,5.63,0,0,0,0,5.63V16H108V5.63A5.63,5.63,0,0,0,102.38,0Z"/><circle class="cls-4" cx="11" cy="8" r="2"/><circle class="cls-5" cx="17" cy="8" r="2"/><circle class="cls-6" cx="23" cy="8" r="2"/><rect class="cls-7" x="34.5" y="4.5" width="64" height="7" rx="1.22" ry="1.22"/><path class="cls-2" d="M97.28,5a.73.73,0,0,1,.72.72v4.55a.73.73,0,0,1-.72.72H35.72a.73.73,0,0,1-.72-.72V5.72A.73.73,0,0,1,35.72,5H97.28m0-1H35.72A1.72,1.72,0,0,0,34,5.72v4.55A1.72,1.72,0,0,0,35.72,12H97.28A1.72,1.72,0,0,0,99,10.28V5.72A1.72,1.72,0,0,0,97.28,4Z"/><path class="cls-2" d="M24,56v64H16.89A3.89,3.89,0,0,1,13,116.11V56H24m1-1H12v61.11A4.89,4.89,0,0,0,16.89,121H25V55Z"/><path class="cls-2" d="M36,56v64H25V56H36m1-1H24v66H37V55Z"/><path class="cls-2" d="M48,56v64H37V56H48m1-1H36v66H49V55Z"/><path class="cls-2" d="M60,56v64H49V56H60m1-1H48v66H61V55Z"/><path class="cls-2" d="M72,56v64H61V56H72m1-1H60v66H73V55Z"/><path class="cls-2" d="M84,56v64H73V56H84m1-1H72v66H85V55Z"/><path class="cls-2" d="M96,56v60.11A3.89,3.89,0,0,1,92.11,120H85V56H96m1-1H84v66h8.11A4.89,4.89,0,0,0,97,116.11V55Z"/><path class="cls-2" d="M96,56V68H13V56H96m1-1H12V69H97V55Z"/><path class="cls-2" d="M96,56V68H13V56H96m1-1H12V69H97V55Z"/><path class="cls-2" d="M96,82V94H13V82H96m1-1H12V95H97V81Z"/><path class="cls-2" d="M96,95v12H13V95H96m1-1H12v14H97V94Z"/><rect class="cls-8" x="12.5" y="55.5" width="36" height="13"/><path class="cls-2" d="M48,56V68H13V56H48m1-1H12V69H49V55Z"/><path class="cls-3" d="M84.5,120.5v-13h12v9.9a3.1,3.1,0,0,1-3.1,3.1Z"/><path class="cls-2" d="M96,108v9.4a2.6,2.6,0,0,1-2.6,2.6H85V108H96m1-1H84v14h9.4a3.6,3.6,0,0,0,3.6-3.6V107Z"/><rect class="cls-9" x="60" y="81" width="13" height="14"/><path class="cls-10" d="M15.16,36H93.84A3.16,3.16,0,0,1,97,39.16V53H12V39.16A3.16,3.16,0,0,1,15.16,36Z"/><text class="cls-11" transform="translate(32.87 47.25)"><tspan class="cls-12">C</tspan><tspan class="cls-13" x="5.62" y="0">A</tspan><tspan class="cls-14" x="11.33" y="0">L</tspan><tspan class="cls-15" x="15.54" y="0">E</tspan><tspan class="cls-16" x="20.46" y="0">N</tspan><tspan class="cls-17" x="26.53" y="0">D</tspan><tspan class="cls-13" x="32.27" y="0">A</tspan><tspan x="37.97" y="0">R</tspan></text></g></g></svg>