<svg xmlns="http://www.w3.org/2000/svg" viewBox="0 0 108 144"><defs><style>.cls-1,.cls-8{fill:#fff;}.cls-1,.cls-10,.cls-4,.cls-9{fill-rule:evenodd;}.cls-2,.cls-9{fill:#c6cbd5;}.cls-10,.cls-3{fill:#028fd7;}.cls-4{fill:#e6eaed;}.cls-5{fill:#ff6259;}.cls-6{fill:#ffbd2d;}.cls-7{fill:#2bca41;}.cls-11{fill:none;stroke:#028fd7;stroke-linejoin:round;}</style></defs><title>Members Area</title><g id="Layer_2" data-name="Layer 2"><g id="Layer_12" data-name="Layer 12"><path class="cls-1" d="M5.63,143.5A5.13,5.13,0,0,1,.5,138.38V15.5h107V138.38a5.13,5.13,0,0,1-5.12,5.13Z"/><path class="cls-2" d="M107,16V138.38a4.63,4.63,0,0,1-4.62,4.63H5.63A4.63,4.63,0,0,1,1,138.38V16H107m1-1H0V138.38A5.62,5.62,0,0,0,5.63,144h96.75a5.62,5.62,0,0,0,5.63-5.62V15Z"/><path class="cls-3" d="M94.85,52A1.09,1.09,0,0,1,96,53V84a1.09,1.09,0,0,1-1.15,1H13.15A1.09,1.09,0,0,1,12,84V53a1.09,1.09,0,0,1,1.15-1h81.7m0-1H13.15A2.09,2.09,0,0,0,11,53V84a2.09,2.09,0,0,0,2.15,2h81.7A2.09,2.09,0,0,0,97,84V53a2.09,2.09,0,0,0-2.15-2Z"/><path class="cls-4" d="M.5,15.5V5.63A5.13,5.13,0,0,1,5.63.5h96.75a5.13,5.13,0,0,1,5.13,5.13V15.5Z"/><path class="cls-2" d="M102.38,1A4.63,4.63,0,0,1,107,5.63V15H1V5.63A4.63,4.63,0,0,1,5.63,1h96.75m0-1H5.63A5.62,5.62,0,0,0,0,5.63V16H108V5.63A5.62,5.62,0,0,0,102.38,0Z"/><circle class="cls-5" cx="11" cy="8" r="2"/><circle class="cls-6" cx="17" cy="8" r="2"/><circle class="cls-7" cx="23" cy="8" r="2"/><rect class="cls-8" x="34.5" y="4.5" width="64" height="7" rx="1.22" ry="1.22"/><path class="cls-2" d="M97.28,5a.73.73,0,0,1,.72.72v4.55a.73.73,0,0,1-.72.72H35.72a.73.73,0,0,1-.72-.72V5.72A.73.73,0,0,1,35.72,5H97.28m0-1H35.72A1.72,1.72,0,0,0,34,5.72v4.55A1.72,1.72,0,0,0,35.72,12H97.28A1.72,1.72,0,0,0,99,10.28V5.72A1.72,1.72,0,0,0,97.28,4Z"/><path class="cls-9" d="M11,38H97v2H11Z"/><path class="cls-9" d="M42,43H66v2H42Z"/><path class="cls-9" d="M27,33H81v2H27Z"/><path class="cls-10" d="M11,28H97v2H11Z"/><path class="cls-9" d="M23,95H97v2H23Z"/><path class="cls-9" d="M23,105H83.13v2H23Z"/><path class="cls-9" d="M23,115H92.38v2H23Z"/><path class="cls-9" d="M23,125H76.19v2H23Z"/><rect class="cls-8" x="11.5" y="92.5" width="7" height="7" rx="1.26" ry="1.26"/><path class="cls-2" d="M17.24,93a.76.76,0,0,1,.76.76v4.47a.76.76,0,0,1-.76.76H12.76a.76.76,0,0,1-.76-.76V93.76a.76.76,0,0,1,.76-.76h4.47m0-1H12.76A1.77,1.77,0,0,0,11,93.76v4.47A1.77,1.77,0,0,0,12.76,100h4.47A1.77,1.77,0,0,0,19,98.24V93.76A1.77,1.77,0,0,0,17.24,92Z"/><rect class="cls-8" x="11.5" y="102.5" width="7" height="7" rx="1.26" ry="1.26"/><path class="cls-2" d="M17.24,103a.76.76,0,0,1,.76.76v4.47a.76.76,0,0,1-.76.76H12.76a.76.76,0,0,1-.76-.76v-4.47a.76.76,0,0,1,.76-.76h4.47m0-1H12.76A1.77,1.77,0,0,0,11,103.76v4.47A1.77,1.77,0,0,0,12.76,110h4.47A1.77,1.77,0,0,0,19,108.24v-4.47A1.77,1.77,0,0,0,17.24,102Z"/><rect class="cls-8" x="11.5" y="112.5" width="7" height="7" rx="1.26" ry="1.26"/><path class="cls-2" d="M17.24,113a.76.76,0,0,1,.76.76v4.47a.76.76,0,0,1-.76.76H12.76a.76.76,0,0,1-.76-.76v-4.47a.76.76,0,0,1,.76-.76h4.47m0-1H12.76A1.77,1.77,0,0,0,11,113.76v4.47A1.77,1.77,0,0,0,12.76,120h4.47A1.77,1.77,0,0,0,19,118.24v-4.47A1.77,1.77,0,0,0,17.24,112Z"/><rect class="cls-8" x="11.5" y="122.5" width="7" height="7" rx="1.26" ry="1.26"/><path class="cls-2" d="M17.24,123a.76.76,0,0,1,.76.76v4.47a.76.76,0,0,1-.76.76H12.76a.76.76,0,0,1-.76-.76v-4.47a.76.76,0,0,1,.76-.76h4.47m0-1H12.76A1.77,1.77,0,0,0,11,123.76v4.47A1.77,1.77,0,0,0,12.76,130h4.47A1.77,1.77,0,0,0,19,128.24v-4.47A1.77,1.77,0,0,0,17.24,122Z"/><rect class="cls-3" x="13" y="94" width="4" height="4"/><rect class="cls-3" x="13" y="114" width="4" height="4"/><rect class="cls-3" x="13" y="124" width="4" height="4"/><rect class="cls-3" x="13" y="104" width="4" height="4"/><g id="_Group_" data-name="&lt;Group&gt;"><path id="_Path_" data-name="&lt;Path&gt;" class="cls-11" d="M63.78,77h0a3.83,3.83,0,0,0-3-3.67l-3.22-.76-.37-1.39a4.61,4.61,0,0,0,1.59-3h0a.77.77,0,0,0,.77-.65l.2-1.48a.75.75,0,0,0-.77-.83l.09-1.85.39-.37a1.31,1.31,0,0,0,0-1.85A3,3,0,0,0,56.86,60a4.89,4.89,0,0,0-2.83.74c-3.14,0-3.51,1.27-3.51,2.59,0,.46.18,1.85.18,1.85h-.08a.75.75,0,0,0-.77.83l.2,1.48a.77.77,0,0,0,.77.65h.13a4.62,4.62,0,0,0,1.52,3l-.38,1.45-3.22.76a3.83,3.83,0,0,0-3,3.67Z"/></g></g></g></svg>