<svg xmlns="http://www.w3.org/2000/svg" viewBox="0 0 108 144"><defs><style>.cls-1,.cls-10,.cls-7{fill:#fff;}.cls-1,.cls-3,.cls-8,.cls-9{fill-rule:evenodd;}.cls-2,.cls-9{fill:#c6cbd5;}.cls-3{fill:#e6eaed;}.cls-4{fill:#ff6259;}.cls-5{fill:#ffbd2d;}.cls-6{fill:#2bca41;}.cls-8{fill:#028fd7;}.cls-10{font-size:8px;font-family:ProximaNova-Extrabld, Proxima Nova;font-weight:700;}.cls-11{letter-spacing:0.02em;}.cls-12{letter-spacing:0.02em;}</style></defs><title>Opt In</title><g id="Layer_2" data-name="Layer 2"><g id="Optin"><path class="cls-1" d="M5.63,143.5A5.13,5.13,0,0,1,.5,138.38V15.5h107V138.38a5.13,5.13,0,0,1-5.12,5.13Z"/><path class="cls-2" d="M107,16V138.38a4.63,4.63,0,0,1-4.62,4.63H5.63A4.63,4.63,0,0,1,1,138.38V16H107m1-1H0V138.38A5.63,5.63,0,0,0,5.63,144h96.75a5.63,5.63,0,0,0,5.63-5.62V15Z"/><path class="cls-2" d="M94.85,84A1.2,1.2,0,0,1,96,85.25v6.5A1.2,1.2,0,0,1,94.85,93H13.15A1.2,1.2,0,0,1,12,91.75v-6.5A1.2,1.2,0,0,1,13.15,84h81.7m0-1H13.15A2.2,2.2,0,0,0,11,85.25v6.5A2.2,2.2,0,0,0,13.15,94h81.7A2.2,2.2,0,0,0,97,91.75v-6.5A2.2,2.2,0,0,0,94.85,83Z"/><path class="cls-2" d="M94.85,71A1.2,1.2,0,0,1,96,72.25v6.5A1.2,1.2,0,0,1,94.85,80H13.15A1.2,1.2,0,0,1,12,78.75v-6.5A1.2,1.2,0,0,1,13.15,71h81.7m0-1H13.15A2.2,2.2,0,0,0,11,72.25v6.5A2.2,2.2,0,0,0,13.15,81h81.7A2.2,2.2,0,0,0,97,78.75v-6.5A2.2,2.2,0,0,0,94.85,70Z"/><path class="cls-3" d="M.5,15.5V5.63A5.13,5.13,0,0,1,5.63.5h96.75a5.13,5.13,0,0,1,5.13,5.13V15.5Z"/><path class="cls-2" d="M102.38,1A4.63,4.63,0,0,1,107,5.63V15H1V5.63A4.63,4.63,0,0,1,5.63,1h96.75m0-1H5.63A5.63,5.63,0,0,0,0,5.63V16H108V5.63A5.63,5.63,0,0,0,102.38,0Z"/><circle class="cls-4" cx="11" cy="8" r="2"/><circle class="cls-5" cx="17" cy="8" r="2"/><circle class="cls-6" cx="23" cy="8" r="2"/><rect class="cls-7" x="34.5" y="4.5" width="64" height="7" rx="1.22" ry="1.22"/><path class="cls-2" d="M97.28,5a.73.73,0,0,1,.72.72v4.55a.73.73,0,0,1-.72.72H35.72a.73.73,0,0,1-.72-.72V5.72A.73.73,0,0,1,35.72,5H97.28m0-1H35.72A1.72,1.72,0,0,0,34,5.72v4.55A1.72,1.72,0,0,0,35.72,12H97.28A1.72,1.72,0,0,0,99,10.28V5.72A1.72,1.72,0,0,0,97.28,4Z"/><path class="cls-8" d="M13.15,96h81.7A2.08,2.08,0,0,1,97,98v10a2.08,2.08,0,0,1-2.15,2H13.15A2.08,2.08,0,0,1,11,108V98A2.08,2.08,0,0,1,13.15,96Z"/><path class="cls-9" d="M11,57H97v2H11Z"/><path class="cls-9" d="M41,62H67v2H41Z"/><path class="cls-9" d="M24,52H84v2H24Z"/><path class="cls-8" d="M11,47H97v2H11Z"/><text class="cls-10" transform="translate(41.91 106)"><tspan class="cls-11">OP</tspan><tspan x="11.53" y="0">T </tspan><tspan class="cls-12" x="18.29" y="0">I</tspan><tspan x="20.77" y="0">N</tspan></text></g></g></svg>