<svg xmlns="http://www.w3.org/2000/svg" viewBox="0 0 108 144"><defs><style>.cls-1,.cls-10,.cls-8{fill:#fff;}.cls-1,.cls-16,.cls-4,.cls-9{fill-rule:evenodd;}.cls-16,.cls-2{fill:#c6cbd5;}.cls-3,.cls-9{fill:#028fd7;}.cls-4{fill:#e6eaed;}.cls-5{fill:#ff6259;}.cls-6{fill:#ffbd2d;}.cls-7{fill:#2bca41;}.cls-10{font-size:8px;font-family:ProximaNova-Extrabld, Proxima Nova;font-weight:700;}.cls-11{letter-spacing:0.01em;}.cls-12{letter-spacing:0.02em;}.cls-13{letter-spacing:0.02em;}.cls-14{letter-spacing:0em;}.cls-15{fill:none;stroke:#028fd7;stroke-miterlimit:10;}</style></defs><title>Order Page 2</title><g id="Layer_2" data-name="Layer 2"><g id="Layer_16" data-name="Layer 16"><path class="cls-1" d="M5.63,143.5A5.13,5.13,0,0,1,.5,138.38V15.5h107V138.38a5.13,5.13,0,0,1-5.12,5.13Z"/><path class="cls-2" d="M107,16V138.38a4.63,4.63,0,0,1-4.62,4.63H5.63A4.63,4.63,0,0,1,1,138.38V16H107m1-1H0V138.38A5.63,5.63,0,0,0,5.63,144h96.75a5.63,5.63,0,0,0,5.63-5.62V15Z"/><path class="cls-3" d="M50,28c.45,0,.95.61.95,1.49v32c0,.88-.5,1.49-.95,1.49h-37c-.45,0-.95-.61-.95-1.49v-32c0-.88.5-1.49.95-1.49H50m0-1h-37A2.27,2.27,0,0,0,11,29.49v32A2.27,2.27,0,0,0,12.95,64H50a2.27,2.27,0,0,0,1.95-2.49v-32A2.27,2.27,0,0,0,50,27Z"/><path class="cls-4" d="M.5,15.5V5.63A5.13,5.13,0,0,1,5.63.5h96.75a5.13,5.13,0,0,1,5.13,5.12V15.5Z"/><path class="cls-2" d="M102.38,1A4.63,4.63,0,0,1,107,5.63V15H1V5.63A4.63,4.63,0,0,1,5.63,1h96.75m0-1H5.63A5.63,5.63,0,0,0,0,5.63V16H108V5.63A5.63,5.63,0,0,0,102.38,0Z"/><circle class="cls-5" cx="11" cy="8" r="2"/><circle class="cls-6" cx="17" cy="8" r="2"/><circle class="cls-7" cx="23" cy="8" r="2"/><rect class="cls-8" x="34.5" y="4.5" width="64" height="7" rx="1.22" ry="1.22"/><path class="cls-2" d="M97.28,5a.73.73,0,0,1,.72.72v4.55a.73.73,0,0,1-.72.72H35.72a.73.73,0,0,1-.72-.72V5.72A.73.73,0,0,1,35.72,5H97.28m0-1H35.72A1.72,1.72,0,0,0,34,5.72v4.55A1.72,1.72,0,0,0,35.72,12H97.28A1.72,1.72,0,0,0,99,10.28V5.72A1.72,1.72,0,0,0,97.28,4Z"/><path class="cls-9" d="M13.15,118h81.7A2.08,2.08,0,0,1,97,120v10a2.08,2.08,0,0,1-2.15,2H13.15A2.08,2.08,0,0,1,11,130V120A2.08,2.08,0,0,1,13.15,118Z"/><text class="cls-10" transform="translate(35.69 128)"><tspan class="cls-11">B</tspan><tspan class="cls-12" x="5.54" y="0">U</tspan><tspan x="11.67" y="0">Y </tspan><tspan class="cls-13" x="18.96" y="0">N</tspan><tspan class="cls-14" x="25.01" y="0">O</tspan><tspan x="31.13" y="0">W</tspan></text><g id="_Group_" data-name="&lt;Group&gt;"><g id="_Group_2" data-name="&lt;Group&gt;"><g id="_Group_3" data-name="&lt;Group&gt;"><path class="cls-3" d="M24.26,45.38a3.56,3.56,0,1,1-3.37,3.56,3.47,3.47,0,0,1,3.37-3.56m0-1a4.56,4.56,0,1,0,4.37,4.56,4.47,4.47,0,0,0-4.37-4.56Z"/></g></g><path id="_Path_" data-name="&lt;Path&gt;" class="cls-15" d="M22.51,49.91c.06.48.82.85,1.75.85S26,50.36,26,49.85c0-.74-1.44-.87-1.75-.91s-1.75-.17-1.75-.91c0-.5.78-.91,1.75-.91S26,47.49,26,48"/><line id="_Path_2" data-name="&lt;Path&gt;" class="cls-15" x1="24.26" y1="46.21" x2="24.26" y2="51.68"/><g id="_Group_4" data-name="&lt;Group&gt;"><g id="_Group_5" data-name="&lt;Group&gt;"><path id="_Path_3" data-name="&lt;Path&gt;" class="cls-15" d="M24.26,42.56V39.82A1.79,1.79,0,0,1,26,38H38.25A1.79,1.79,0,0,1,40,39.82v7.29a1.79,1.79,0,0,1-1.75,1.82H30.38"/></g><g id="_Group_6" data-name="&lt;Group&gt;"><path class="cls-3" d="M34.32,43.47a1.37,1.37,0,0,0,0,2.74,1.27,1.27,0,0,0,.87-.35,1.39,1.39,0,0,1,0-2,1.27,1.27,0,0,0-.87-.35Z"/></g><g id="_Group_7" data-name="&lt;Group&gt;"><path class="cls-3" d="M36.07,44.47a.37.37,0,1,1-.31.37.34.34,0,0,1,.31-.37m0-1a1.37,1.37,0,1,0,1.31,1.37,1.34,1.34,0,0,0-1.31-1.37Z"/></g><line id="_Path_4" data-name="&lt;Path&gt;" class="cls-15" x1="26.89" y1="40.74" x2="27.76" y2="40.74"/><line id="_Path_5" data-name="&lt;Path&gt;" class="cls-15" x1="29.51" y1="40.74" x2="30.38" y2="40.74"/><line id="_Path_6" data-name="&lt;Path&gt;" class="cls-15" x1="32.13" y1="40.74" x2="33.01" y2="40.74"/><line id="_Path_7" data-name="&lt;Path&gt;" class="cls-15" x1="34.75" y1="40.74" x2="35.63" y2="40.74"/><line id="_Path_8" data-name="&lt;Path&gt;" class="cls-15" x1="27.76" y1="43.47" x2="31.26" y2="43.47"/><line id="_Path_9" data-name="&lt;Path&gt;" class="cls-15" x1="31.26" y1="46.21" x2="30.38" y2="46.21"/></g></g><path class="cls-16" d="M56,47H97v2H56Z"/><path class="cls-16" d="M56,42H88v2H56Z"/><path class="cls-9" d="M56,27H97v2H56Z"/><path class="cls-16" d="M56,52H97v2H56Z"/><path class="cls-16" d="M56,57H92v2H56Z"/><path class="cls-16" d="M56,62H77v2H56Z"/><path class="cls-9" d="M56,32H92v2H56Z"/><path class="cls-9" d="M56,37H81v2H56Z"/><path class="cls-16" d="M23,107H97v2H23Z"/><rect class="cls-8" x="11.5" y="104.5" width="7" height="7" rx="1.26" ry="1.26"/><path class="cls-2" d="M17.24,105a.76.76,0,0,1,.76.76v4.48a.76.76,0,0,1-.76.76H12.76a.76.76,0,0,1-.76-.76v-4.48a.76.76,0,0,1,.76-.76h4.48m0-1H12.76A1.77,1.77,0,0,0,11,105.76v4.48A1.77,1.77,0,0,0,12.76,112h4.48A1.77,1.77,0,0,0,19,110.24v-4.48A1.77,1.77,0,0,0,17.24,104Z"/><rect class="cls-3" x="13" y="106" width="4" height="4"/><path class="cls-9" d="M11,96H97v2H11Z"/><path class="cls-2" d="M49.85,71A1.2,1.2,0,0,1,51,72.25v4.5A1.2,1.2,0,0,1,49.85,78H13.15A1.2,1.2,0,0,1,12,76.75v-4.5A1.2,1.2,0,0,1,13.15,71h36.7m0-1H13.15A2.2,2.2,0,0,0,11,72.25v4.5A2.2,2.2,0,0,0,13.15,79h36.7A2.2,2.2,0,0,0,52,76.75v-4.5A2.2,2.2,0,0,0,49.85,70Z"/><path class="cls-2" d="M94.85,71A1.2,1.2,0,0,1,96,72.25v4.5A1.2,1.2,0,0,1,94.85,78H58.15A1.2,1.2,0,0,1,57,76.75v-4.5A1.2,1.2,0,0,1,58.15,71h36.7m0-1H58.15A2.2,2.2,0,0,0,56,72.25v4.5A2.2,2.2,0,0,0,58.15,79h36.7A2.2,2.2,0,0,0,97,76.75v-4.5A2.2,2.2,0,0,0,94.85,70Z"/><path class="cls-2" d="M49.85,82A1.2,1.2,0,0,1,51,83.25v4.5A1.2,1.2,0,0,1,49.85,89H13.15A1.2,1.2,0,0,1,12,87.75v-4.5A1.2,1.2,0,0,1,13.15,82h36.7m0-1H13.15A2.2,2.2,0,0,0,11,83.25v4.5A2.2,2.2,0,0,0,13.15,90h36.7A2.2,2.2,0,0,0,52,87.75v-4.5A2.2,2.2,0,0,0,49.85,81Z"/><path class="cls-2" d="M94.85,82A1.2,1.2,0,0,1,96,83.25v4.5A1.2,1.2,0,0,1,94.85,89H58.15A1.2,1.2,0,0,1,57,87.75v-4.5A1.2,1.2,0,0,1,58.15,82h36.7m0-1H58.15A2.2,2.2,0,0,0,56,83.25v4.5A2.2,2.2,0,0,0,58.15,90h36.7A2.2,2.2,0,0,0,97,87.75v-4.5A2.2,2.2,0,0,0,94.85,81Z"/></g></g></svg>