<svg xmlns="http://www.w3.org/2000/svg" viewBox="0 0 108 144"><defs><style>.cls-1,.cls-8{fill:#fff;}.cls-1,.cls-10,.cls-4,.cls-9{fill-rule:evenodd;}.cls-10,.cls-2{fill:#c6cbd5;}.cls-3,.cls-9{fill:#028fd7;}.cls-4{fill:#e6eaed;}.cls-5{fill:#ff6259;}.cls-6{fill:#ffbd2d;}.cls-7{fill:#2bca41;}.cls-11{fill:none;stroke:#028fd7;stroke-miterlimit:10;}</style></defs><title>Sales Page</title><g id="Layer_2" data-name="Layer 2"><g id="Sales_Page_With_Video_copy" data-name="Sales Page With Video copy"><path class="cls-1" d="M5.63,143.5A5.13,5.13,0,0,1,.5,138.38V15.5h107V138.38a5.13,5.13,0,0,1-5.12,5.13Z"/><path class="cls-2" d="M107,16V138.38a4.63,4.63,0,0,1-4.62,4.63H5.63A4.63,4.63,0,0,1,1,138.38V16H107m1-1H0V138.38A5.63,5.63,0,0,0,5.63,144h96.75a5.63,5.63,0,0,0,5.63-5.62V15Z"/><path class="cls-2" d="M94.85,106A1.2,1.2,0,0,1,96,107.25v6.5A1.2,1.2,0,0,1,94.85,115H13.15A1.2,1.2,0,0,1,12,113.75v-6.5A1.2,1.2,0,0,1,13.15,106h81.7m0-1H13.15A2.2,2.2,0,0,0,11,107.25v6.5A2.2,2.2,0,0,0,13.15,116h81.7A2.2,2.2,0,0,0,97,113.75v-6.5A2.2,2.2,0,0,0,94.85,105Z"/><path class="cls-2" d="M94.85,93A1.2,1.2,0,0,1,96,94.25v6.5A1.2,1.2,0,0,1,94.85,102H13.15A1.2,1.2,0,0,1,12,100.75v-6.5A1.2,1.2,0,0,1,13.15,93h81.7m0-1H13.15A2.2,2.2,0,0,0,11,94.25v6.5A2.2,2.2,0,0,0,13.15,103h81.7A2.2,2.2,0,0,0,97,100.75v-6.5A2.2,2.2,0,0,0,94.85,92Z"/><path class="cls-3" d="M94.85,28A1.09,1.09,0,0,1,96,29V60a1.09,1.09,0,0,1-1.15,1H13.15A1.09,1.09,0,0,1,12,60V29a1.09,1.09,0,0,1,1.15-1h81.7m0-1H13.15A2.09,2.09,0,0,0,11,29V60a2.09,2.09,0,0,0,2.15,2h81.7A2.09,2.09,0,0,0,97,60V29a2.09,2.09,0,0,0-2.15-2Z"/><path class="cls-4" d="M.5,15.5V5.63A5.13,5.13,0,0,1,5.63.5h96.75a5.13,5.13,0,0,1,5.13,5.13V15.5Z"/><path class="cls-2" d="M102.38,1A4.63,4.63,0,0,1,107,5.63V15H1V5.63A4.63,4.63,0,0,1,5.63,1h96.75m0-1H5.63A5.63,5.63,0,0,0,0,5.63V16H108V5.63A5.63,5.63,0,0,0,102.38,0Z"/><circle class="cls-5" cx="11" cy="8" r="2"/><circle class="cls-6" cx="17" cy="8" r="2"/><circle class="cls-7" cx="23" cy="8" r="2"/><rect class="cls-8" x="34.5" y="4.5" width="64" height="7" rx="1.22" ry="1.22"/><path class="cls-2" d="M97.28,5a.73.73,0,0,1,.72.72v4.55a.73.73,0,0,1-.72.72H35.72a.73.73,0,0,1-.72-.72V5.72A.73.73,0,0,1,35.72,5H97.28m0-1H35.72A1.72,1.72,0,0,0,34,5.72v4.55A1.72,1.72,0,0,0,35.72,12H97.28A1.72,1.72,0,0,0,99,10.28V5.72A1.72,1.72,0,0,0,97.28,4Z"/><path class="cls-9" d="M13.15,118h81.7A2.08,2.08,0,0,1,97,120v10a2.08,2.08,0,0,1-2.15,2H13.15A2.08,2.08,0,0,1,11,130V120A2.08,2.08,0,0,1,13.15,118Z"/><path class="cls-8" d="M26.7,127.86A2.48,2.48,0,0,0,29,126.43l-1.18-.56a1.28,1.28,0,0,1-1.14.78,1.55,1.55,0,0,1,0-3.09,1.28,1.28,0,0,1,1.14.78l1.18-.56a2.46,2.46,0,0,0-2.33-1.43,2.76,2.76,0,1,0,0,5.52Z"/><path class="cls-8" d="M34.67,127.77l-2-5.34H30.92l-2,5.34h1.56l.26-.77h2.1l.26.77Zm-2.2-2H31.1l.68-2Z"/><path class="cls-8" d="M38.5,127.77v-1.2H36.35v-4.14H35v5.34Z"/><path class="cls-8" d="M42.65,127.77v-1.2H40.5v-4.14H39.13v5.34Z"/><path class="cls-8" d="M47.82,127.77v-4.14h1.49v-1.2H44.94v1.2h1.5v4.14Z"/><path class="cls-8" d="M52.29,127.86a2.76,2.76,0,1,0-2.86-2.76A2.71,2.71,0,0,0,52.29,127.86Zm0-1.22a1.55,1.55,0,1,1,1.45-1.54A1.44,1.44,0,0,1,52.29,126.65Z"/><path class="cls-8" d="M62.91,127.77l-2-5.34H59.16l-2,5.34h1.56L59,127h2.1l.26.77Zm-2.2-2H59.34l.68-2Z"/><path class="cls-8" d="M65.58,127.86a2.48,2.48,0,0,0,2.33-1.43l-1.18-.56a1.28,1.28,0,0,1-1.14.78,1.55,1.55,0,0,1,0-3.09,1.28,1.28,0,0,1,1.14.78l1.18-.56a2.46,2.46,0,0,0-2.33-1.43,2.76,2.76,0,1,0,0,5.52Z"/><path class="cls-8" d="M71,127.77v-4.14h1.49v-1.2H68.11v1.2h1.5v4.14Z"/><path class="cls-8" d="M74.42,127.77v-5.34H73v5.34Z"/><path class="cls-8" d="M77.89,127.86A2.76,2.76,0,1,0,75,125.1,2.71,2.71,0,0,0,77.89,127.86Zm0-1.22a1.55,1.55,0,1,1,1.45-1.54A1.44,1.44,0,0,1,77.89,126.65Z"/><path class="cls-8" d="M86.31,127.77v-5.34H84.93v2.94l-2.16-2.94H81.35v5.34h1.38v-3.09L85,127.77Z"/><path class="cls-10" d="M11,79H97v2H11Z"/><path class="cls-10" d="M42,84H66v2H42Z"/><path class="cls-10" d="M27,74H81v2H27Z"/><path class="cls-9" d="M11,69H97v2H11Z"/><polygon class="cls-11" points="41 52.5 48.43 41.99 52.14 46.41 57.71 39.55 67 52.5 41 52.5"/><circle class="cls-11" cx="51.34" cy="37.87" r="1.83"/></g></g></svg>