<svg xmlns="http://www.w3.org/2000/svg" viewBox="0 0 108 144"><defs><style>.cls-1,.cls-10,.cls-7{fill:#fff;}.cls-1,.cls-3,.cls-8,.cls-9{fill-rule:evenodd;}.cls-2,.cls-9{fill:#c6cbd5;}.cls-3{fill:#e6eaed;}.cls-4{fill:#ff6259;}.cls-5{fill:#ffbd2d;}.cls-6{fill:#2bca41;}.cls-18,.cls-8{fill:#028fd7;}.cls-10{font-size:8px;font-family:ProximaNova-Extrabld, Proxima Nova;font-weight:700;}.cls-11{letter-spacing:0.01em;}.cls-12{letter-spacing:0.02em;}.cls-13{letter-spacing:0em;}.cls-14{letter-spacing:0em;}.cls-15{letter-spacing:-0.01em;}.cls-16{letter-spacing:0.02em;}.cls-17{letter-spacing:0.02em;}</style></defs><title>Survey</title><g id="Layer_2" data-name="Layer 2"><g id="Survey"><path class="cls-1" d="M5.63,143.5A5.13,5.13,0,0,1,.5,138.38V15.5h107V138.38a5.13,5.13,0,0,1-5.12,5.13Z"/><path class="cls-2" d="M107,16V138.38a4.63,4.63,0,0,1-4.62,4.63H5.63A4.63,4.63,0,0,1,1,138.38V16H107m1-1H0V138.38A5.62,5.62,0,0,0,5.63,144h96.75a5.62,5.62,0,0,0,5.63-5.62V15Z"/><path class="cls-3" d="M.5,15.5V5.63A5.13,5.13,0,0,1,5.63.5h96.75a5.13,5.13,0,0,1,5.13,5.13V15.5Z"/><path class="cls-2" d="M102.38,1A4.63,4.63,0,0,1,107,5.63V15H1V5.63A4.63,4.63,0,0,1,5.63,1h96.75m0-1H5.63A5.62,5.62,0,0,0,0,5.63V16H108V5.63A5.62,5.62,0,0,0,102.38,0Z"/><circle class="cls-4" cx="11" cy="8" r="2"/><circle class="cls-5" cx="17" cy="8" r="2"/><circle class="cls-6" cx="23" cy="8" r="2"/><rect class="cls-7" x="34.5" y="4.5" width="64" height="7" rx="1.22" ry="1.22"/><path class="cls-2" d="M97.28,5a.73.73,0,0,1,.72.72v4.55a.73.73,0,0,1-.72.72H35.72a.73.73,0,0,1-.72-.72V5.72A.73.73,0,0,1,35.72,5H97.28m0-1H35.72A1.72,1.72,0,0,0,34,5.72v4.55A1.72,1.72,0,0,0,35.72,12H97.28A1.72,1.72,0,0,0,99,10.28V5.72A1.72,1.72,0,0,0,97.28,4Z"/><path class="cls-8" d="M13.15,110h81.7A2.08,2.08,0,0,1,97,112v10a2.08,2.08,0,0,1-2.15,2H13.15A2.08,2.08,0,0,1,11,122V112A2.08,2.08,0,0,1,13.15,110Z"/><path class="cls-9" d="M34,61H97v2H34Z"/><path class="cls-9" d="M34,71H85.19v2H34Z"/><path class="cls-9" d="M34,81H93.06v2H34Z"/><path class="cls-9" d="M34,91H79.28v2H34Z"/><path class="cls-9" d="M34,101H97v2H34Z"/><text class="cls-10" transform="translate(21.65 120)"><tspan class="cls-11">C</tspan><tspan class="cls-12" x="5.62" y="0">A</tspan><tspan class="cls-13" x="11.33" y="0">L</tspan><tspan x="15.53" y="0">L </tspan><tspan class="cls-14" x="21.81" y="0">T</tspan><tspan x="26.49" y="0">O </tspan><tspan class="cls-15" x="34.67" y="0">A</tspan><tspan class="cls-16" x="40.17" y="0">C</tspan><tspan x="45.86" y="0">T</tspan><tspan class="cls-17" x="50.57" y="0">IO</tspan><tspan x="59.3" y="0">N</tspan></text><rect class="cls-7" x="11.5" y="58.5" width="7" height="7" rx="1.26" ry="1.26"/><path class="cls-2" d="M17.24,59a.76.76,0,0,1,.76.76v4.47a.76.76,0,0,1-.76.76H12.76a.76.76,0,0,1-.76-.76V59.76a.76.76,0,0,1,.76-.76h4.47m0-1H12.76A1.77,1.77,0,0,0,11,59.76v4.47A1.77,1.77,0,0,0,12.76,66h4.47A1.77,1.77,0,0,0,19,64.24V59.76A1.77,1.77,0,0,0,17.24,58Z"/><rect class="cls-7" x="11.5" y="68.5" width="7" height="7" rx="1.26" ry="1.26"/><path class="cls-2" d="M17.24,69a.76.76,0,0,1,.76.76v4.47a.76.76,0,0,1-.76.76H12.76a.76.76,0,0,1-.76-.76V69.76a.76.76,0,0,1,.76-.76h4.47m0-1H12.76A1.77,1.77,0,0,0,11,69.76v4.47A1.77,1.77,0,0,0,12.76,76h4.47A1.77,1.77,0,0,0,19,74.24V69.76A1.77,1.77,0,0,0,17.24,68Z"/><rect class="cls-7" x="11.5" y="78.5" width="7" height="7" rx="1.26" ry="1.26"/><path class="cls-2" d="M17.24,79a.76.76,0,0,1,.76.76v4.47a.76.76,0,0,1-.76.76H12.76a.76.76,0,0,1-.76-.76V79.76a.76.76,0,0,1,.76-.76h4.47m0-1H12.76A1.77,1.77,0,0,0,11,79.76v4.47A1.77,1.77,0,0,0,12.76,86h4.47A1.77,1.77,0,0,0,19,84.24V79.76A1.77,1.77,0,0,0,17.24,78Z"/><rect class="cls-7" x="11.5" y="88.5" width="7" height="7" rx="1.26" ry="1.26"/><path class="cls-2" d="M17.24,89a.76.76,0,0,1,.76.76v4.47a.76.76,0,0,1-.76.76H12.76a.76.76,0,0,1-.76-.76V89.76a.76.76,0,0,1,.76-.76h4.47m0-1H12.76A1.77,1.77,0,0,0,11,89.76v4.47A1.77,1.77,0,0,0,12.76,96h4.47A1.77,1.77,0,0,0,19,94.24V89.76A1.77,1.77,0,0,0,17.24,88Z"/><rect class="cls-7" x="11.5" y="98.5" width="7" height="7" rx="1.26" ry="1.26"/><path class="cls-2" d="M17.24,99a.76.76,0,0,1,.76.76v4.47a.76.76,0,0,1-.76.76H12.76a.76.76,0,0,1-.76-.76V99.76a.76.76,0,0,1,.76-.76h4.47m0-1H12.76A1.77,1.77,0,0,0,11,99.76v4.47A1.77,1.77,0,0,0,12.76,106h4.47A1.77,1.77,0,0,0,19,104.24V99.76A1.77,1.77,0,0,0,17.24,98Z"/><rect class="cls-18" x="13" y="60" width="4" height="4"/><rect class="cls-18" x="13" y="80" width="4" height="4"/><rect class="cls-7" x="21.5" y="58.5" width="7" height="7" rx="1.26" ry="1.26"/><path class="cls-2" d="M27.24,59a.76.76,0,0,1,.76.76v4.47a.76.76,0,0,1-.76.76H22.76a.76.76,0,0,1-.76-.76V59.76a.76.76,0,0,1,.76-.76h4.47m0-1H22.76A1.77,1.77,0,0,0,21,59.76v4.47A1.77,1.77,0,0,0,22.76,66h4.47A1.77,1.77,0,0,0,29,64.24V59.76A1.77,1.77,0,0,0,27.24,58Z"/><rect class="cls-7" x="21.5" y="68.5" width="7" height="7" rx="1.26" ry="1.26"/><path class="cls-2" d="M27.24,69a.76.76,0,0,1,.76.76v4.47a.76.76,0,0,1-.76.76H22.76a.76.76,0,0,1-.76-.76V69.76a.76.76,0,0,1,.76-.76h4.47m0-1H22.76A1.77,1.77,0,0,0,21,69.76v4.47A1.77,1.77,0,0,0,22.76,76h4.47A1.77,1.77,0,0,0,29,74.24V69.76A1.77,1.77,0,0,0,27.24,68Z"/><rect class="cls-7" x="21.5" y="78.5" width="7" height="7" rx="1.26" ry="1.26"/><path class="cls-2" d="M27.24,79a.76.76,0,0,1,.76.76v4.47a.76.76,0,0,1-.76.76H22.76a.76.76,0,0,1-.76-.76V79.76a.76.76,0,0,1,.76-.76h4.47m0-1H22.76A1.77,1.77,0,0,0,21,79.76v4.47A1.77,1.77,0,0,0,22.76,86h4.47A1.77,1.77,0,0,0,29,84.24V79.76A1.77,1.77,0,0,0,27.24,78Z"/><rect class="cls-7" x="21.5" y="88.5" width="7" height="7" rx="1.26" ry="1.26"/><path class="cls-2" d="M27.24,89a.76.76,0,0,1,.76.76v4.47a.76.76,0,0,1-.76.76H22.76a.76.76,0,0,1-.76-.76V89.76a.76.76,0,0,1,.76-.76h4.47m0-1H22.76A1.77,1.77,0,0,0,21,89.76v4.47A1.77,1.77,0,0,0,22.76,96h4.47A1.77,1.77,0,0,0,29,94.24V89.76A1.77,1.77,0,0,0,27.24,88Z"/><rect class="cls-7" x="21.5" y="98.5" width="7" height="7" rx="1.26" ry="1.26"/><path class="cls-2" d="M27.24,99a.76.76,0,0,1,.76.76v4.47a.76.76,0,0,1-.76.76H22.76a.76.76,0,0,1-.76-.76V99.76a.76.76,0,0,1,.76-.76h4.47m0-1H22.76A1.77,1.77,0,0,0,21,99.76v4.47A1.77,1.77,0,0,0,22.76,106h4.47A1.77,1.77,0,0,0,29,104.24V99.76A1.77,1.77,0,0,0,27.24,98Z"/><rect class="cls-18" x="23" y="70" width="4" height="4"/><rect class="cls-18" x="13" y="90" width="4" height="4"/><rect class="cls-18" x="23" y="100" width="4" height="4"/><path class="cls-9" d="M25,43H83v2H25Z"/><path class="cls-9" d="M41,48H67v2H41Z"/><path class="cls-9" d="M11,38H97v2H11Z"/><path class="cls-8" d="M11,33H97v2H11Z"/></g></g></svg>