<svg xmlns="http://www.w3.org/2000/svg" viewBox="0 0 108 144"><defs><style>.cls-1,.cls-8{fill:#fff;}.cls-1,.cls-10,.cls-4,.cls-9{fill-rule:evenodd;}.cls-2,.cls-9{fill:#c6cbd5;}.cls-10,.cls-3{fill:#028fd7;}.cls-4{fill:#e6eaed;}.cls-5{fill:#ff6259;}.cls-6{fill:#ffbd2d;}.cls-7{fill:#2bca41;}.cls-11,.cls-12{fill:none;stroke:#028fd7;}.cls-11{stroke-miterlimit:10;}.cls-12{stroke-linejoin:round;}</style></defs><title>Webinar Live</title><g id="Layer_2" data-name="Layer 2"><g id="Webinar_Broadcast" data-name="Webinar Broadcast"><path class="cls-1" d="M5.63,143.5A5.13,5.13,0,0,1,.5,138.38V15.5h107V138.38a5.13,5.13,0,0,1-5.12,5.13Z"/><path class="cls-2" d="M107,16V138.38a4.63,4.63,0,0,1-4.62,4.63H5.63A4.63,4.63,0,0,1,1,138.38V16H107m1-1H0V138.38A5.62,5.62,0,0,0,5.63,144h96.75a5.62,5.62,0,0,0,5.63-5.62V15Z"/><path class="cls-3" d="M94.85,26A1.15,1.15,0,0,1,96,27.15V59.87A1.14,1.14,0,0,1,94.87,61H13.15A1.15,1.15,0,0,1,12,59.85V27.13A1.14,1.14,0,0,1,13.13,26H94.85m0-1H13.13A2.13,2.13,0,0,0,11,27.13V59.85A2.16,2.16,0,0,0,13.15,62H94.87A2.14,2.14,0,0,0,97,59.87V27.15A2.16,2.16,0,0,0,94.85,25Z"/><path class="cls-4" d="M.5,15.5V5.63A5.13,5.13,0,0,1,5.63.5h96.75a5.13,5.13,0,0,1,5.13,5.13V15.5Z"/><path class="cls-2" d="M102.38,1A4.63,4.63,0,0,1,107,5.63V15H1V5.63A4.63,4.63,0,0,1,5.63,1h96.75m0-1H5.63A5.63,5.63,0,0,0,0,5.63V16H108V5.63A5.63,5.63,0,0,0,102.38,0Z"/><circle class="cls-5" cx="11" cy="8" r="2"/><circle class="cls-6" cx="17" cy="8" r="2"/><circle class="cls-7" cx="23" cy="8" r="2"/><rect class="cls-8" x="34.5" y="4.5" width="64" height="7" rx="1.22" ry="1.22"/><path class="cls-2" d="M97.28,5a.73.73,0,0,1,.72.72v4.55a.73.73,0,0,1-.72.72H35.72a.73.73,0,0,1-.72-.72V5.72A.73.73,0,0,1,35.72,5H97.28m0-1H35.72A1.72,1.72,0,0,0,34,5.72v4.55A1.72,1.72,0,0,0,35.72,12H97.28A1.72,1.72,0,0,0,99,10.28V5.72A1.72,1.72,0,0,0,97.28,4Z"/><path class="cls-9" d="M20,79H88v2H20Z"/><path class="cls-9" d="M11,74H97v2H11Z"/><path class="cls-10" d="M11,69H97v2H11Z"/><polyline class="cls-11" points="52.54 52.45 69.5 52.45 69.5 34.19 49.28 34.19"/><path class="cls-11" d="M48.09,53.84h.5a1.44,1.44,0,0,0,1.34-1.66l-.86-7.57A2.8,2.8,0,0,0,46.38,42H43.05a2.8,2.8,0,0,0-2.68,2.59l-.86,7.57a1.44,1.44,0,0,0,1.34,1.66h7.24Z"/><path class="cls-3" d="M44.72,35.19a1.61,1.61,0,1,1-1.61,1.61,1.61,1.61,0,0,1,1.61-1.61m0-1a2.61,2.61,0,1,0,2.61,2.61,2.61,2.61,0,0,0-2.61-2.61Z"/><polyline class="cls-11" points="51.89 48.54 55.15 43.32 57.76 45.93 60.37 42.02 61.67 43.32 65.59 38.1"/><path class="cls-12" d="M95.06,112.52,93,112l-.21-.85A6.45,6.45,0,0,0,95,110.5s-1-.75-1-3.5-.83-3-1.25-3H92.5a1.39,1.39,0,0,0-1.25-.5A3.18,3.18,0,0,0,88.5,107c0,2.75-1,3.5-1,3.5a6.32,6.32,0,0,0,2.21.65l-.21.85-2.06.52A2.56,2.56,0,0,0,85.5,115H97A2.56,2.56,0,0,0,95.06,112.52Z"/><path class="cls-9" d="M28,126H91v2H28Z"/><path class="cls-9" d="M28,122H82v2H28Z"/><path class="cls-9" d="M16.75,110H80v2H16.75Z"/><path class="cls-9" d="M11,106H80v2H11Z"/><g id="_Group_" data-name="&lt;Group&gt;"><path id="_Path_" data-name="&lt;Path&gt;" class="cls-12" d="M11,131h0a2.56,2.56,0,0,1,2-2.46l2.15-.51.25-.93a3.08,3.08,0,0,1-1.06-2h0a.51.51,0,0,1-.52-.43l-.13-1a.5.5,0,0,1,.51-.55l-.06-1.24-.26-.25a.88.88,0,0,1,0-1.24,2,2,0,0,1,1.76-.74,3.27,3.27,0,0,1,1.89.49c2.1,0,2.35.85,2.35,1.73,0,.31-.12,1.24-.12,1.24h.05a.5.5,0,0,1,.52.56l-.13,1a.51.51,0,0,1-.52.43h-.08a3.09,3.09,0,0,1-1,2l.26,1,2.15.51A2.56,2.56,0,0,1,23,131Z"/></g><g id="_Group_2" data-name="&lt;Group&gt;"><path id="_Path_2" data-name="&lt;Path&gt;" class="cls-12" d="M11,100h0a2.56,2.56,0,0,1,2-2.46L15.17,97l.25-.93a3.08,3.08,0,0,1-1.06-2h0a.51.51,0,0,1-.52-.43l-.13-1a.5.5,0,0,1,.51-.55l-.06-1.24-.26-.25a.88.88,0,0,1,0-1.24,2,2,0,0,1,1.76-.74,3.27,3.27,0,0,1,1.89.49c2.1,0,2.35.85,2.35,1.73,0,.31-.12,1.24-.12,1.24h.05a.5.5,0,0,1,.52.56l-.13,1a.51.51,0,0,1-.52.43h-.08a3.09,3.09,0,0,1-1,2l.26,1,2.15.51A2.56,2.56,0,0,1,23,100Z"/></g><path class="cls-9" d="M28,95H97v2H28Z"/><path class="cls-9" d="M28,91H90v2H28Z"/></g></g></svg>