<svg width="64" height="64" viewBox="0 0 64 64" fill="none" xmlns="http://www.w3.org/2000/svg">
<circle cx="32" cy="32" r="32" fill="#0CB866"/>
<path fill-rule="evenodd" clip-rule="evenodd" d="M33.5 22.3016C35.1271 21.6936 36.2857 20.1249 36.2857 18.2857C36.2857 15.9188 34.3669 14 32 14C29.6331 14 27.7143 15.9188 27.7143 18.2857C27.7143 20.1249 28.8729 21.6936 30.5 22.3016V28.189C29.5807 28.4256 28.7466 28.8747 28.0532 29.4807L23.3213 26.957C23.3915 26.6493 23.4286 26.3289 23.4286 25.9999C23.4286 23.633 21.5098 21.7142 19.1429 21.7142C16.7759 21.7142 14.8571 23.633 14.8571 25.9999C14.8571 28.3669 16.7759 30.2857 19.1429 30.2857C20.0827 30.2857 20.9519 29.9831 21.6584 29.4701L26.3511 31.9729C26.1238 32.6061 26 33.2886 26 34C26 34.2829 26.0196 34.5613 26.0575 34.8337L20.6048 37.8239C19.9363 37.3929 19.1402 37.1428 18.2857 37.1428C15.9188 37.1428 14 39.0616 14 41.4285C14 43.7955 15.9188 45.7143 18.2857 45.7143C20.6526 45.7143 22.5714 43.7955 22.5714 41.4285C22.5714 41.022 22.5148 40.6286 22.409 40.256L27.215 37.6204C28.3105 39.0661 30.0462 40 32 40C33.9538 40 35.6895 39.0661 36.785 37.6204L41.591 40.256C41.4852 40.6286 41.4286 41.022 41.4286 41.4285C41.4286 43.7955 43.3474 45.7143 45.7143 45.7143C48.0812 45.7143 50 43.7955 50 41.4285C50 39.0616 48.0812 37.1428 45.7143 37.1428C44.8598 37.1428 44.0637 37.3929 43.3952 37.8239L37.9425 34.8337C37.9804 34.5612 38 34.2829 38 34C38 33.2654 37.868 32.5615 37.6263 31.911L42.2301 29.3864C42.9557 29.95 43.8672 30.2857 44.8571 30.2857C47.2241 30.2857 49.1429 28.3669 49.1429 25.9999C49.1429 23.633 47.2241 21.7142 44.8571 21.7142C42.4902 21.7142 40.5714 23.633 40.5714 25.9999C40.5714 26.2841 40.5991 26.5617 40.6518 26.8304L35.8971 29.4378C35.2137 28.8535 34.3975 28.42 33.5 28.189V22.3016ZM32 38C34.2091 38 36 36.2091 36 34C36 31.7909 34.2091 30 32 30C29.7909 30 28 31.7909 28 34C28 36.2091 29.7909 38 32 38Z" fill="white"/>
</svg>
