<svg width="64" height="64" viewBox="0 0 64 64" fill="none" xmlns="http://www.w3.org/2000/svg">
<circle cx="32" cy="32" r="32" fill="#0955AF"/>
<path d="M33 14C32.1716 14 31.5 14.6716 31.5 15.5V18.5H16.5C15.6716 18.5 15 19.1716 15 20V29C15 29.8284 15.6716 30.5 16.5 30.5H31.5V35L18.8028 35C18.3012 35 17.8329 35.2507 17.5547 35.6679L15.5547 38.6679C15.2188 39.1718 15.2188 39.8282 15.5547 40.332L17.5547 43.332C17.8329 43.7493 18.3012 44 18.8028 44L31.5 44V50H34.5V44H43.5C44.3284 44 45 43.3284 45 42.5V36.5C45 35.6716 44.3284 35 43.5 35L34.5 35V30.5H45.75C46.2221 30.5 46.6667 30.2777 46.95 29.9L50.325 25.4C50.725 24.8667 50.725 24.1333 50.325 23.6L46.95 19.1C46.6667 18.7223 46.2221 18.5 45.75 18.5H34.5V15.5C34.5 14.6716 33.8284 14 33 14Z" fill="white"/>
</svg>
