<svg width="64" height="64" viewBox="0 0 64 64" fill="none" xmlns="http://www.w3.org/2000/svg">
<circle cx="32" cy="32" r="32" fill="#1E62F2"/>
<path fill-rule="evenodd" clip-rule="evenodd" d="M17.8333 17C16.2685 17 15 18.2685 15 19.8333V40.1667C15 41.7315 16.2685 43 17.8333 43H40.4207C41.0508 43 41.6629 43.21 42.1602 43.5968L46.7136 47.1383C47.6441 47.8621 49 47.199 49 46.0201V43V39V19.8333C49 18.2685 47.7315 17 46.1667 17H17.8333Z" fill="white"/>
<path fill-rule="evenodd" clip-rule="evenodd" d="M32 20C31.4477 20 31 20.4477 31 21V24H26C24.8954 24 24 24.8954 24 26V27C22.8954 27 22 27.8954 22 29V31C22 32.1046 22.8954 33 24 33L24 37C24 38.1046 24.8954 39 26 39H38C39.1046 39 40 38.1046 40 37V33C41.1046 33 42 32.1046 42 31V29C42 27.8954 41.1046 27 40 27V26C40 24.8954 39.1046 24 38 24H33V21C33 20.4477 32.5523 20 32 20ZM30 35.5C30 34.6716 30.6716 34 31.5 34H32.5C33.3284 34 34 34.6716 34 35.5C34 36.3284 33.3284 37 32.5 37H31.5C30.6716 37 30 36.3284 30 35.5ZM28 28C26.8954 28 26 28.8954 26 30C26 31.1046 26.8954 32 28 32H36C37.1046 32 38 31.1046 38 30C38 28.8954 37.1046 28 36 28H28Z" fill="#1E62F2"/>
</svg>
