<svg width="64" height="64" viewBox="0 0 64 64" fill="none" xmlns="http://www.w3.org/2000/svg">
<circle cx="32" cy="32" r="32" fill="#33AFF5"/>
<path fill-rule="evenodd" clip-rule="evenodd" d="M15 19.8333C15 18.2685 16.2685 17 17.8333 17H46.1667C47.7315 17 49 18.2685 49 19.8333V43.2791C49 44.7818 47.7818 46 46.2791 46C45.3046 46 44.4045 46.5211 43.9194 47.3663L42.4354 49.9513C41.9028 50.879 40.5735 50.9044 40.0059 49.9976L38.3362 47.3301C37.8183 46.5026 36.9108 46 35.9346 46H17.8333C16.2685 46 15 44.7315 15 43.1667V19.8333ZM40.5 34C42.0648 34 43.3333 32.7315 43.3333 31.1667C43.3333 29.6019 42.0648 28.3333 40.5 28.3333C38.9352 28.3333 37.6667 29.6019 37.6667 31.1667C37.6667 32.7315 38.9352 34 40.5 34ZM34.8333 31.1667C34.8333 32.7315 33.5648 34 32 34C30.4352 34 29.1667 32.7315 29.1667 31.1667C29.1667 29.6019 30.4352 28.3333 32 28.3333C33.5648 28.3333 34.8333 29.6019 34.8333 31.1667ZM23.5 34C25.0648 34 26.3333 32.7315 26.3333 31.1667C26.3333 29.6019 25.0648 28.3333 23.5 28.3333C21.9352 28.3333 20.6667 29.6019 20.6667 31.1667C20.6667 32.7315 21.9352 34 23.5 34Z" fill="white"/>
</svg>
