<svg width="64" height="64" viewBox="0 0 64 64" fill="none" xmlns="http://www.w3.org/2000/svg">
<circle cx="32" cy="32" r="32" fill="#0076FB"/>
<path d="M50 32.11C50 22.1081 41.9411 14 32 14C22.0589 14 14 22.1081 14 32.11C14 41.1491 20.5823 48.6414 29.1875 50V37.3449H24.6172V32.11H29.1875V28.1201C29.1875 23.5813 31.8748 21.0742 35.9864 21.0742C37.9558 21.0742 40.0156 21.4279 40.0156 21.4279V25.8847H37.7459C35.51 25.8847 34.8125 27.2808 34.8125 28.713V32.11H39.8047L39.0066 37.3449H34.8125V50C43.4177 48.6414 50 41.1491 50 32.11Z" fill="white"/>
</svg>
