<svg width="67" height="67" viewBox="0 0 67 67" fill="none" xmlns="http://www.w3.org/2000/svg">
<circle cx="32" cy="32" r="32" fill="#0076FB"/>
<path d="M50 32.11C50 22.1081 41.9411 14 32 14C22.0589 14 14 22.1081 14 32.11C14 41.1491 20.5823 48.6414 29.1875 50V37.3449H24.6172V32.11H29.1875V28.1201C29.1875 23.5813 31.8748 21.0742 35.9864 21.0742C37.9558 21.0742 40.0156 21.4279 40.0156 21.4279V25.8847H37.7459C35.51 25.8847 34.8125 27.2808 34.8125 28.713V32.11H39.8047L39.0066 37.3449H34.8125V50C43.4177 48.6414 50 41.1491 50 32.11Z" fill="white"/>
<circle cx="50" cy="50" r="15.5" fill="#0056B8" stroke="white" stroke-width="3"/>
<path fill-rule="evenodd" clip-rule="evenodd" d="M56.7432 43.5868C55.9625 42.8061 54.6969 42.8057 53.9157 43.5859L52.0354 45.4638L55.5464 48.9747L57.4218 47.0769C58.1949 46.2945 58.1911 45.0346 57.4134 44.2569L56.7432 43.5868ZM54.1421 50.3959L50.6218 46.8756L43.5867 53.9018C43.1987 54.2893 42.9869 54.8191 43.0007 55.3673L43.0567 57.592C43.0636 57.8632 43.2853 58.0794 43.5566 58.0794H45.7143C46.2489 58.0794 46.7612 57.8654 47.1369 57.4852L54.1421 50.3959Z" fill="white"/>
</svg>
