<svg width="64" height="64" viewBox="0 0 64 64" fill="none" xmlns="http://www.w3.org/2000/svg">
<circle cx="32" cy="32" r="32" fill="#E6402F"/>
<path fill-rule="evenodd" clip-rule="evenodd" d="M45.2648 44H18.7352C16.7073 44 15 42.3933 15 40.354V21.646C15 19.6665 16.6461 18 18.7352 18H45.2648C47.2927 18 49 19.6067 49 21.646V40.354C49 42.3766 47.3369 44 45.2648 44ZM43.9905 20.3366C44.3115 20.1036 44.7127 20 45.0871 20C45.4052 20 45.7155 20.0757 45.9926 20.227C46.2397 20.355 46.4621 20.5393 46.6384 20.7767C46.901 21.1194 47.0174 21.5234 46.9979 21.9202C46.9993 21.9482 47 21.9769 47 22.0064V40.2336C47 41.2064 46.1948 42 45.1818 42H43.3636V25.3148L40.1969 27.5405L31.9549 33.3593L20.6364 25.3854V42H18.8182C17.8052 42 17 41.2064 17 40.208V22.0576C17 22.0226 17.001 21.9886 17.0029 21.9556C16.9809 21.5724 17.0826 21.1849 17.3249 20.8544C17.6993 20.3625 18.2877 20.1036 18.8761 20.1036C19.2773 20.1036 19.6785 20.2071 19.9995 20.4401L31.9549 28.8544L43.9905 20.3366Z" fill="white"/>
</svg>
