<svg width="64" height="64" viewBox="0 0 64 64" fill="none" xmlns="http://www.w3.org/2000/svg">
<circle cx="32" cy="32" r="32" fill="#4285F4"/>
<path d="M45.999 26.4954C46.0277 24.2117 45.4509 21.9342 44.2081 19.8296C42.2164 16.4568 38.7302 14.0185 34.7776 13.26C33.8736 13.086 32.9506 13 32.0286 13C28.0824 13 24.2605 14.6409 21.6198 17.4671C18.875 20.4039 17.4803 24.5925 18.1782 28.513C18.5383 30.5387 19.3965 32.4601 20.48 34.2197C22.0415 36.7572 24.0587 39 25.9176 41.3431C27.7765 43.6861 29.5111 46.192 30.3779 49.0212C30.5414 49.5556 30.6848 50.1206 31.0598 50.5444C31.6568 51.219 32.5958 51.1197 33.0982 50.4103C33.384 50.008 33.5104 49.5228 33.6559 49.056C34.6172 45.9729 36.5855 43.2808 38.6335 40.7371C40.6815 38.1934 42.8622 35.708 44.3568 32.8286C45.4073 30.8069 45.9724 28.6481 45.999 26.4954ZM32.07 32.0332C28.896 32.0332 26.3233 29.554 26.3233 26.4954C26.3233 23.4368 28.896 20.9576 32.07 20.9576C35.2439 20.9576 37.8166 23.4368 37.8166 26.4954C37.8166 29.554 35.2439 32.0332 32.07 32.0332Z" fill="white"/>
</svg>
