<svg width="64" height="64" viewBox="0 0 64 64" fill="none" xmlns="http://www.w3.org/2000/svg">
<circle cx="32" cy="32" r="32" fill="#4285F4"/>
<path d="M32.6966 34.8028V30.0213H48.7619C48.9189 30.8547 49 31.8404 49 32.9075C49 36.4949 48.0222 40.9309 44.871 44.0915C41.8058 47.2927 37.8896 49 32.7017 49C23.0858 49 15 41.1443 15 31.5C15 21.8557 23.0858 14 32.7017 14C38.0213 14 41.8109 16.0935 44.6582 18.8222L41.2941 22.1961C39.2524 20.2754 36.4862 18.7815 32.6966 18.7815C25.6747 18.7815 20.1828 24.4573 20.1828 31.5C20.1828 38.5427 25.6747 44.2185 32.6966 44.2185C37.2512 44.2185 39.8452 42.3841 41.5069 40.7175C42.8546 39.3659 43.7412 37.435 44.0907 34.7978L32.6966 34.8028Z" fill="white"/>
</svg>
