<svg width="64" height="64" viewBox="0 0 64 64" fill="none" xmlns="http://www.w3.org/2000/svg">
<circle cx="32" cy="32" r="32" fill="#18C1C1"/>
<path fill-rule="evenodd" clip-rule="evenodd" d="M29.875 27.875C33.708 27.875 36.8125 24.7705 36.8125 20.9375C36.8125 17.1045 33.708 14 29.875 14C26.042 14 22.9375 17.1045 22.9375 20.9375C22.9375 24.7705 26.042 27.875 29.875 27.875ZM29.875 31.3438C25.2442 31.3438 16 33.6678 16 38.2812V40.75C16 41.3023 16.4477 41.75 17 41.75H31.4562L39.65 33.5666C36.5868 32.0868 32.4934 31.3438 29.875 31.3438ZM43.2321 36.4572L42.1173 35.3424L35.7015 41.75L32.5372 44.9103C32.1492 45.2978 31.9374 45.8276 31.9512 46.3758L32.0372 49.7895C32.044 50.0607 32.2658 50.2769 32.5371 50.2769H35.8538C35.8872 50.2769 35.9205 50.2761 35.9538 50.2744C36.4519 50.2495 36.9242 50.0392 37.2764 49.6827L46.8098 40.0349L43.2321 36.4572ZM49.8064 30.4878C49.0257 29.7071 47.7601 29.7067 46.9789 30.4869L44.0019 33.4601L48.6817 38.1405L51.6469 35.1397C51.7435 35.0419 51.828 34.9367 51.9004 34.8258C52.4069 34.0499 52.319 33.0003 51.6385 32.3198L49.8064 30.4878Z" fill="white"/>
</svg>
