<svg width="67" height="67" viewBox="0 0 67 67" fill="none" xmlns="http://www.w3.org/2000/svg">
<circle cx="32" cy="32" r="32" fill="#F00075"/>
<path d="M32.0007 18.0627C36.5404 18.0627 37.0783 18.0799 38.87 18.1623C40.5276 18.238 41.4281 18.5142 42.0271 18.748C42.82 19.0561 43.3871 19.4253 43.9821 20.0203C44.5772 20.6153 44.9451 21.1811 45.2532 21.9753C45.4856 22.5743 45.7632 23.4748 45.8389 25.1323C45.9213 26.9252 45.9386 27.4631 45.9386 32.0013C45.9386 36.5395 45.9213 37.0787 45.8389 38.8704C45.7632 40.5279 45.487 41.4284 45.2532 42.0273C44.9451 42.8202 44.5758 43.3873 43.9821 43.9823C43.3871 44.5773 42.8213 44.9452 42.0271 45.2534C41.4281 45.4858 40.5276 45.7634 38.87 45.8391C37.077 45.9214 36.5404 45.9387 32.0007 45.9387C27.461 45.9387 26.923 45.9214 25.1313 45.8391C23.4738 45.7634 22.5733 45.4871 21.9743 45.2534C21.1813 44.9452 20.6142 44.576 20.0192 43.9823C19.4242 43.3873 19.0563 42.8216 18.7481 42.0273C18.5157 41.4284 18.2381 40.5279 18.1624 38.8704C18.08 37.0774 18.0628 36.5395 18.0628 32.0013C18.0628 27.4631 18.08 26.9239 18.1624 25.1323C18.2381 23.4748 18.5144 22.5743 18.7481 21.9753C19.0563 21.1824 19.4255 20.6153 20.0192 20.0203C20.6129 19.4253 21.18 19.0574 21.9743 18.748C22.5733 18.5155 23.4738 18.238 25.1313 18.1623C26.923 18.0799 27.461 18.0627 32.0007 18.0627ZM32.0007 15C27.3839 15 26.8048 15.0199 24.9919 15.1023C23.1816 15.1846 21.9464 15.4728 20.8639 15.8925C19.7456 16.3268 18.7973 16.9085 17.8529 17.8528C16.9086 18.7971 16.3268 19.7467 15.8925 20.865C15.4728 21.9461 15.1846 23.1813 15.1023 24.9915C15.0199 26.8044 15 27.3834 15 32C15 36.6166 15.0199 37.1956 15.1023 39.0085C15.1846 40.8174 15.4728 42.0539 15.8925 43.135C16.3268 44.2533 16.9086 45.2016 17.8529 46.1459C18.7986 47.0915 19.7456 47.6719 20.8639 48.1062C21.945 48.5259 23.1816 48.8141 24.9905 48.8964C26.8048 48.9801 27.3839 49 32.0007 49C36.6174 49 37.1965 48.9801 39.0095 48.8977C40.8184 48.8154 42.055 48.5272 43.1361 48.1075C44.2544 47.6732 45.2027 47.0915 46.1471 46.1472C47.0927 45.2016 47.6732 44.2546 48.1075 43.1363C48.5272 42.0552 48.8154 40.8188 48.8977 39.0098C48.9801 37.197 49 36.6179 49 32.0013C49 27.3848 48.9801 26.8057 48.8977 24.9928C48.8154 23.1839 48.5272 21.9474 48.1075 20.8663C47.6732 19.748 47.0914 18.7998 46.1471 17.8555C45.2027 16.9112 44.2544 16.3268 43.1361 15.8925C42.055 15.4728 40.8184 15.1846 39.0095 15.1023C37.1965 15.0199 36.6174 15 32.0007 15ZM32.0007 23.2702C27.1794 23.2702 23.2706 27.1789 23.2706 32C23.2706 36.8211 27.1794 40.7298 32.0007 40.7298C36.8219 40.7298 40.7308 36.8211 40.7308 32C40.7308 27.1789 36.8219 23.2702 32.0007 23.2702ZM32.0007 37.6671C28.8715 37.6671 26.3333 35.1304 26.3333 32C26.3333 28.8696 28.8702 26.3329 32.0007 26.3329C35.1312 26.3329 37.668 28.8696 37.668 32C37.668 35.1304 35.1298 37.6671 32.0007 37.6671ZM43.1162 22.9249C43.1162 24.0512 42.2024 24.9649 41.0761 24.9649C39.9498 24.9649 39.036 24.0512 39.036 22.9249C39.036 21.7987 39.9498 20.8849 41.0761 20.8849C42.2024 20.8849 43.1162 21.7987 43.1162 22.9249Z" fill="white"/>
<circle cx="50" cy="50" r="15.5" fill="#AF0055" stroke="white" stroke-width="3"/>
<mask id="path-5-inside-1" fill="white">
<path fill-rule="evenodd" clip-rule="evenodd" d="M50 59C54.9706 59 59 54.9706 59 50C59 45.0294 54.9706 41 50 41C45.0294 41 41 45.0294 41 50C41 54.9706 45.0294 59 50 59ZM50.7809 46.3753C50.5911 46.1381 50.3038 46 50 46C49.6962 46 49.4089 46.1381 49.2191 46.3753L45.2191 51.3753C44.8741 51.8066 44.944 52.4359 45.3753 52.7809C45.8066 53.1259 46.4359 53.056 46.7809 52.6247L50 48.6008L53.2191 52.6247C53.5641 53.056 54.1934 53.1259 54.6247 52.7809C55.056 52.4359 55.1259 51.8066 54.7809 51.3753L50.7809 46.3753Z"/>
</mask>
<path fill-rule="evenodd" clip-rule="evenodd" d="M50 59C54.9706 59 59 54.9706 59 50C59 45.0294 54.9706 41 50 41C45.0294 41 41 45.0294 41 50C41 54.9706 45.0294 59 50 59ZM50.7809 46.3753C50.5911 46.1381 50.3038 46 50 46C49.6962 46 49.4089 46.1381 49.2191 46.3753L45.2191 51.3753C44.8741 51.8066 44.944 52.4359 45.3753 52.7809C45.8066 53.1259 46.4359 53.056 46.7809 52.6247L50 48.6008L53.2191 52.6247C53.5641 53.056 54.1934 53.1259 54.6247 52.7809C55.056 52.4359 55.1259 51.8066 54.7809 51.3753L50.7809 46.3753Z" fill="white"/>
<path d="M50.7809 46.3753L49.2191 47.6247L49.2191 47.6247L50.7809 46.3753ZM49.2191 46.3753L50.7809 47.6247L50.7809 47.6247L49.2191 46.3753ZM45.2191 51.3753L43.6574 50.1259L43.6574 50.1259L45.2191 51.3753ZM45.3753 52.7809L46.6247 51.2191L46.6247 51.2191L45.3753 52.7809ZM46.7809 52.6247L45.2191 51.3753L45.2191 51.3753L46.7809 52.6247ZM50 48.6008L51.5617 47.3514L50 45.3992L48.4383 47.3514L50 48.6008ZM53.2191 52.6247L54.7809 51.3753L54.7809 51.3753L53.2191 52.6247ZM54.6247 52.7809L53.3753 51.2191L53.3753 51.2191L54.6247 52.7809ZM54.7809 51.3753L56.3426 50.1259L56.3426 50.1259L54.7809 51.3753ZM57 50C57 53.866 53.866 57 50 57V61C56.0751 61 61 56.0751 61 50H57ZM50 43C53.866 43 57 46.134 57 50H61C61 43.9249 56.0751 39 50 39V43ZM43 50C43 46.134 46.134 43 50 43V39C43.9249 39 39 43.9249 39 50H43ZM50 57C46.134 57 43 53.866 43 50H39C39 56.0751 43.9249 61 50 61V57ZM50 48C49.6962 48 49.4089 47.8619 49.2191 47.6247L52.3426 45.1259C51.7733 44.4143 50.9113 44 50 44V48ZM50.7809 47.6247C50.5911 47.8619 50.3038 48 50 48V44C49.0887 44 48.2267 44.4143 47.6574 45.1259L50.7809 47.6247ZM46.7809 52.6247L50.7809 47.6247L47.6574 45.1259L43.6574 50.1259L46.7809 52.6247ZM46.6247 51.2191C47.056 51.5641 47.1259 52.1934 46.7809 52.6247L43.6574 50.1259C42.6224 51.4197 42.8321 53.3076 44.1259 54.3426L46.6247 51.2191ZM45.2191 51.3753C45.5641 50.944 46.1934 50.8741 46.6247 51.2191L44.1259 54.3426C45.4197 55.3776 47.3076 55.1679 48.3426 53.8741L45.2191 51.3753ZM48.4383 47.3514L45.2191 51.3753L48.3426 53.8741L51.5617 49.8502L48.4383 47.3514ZM54.7809 51.3753L51.5617 47.3514L48.4383 49.8502L51.6574 53.8741L54.7809 51.3753ZM53.3753 51.2191C53.8066 50.8741 54.4359 50.944 54.7809 51.3753L51.6574 53.8741C52.6924 55.1679 54.5803 55.3776 55.8741 54.3426L53.3753 51.2191ZM53.2191 52.6247C52.8741 52.1934 52.944 51.5641 53.3753 51.2191L55.8741 54.3426C57.1679 53.3076 57.3776 51.4197 56.3426 50.1259L53.2191 52.6247ZM49.2191 47.6247L53.2191 52.6247L56.3426 50.1259L52.3426 45.1259L49.2191 47.6247Z" fill="white" mask="url(#path-5-inside-1)"/>
</svg>
