<svg width="64" height="64" viewBox="0 0 64 64" fill="none" xmlns="http://www.w3.org/2000/svg">
<circle cx="32" cy="32" r="32" fill="#2164F4"/>
<path fill-rule="evenodd" clip-rule="evenodd" d="M50 25.125V36C50 37.275 49.15 38.125 47.875 38.125H18.125C16.85 38.125 16 37.275 16 36V25.125C16 23.85 16.85 23 18.125 23H24V16.125C24 14.85 24.85 14 26.125 14H39.875C41.15 14 42 14.85 42 16.125V23H47.875C49.15 23 50 23.85 50 25.125ZM38.5 18H28V23H38.5V18ZM18 45.875V41H48V45.875C48 47.15 47.15 48 45.875 48H20C18.725 48 18 47.15 18 45.875Z" fill="white"/>
</svg>
