<svg width="67" height="67" viewBox="0 0 67 67" fill="none" xmlns="http://www.w3.org/2000/svg">
<circle cx="32" cy="32" r="32" fill="#0077B5"/>
<path d="M41.3333 16H22.6667C18.9853 16 16 18.9853 16 22.6667V41.3333C16 45.0147 18.9853 48 22.6667 48H41.3333C45.016 48 48 45.0147 48 41.3333V22.6667C48 18.9853 45.016 16 41.3333 16ZM26.6667 41.3333H22.6667V26.6667H26.6667V41.3333ZM24.6667 24.976C23.3787 24.976 22.3333 23.9227 22.3333 22.624C22.3333 21.3253 23.3787 20.272 24.6667 20.272C25.9547 20.272 27 21.3253 27 22.624C27 23.9227 25.956 24.976 24.6667 24.976ZM42.6667 41.3333H38.6667V33.8613C38.6667 29.3707 33.3333 29.7107 33.3333 33.8613V41.3333H29.3333V26.6667H33.3333V29.02C35.1947 25.572 42.6667 25.3173 42.6667 32.3213V41.3333Z" fill="white"/>
<circle cx="50" cy="50" r="15.5" fill="#005784" stroke="white" stroke-width="3"/>
<path fill-rule="evenodd" clip-rule="evenodd" d="M49.0001 42C49.0001 41.4477 49.4478 41 50 41C50.5523 41 51 41.4477 51 42V43.0067C53.3507 43.0765 54.8241 43.6879 55.7382 44.4191C56.2197 44.8043 56.5217 45.2044 56.7073 45.531C56.7995 45.6933 56.862 45.8357 56.9036 45.9471C56.9244 46.0028 56.94 46.0508 56.9515 46.0897C56.9572 46.1092 56.962 46.1264 56.9658 46.1412L56.971 46.1617L56.9731 46.1705L56.974 46.1746L56.9745 46.1765C56.975 46.1789 56.9515 46.0897 56.9749 46.1784C57.0973 46.7169 56.76 47.2527 56.2214 47.3751C55.6937 47.4951 55.1686 47.1735 55.0326 46.6538L55.03 46.6467C55.0226 46.6268 55.0041 46.5817 54.9685 46.519C54.8984 46.3956 54.7573 46.1957 54.4888 45.9809C53.9966 45.5871 52.988 45.0758 51 45.0076V49.0148C52.9405 49.0756 54.3586 49.3299 55.3321 49.879C55.9363 50.2199 56.3791 50.6784 56.6551 51.2568C56.9218 51.8156 56.9998 52.4175 56.9998 53C56.9998 54.0698 56.5427 55.1524 55.3298 55.9105C54.355 56.5198 52.9454 56.8864 51 56.9775V58C51 58.5523 50.5523 59 50 59C49.4478 59 49.0001 58.5523 49.0001 58V56.9727C46.7206 56.844 45.2764 56.276 44.3634 55.6064C43.8443 55.2257 43.5174 54.8265 43.3155 54.4933C43.2153 54.328 43.1476 54.1819 43.1025 54.0662C43.08 54.0083 43.0631 53.9581 43.0507 53.917C43.0444 53.8964 43.0393 53.878 43.0351 53.8621L43.0294 53.84L43.0271 53.8303L43.0261 53.8259L43.0256 53.8237C43.0249 53.8209 43.0251 53.8216 43.0251 53.8216C42.9027 53.2831 43.24 52.7473 43.7786 52.6249C44.3036 52.5055 44.826 52.8232 44.9653 53.3382L44.966 53.3401C44.9721 53.3556 44.9896 53.397 45.0258 53.4567C45.0966 53.5735 45.247 53.7743 45.546 53.9936C46.0599 54.3704 47.0744 54.845 49.0001 54.9692V50.9825C47.0408 50.9102 45.6226 50.6117 44.6496 50.0354C44.0557 49.6836 43.6222 49.2255 43.3492 48.6678C43.0824 48.1227 43.0002 47.5466 43.0002 47C43.0002 46.393 43.1402 45.7891 43.4863 45.2392C43.8305 44.6922 44.3387 44.2622 44.9753 43.9354C45.943 43.4386 47.2726 43.1471 49.0001 43.0434V42ZM49.0001 45.0476C47.4928 45.1479 46.5053 45.398 45.8886 45.7146C45.5026 45.9128 45.2948 46.1203 45.1789 46.3045C45.0647 46.4859 45.0002 46.707 45.0002 47C45.0002 47.3534 45.0543 47.6023 45.1455 47.7885C45.2304 47.962 45.3765 48.1414 45.6688 48.3146C46.2154 48.6383 47.2163 48.9081 49.0001 48.9807V45.0476ZM51 54.975C52.7058 54.8854 53.7067 54.5665 54.2699 54.2145C54.8569 53.8476 54.9998 53.4302 54.9998 53C54.9998 52.5825 54.9414 52.3094 54.8502 52.1182C54.7683 51.9466 54.6316 51.7801 54.3495 51.621C53.8039 51.3132 52.8033 51.0784 51 51.0162V54.975Z" fill="white"/>
</svg>
