<svg width="64" height="64" viewBox="0 0 64 64" fill="none" xmlns="http://www.w3.org/2000/svg">
<circle cx="32" cy="32" r="32" fill="#0099FF"/>
<path fill-rule="evenodd" clip-rule="evenodd" d="M32 15C22.4225 15 15 22.0156 15 31.4906C15 36.447 17.0318 40.7295 20.3394 43.6883C20.6165 43.938 20.7841 44.2835 20.7978 44.6563L20.8901 47.6801C20.9209 48.6447 21.9163 49.2707 22.7988 48.8841L26.1714 47.3962C26.4588 47.2696 26.7769 47.2457 27.0779 47.3278C28.6274 47.7553 30.2795 47.9811 32 47.9811C41.5775 47.9811 49 40.9655 49 31.4906C49 22.0156 41.5775 15 32 15ZM42.2068 27.6869L37.2129 35.6089C36.4193 36.8677 34.7159 37.1824 33.5256 36.2896L29.5543 33.3103C29.1883 33.0366 28.6889 33.0401 28.3264 33.3137L22.963 37.3842C22.2481 37.9281 21.3109 37.0695 21.7932 36.3101L26.7871 28.3881C27.5807 27.1293 29.2841 26.8146 30.4744 27.7074L34.4457 30.6867C34.8117 30.9604 35.3111 30.9569 35.6736 30.6833L41.037 26.6128C41.7519 26.069 42.6891 26.9275 42.2068 27.6869Z" fill="white"/>
</svg>
