<svg width="67" height="67" viewBox="0 0 67 67" fill="none" xmlns="http://www.w3.org/2000/svg">
<circle cx="32" cy="32" r="32" fill="#0099FF"/>
<path fill-rule="evenodd" clip-rule="evenodd" d="M32 15C22.4225 15 15 22.0156 15 31.4906C15 36.447 17.0318 40.7295 20.3394 43.6883C20.6165 43.938 20.7841 44.2835 20.7978 44.6563L20.8901 47.6801C20.9209 48.6447 21.9163 49.2707 22.7988 48.8841L26.1714 47.3962C26.4588 47.2696 26.7769 47.2457 27.0779 47.3278C28.6274 47.7553 30.2795 47.9811 32 47.9811C41.5775 47.9811 49 40.9655 49 31.4906C49 22.0156 41.5775 15 32 15ZM42.2068 27.6869L37.2129 35.6089C36.4193 36.8677 34.7159 37.1824 33.5256 36.2896L29.5543 33.3103C29.1883 33.0366 28.6889 33.0401 28.3264 33.3137L22.963 37.3842C22.2481 37.9281 21.3109 37.0695 21.7932 36.3101L26.7871 28.3881C27.5807 27.1293 29.2841 26.8146 30.4744 27.7074L34.4457 30.6867C34.8117 30.9604 35.3111 30.9569 35.6736 30.6833L41.037 26.6128C41.7519 26.069 42.6891 26.9275 42.2068 27.6869Z" fill="white"/>
<circle cx="50" cy="50" r="15.5" fill="#006AB0" stroke="white" stroke-width="3"/>
<path fill-rule="evenodd" clip-rule="evenodd" d="M50 41C49.4477 41 49 41.4477 49 42V46H45C43.8954 46 43 46.8954 43 48C41.8954 48 41 48.8954 41 50V51C41 52.1046 41.8954 53 43 53L43 56C43 57.1046 43.8954 58 45 58H55C56.1046 58 57 57.1046 57 56V53C58.1046 53 59 52.1046 59 51V50C59 48.8954 58.1046 48 57 48C57 46.8954 56.1046 46 55 46H51V42C51 41.4477 50.5523 41 50 41ZM48 54.5C48 54.2239 48.2239 54 48.5 54H51.5C51.7761 54 52 54.2239 52 54.5V55.5C52 55.7761 51.7761 56 51.5 56H48.5C48.2239 56 48 55.7761 48 55.5V54.5ZM45.5 49C44.6716 49 44 49.6716 44 50.5C44 51.3284 44.6716 52 45.5 52H54.5C55.3284 52 56 51.3284 56 50.5C56 49.6716 55.3284 49 54.5 49H45.5Z" fill="white"/>
</svg>
