<svg width="64" height="64" viewBox="0 0 64 64" fill="none" xmlns="http://www.w3.org/2000/svg">
<circle cx="32" cy="32" r="32" fill="#148C59"/>
<path fill-rule="evenodd" clip-rule="evenodd" d="M32 25.3333C35.1296 25.3333 37.6666 22.7963 37.6666 19.6667C37.6666 16.5371 35.1296 14 32 14C28.8704 14 26.3333 16.5371 26.3333 19.6667C26.3333 22.7963 28.8704 25.3333 32 25.3333ZM24.5143 23.6968C24.0473 22.8311 23.726 21.8752 23.5834 20.8619C20.0465 23.2974 17.617 27.2256 17.2043 31.737C18.1149 31.3303 19.1102 31.0792 20.1563 31.0172C20.6735 28.0674 22.2658 25.4876 24.5143 23.6968ZM25.5191 46.4819C26.3569 45.8984 27.0847 45.1678 27.6651 44.3277C29.0099 44.8476 30.4716 45.1328 32 45.1328C33.5283 45.1328 34.9901 44.8476 36.3349 44.3276C36.9153 45.1678 37.6431 45.8983 38.4809 46.4819C36.5223 47.4328 34.3234 47.9661 32 47.9661C29.6765 47.9661 27.4776 47.4328 25.5191 46.4819ZM40.4166 20.862C43.9535 23.2975 46.3829 27.2256 46.7957 31.7369C45.885 31.3303 44.8898 31.0791 43.8436 31.0172C43.3265 28.0674 41.7342 25.4877 39.4857 23.6968C39.9527 22.8311 40.274 21.8752 40.4166 20.862ZM43.3334 45.1688C46.463 45.1688 49 42.6317 49 39.5021C49 36.3725 46.463 33.8354 43.3334 33.8354C40.2037 33.8354 37.6667 36.3725 37.6667 39.5021C37.6667 42.6317 40.2037 45.1688 43.3334 45.1688ZM26.3333 39.5021C26.3333 42.6317 23.7963 45.1688 20.6667 45.1688C17.5371 45.1688 15 42.6317 15 39.5021C15 36.3725 17.5371 33.8354 20.6667 33.8354C23.7963 33.8354 26.3333 36.3725 26.3333 39.5021Z" fill="white"/>
</svg>
