<svg width="64" height="64" viewBox="0 0 64 64" fill="none" xmlns="http://www.w3.org/2000/svg">
<circle cx="32" cy="32" r="32" fill="#FF7134"/>
<path fill-rule="evenodd" clip-rule="evenodd" d="M13 21C13 19.3431 14.3431 18 16 18H48C49.6569 18 51 19.3431 51 21V43C51 44.6569 49.6569 46 48 46H44.0005L44.0146 44.3097L44.0426 42.0797L44.3239 42.0243C45.3552 41.8124 45.9644 40.9833 46.1615 39.5457C46.3208 38.3939 46.2271 36.2754 46.0301 35.6765C45.8238 35.0498 45.2522 34.4235 44.6518 34.1749C44.2112 33.9904 43.1892 33.8064 42.5427 33.7972L42.2614 33.7968H38.2313L34.5282 33.8059C32.4937 33.8159 30.6375 33.8526 30.4125 33.8988C29.7846 34.0188 29.3249 34.3594 29.1376 34.8479C28.9783 35.253 28.9783 35.2901 29.1376 35.6957C29.3346 36.2025 29.7753 36.5157 30.4875 36.6539C30.7688 36.7002 32.231 36.746 33.7406 36.746H36.4967V40.6426V46H16C14.3431 46 13 44.6569 13 43V21ZM39.5057 26.1035C38.8494 26.2784 38.4651 26.5182 38.0058 27.025C37.3309 27.7804 37.1339 28.8769 37.4809 29.918C37.7152 30.6184 38.5028 31.3922 39.2151 31.6224C40.3777 32.0001 41.4839 31.7607 42.3177 30.9407C43.499 29.7797 43.499 28.0291 42.3177 26.868C41.5496 26.1126 40.4997 25.827 39.5057 26.1035ZM21.134 29.5C21.5189 28.8333 22.4811 28.8333 22.866 29.5L26.3301 35.5C26.715 36.1667 26.2339 37 25.4641 37H18.5359C17.7661 37 17.285 36.1667 17.6699 35.5L21.134 29.5ZM27.5 24C28.3284 24 29 23.3284 29 22.5C29 21.6716 28.3284 21 27.5 21C26.6716 21 26 21.6716 26 22.5C26 23.3284 26.6716 24 27.5 24ZM24 22.5C24 23.3284 23.3284 24 22.5 24C21.6716 24 21 23.3284 21 22.5C21 21.6716 21.6716 21 22.5 21C23.3284 21 24 21.6716 24 22.5ZM17.5 24C18.3284 24 19 23.3284 19 22.5C19 21.6716 18.3284 21 17.5 21C16.6716 21 16 21.6716 16 22.5C16 23.3284 16.6716 24 17.5 24Z" fill="white"/>
</svg>
