<svg width="64" height="64" viewBox="0 0 64 64" fill="none" xmlns="http://www.w3.org/2000/svg">
<circle cx="32" cy="32" r="32" fill="#76859C"/>
<path d="M32.2635 31.5072C31.899 30.351 31.9062 28.118 32.1177 28.118C32.7302 28.118 32.6719 30.7846 32.2635 31.5072ZM32.1396 34.9182C31.5781 36.3779 30.8781 38.0473 30.0687 39.4492C31.4031 38.9434 32.9125 38.2063 34.6552 37.8666C33.7292 37.1729 32.8396 36.1756 32.1396 34.9182ZM25.2781 43.9369C25.2781 43.9947 26.2406 43.5467 27.8229 41.0318C27.3344 41.4871 25.701 42.8023 25.2781 43.9369ZM38 24H47V48.2656C47 49.2268 46.2198 50 45.25 50H20.75C19.7802 50 19 49.2268 19 48.2656V14.7344C19 13.7732 19.7802 13 20.75 13H36V22.8281C36 23.782 37.0375 24 38 24ZM36.5 36.9777C35.0417 36.0961 34.0719 34.882 33.3865 33.0898C33.7146 31.7529 34.2323 29.7223 33.8385 28.4504C33.4958 26.3258 30.7469 26.5354 30.3531 27.959C29.9885 29.2814 30.324 31.1459 30.9437 33.5234C30.0979 35.518 28.851 38.1918 27.9688 39.7238C27.9615 39.7238 27.9615 39.7311 27.9542 39.7311C25.9781 40.7355 22.5875 42.9469 23.9802 44.6451C24.3885 45.1437 25.1469 45.3678 25.5479 45.3678C26.8531 45.3678 28.151 44.067 30.0031 40.9018C31.8844 40.2875 33.9479 39.5215 35.7635 39.2252C37.3458 40.0779 39.1979 40.6344 40.4302 40.6344C42.5594 40.6344 42.7052 38.3219 41.8667 37.498C40.8531 36.5152 37.9073 36.7971 36.5 36.9777ZM46.4896 20.5879L39.3438 13.5059C39.0156 13.1807 38.4667 13 38 13V22H47V21.8092C47 21.3539 46.8177 20.9131 46.4896 20.5879ZM41.0865 39.0373C41.3854 38.8422 40.9042 38.1773 37.9656 38.3869C40.6708 39.5287 41.0865 39.0373 41.0865 39.0373Z" fill="white"/>
</svg>
