<svg width="64" height="64" viewBox="0 0 64 64" fill="none" xmlns="http://www.w3.org/2000/svg">
<circle cx="32" cy="32" r="32" fill="#FFFC00"/>
<mask id="path-3-outside-1" maskUnits="userSpaceOnUse" x="13" y="12" width="38" height="38" fill="black">
<rect fill="white" x="13" y="12" width="38" height="38"/>
<path d="M32.2141 48C32.1177 48 32.0258 47.9963 31.9558 47.9927C31.9003 47.9978 31.843 48 31.7857 48C29.7612 48 28.4077 46.9806 27.2131 46.0805C26.357 45.4362 25.5495 44.8281 24.6036 44.6605C24.139 44.5784 23.6769 44.5368 23.2303 44.5368C22.4258 44.5368 21.79 44.6697 21.3257 44.7664C21.0401 44.8257 20.7938 44.8767 20.6034 44.8767C20.404 44.8767 20.1617 44.8296 20.0608 44.4624C19.9807 44.1727 19.9233 43.8921 19.8679 43.6218C19.7294 42.9465 19.6288 42.5343 19.3915 42.4952C16.8524 42.0779 15.3522 41.4632 15.0533 40.7187C15.022 40.6405 15.0045 40.5618 15.0006 40.4839C14.989 40.262 15.1361 40.0674 15.3414 40.0312C17.3578 39.6775 19.1507 38.5423 20.6706 36.656C21.848 35.1957 22.4261 33.8004 22.4882 33.6463C22.4909 33.6394 22.4941 33.6321 22.4973 33.6255C22.7903 32.9923 22.8486 32.4452 22.6711 31.9997C22.3439 31.1779 21.2604 30.8117 20.5436 30.5694C20.3653 30.5094 20.1966 30.4525 20.0623 30.3957C19.4268 30.1283 18.3817 29.5634 18.5209 28.7837C18.6224 28.2151 19.3284 27.8191 19.899 27.8191C20.0574 27.8191 20.1978 27.8487 20.316 27.9079C20.9608 28.2296 21.5408 28.3927 22.0397 28.3927C22.6601 28.3927 22.9597 28.1411 23.0322 28.0696C23.0143 27.7171 22.9925 27.3444 22.9714 26.9919C22.9714 26.9915 22.9709 26.9872 22.9709 26.9872C22.8253 24.5197 22.6437 21.4489 23.3811 19.6879C25.5882 14.4167 30.2689 14.0068 31.6505 14.0068C31.6873 14.0068 32.2527 14.0009 32.2527 14.0009C32.2782 14.0004 32.3059 14 32.3346 14C33.7199 14 38.4104 14.4104 40.6189 19.6847C41.3563 21.4469 41.1745 24.5203 41.0284 26.9904L41.0216 27.1086C41.0015 27.444 40.983 27.7615 40.9674 28.0692C41.0356 28.1361 41.3098 28.3668 41.8677 28.3901C42.3433 28.3707 42.8898 28.2084 43.4916 27.9082C43.6777 27.8152 43.8837 27.7959 44.0235 27.7959C44.2349 27.7959 44.45 27.8397 44.6293 27.9194L44.6389 27.9233C45.1495 28.1164 45.484 28.5023 45.4912 28.9077C45.4976 29.2855 45.234 29.8504 43.9373 30.3959C43.8044 30.4519 43.635 30.5092 43.456 30.5696C42.7385 30.8122 41.6559 31.1782 41.3287 31.9995C41.151 32.445 41.2094 32.9919 41.5025 33.6249C41.5057 33.6318 41.5085 33.6388 41.5117 33.6461C41.6019 33.8714 43.7859 39.1756 48.6585 40.0307C48.8637 40.0671 49.0111 40.2619 48.9993 40.4835C48.995 40.563 48.977 40.6426 48.9454 40.7204C48.6486 41.4607 47.1485 42.0745 44.6087 42.4924C44.3703 42.5316 44.2699 42.942 44.1326 43.6138C44.0758 43.8912 44.0179 44.1632 43.939 44.449C43.8651 44.7178 43.7007 44.8492 43.4367 44.8492H43.3969C43.225 44.8492 42.9815 44.816 42.6743 44.752C42.1375 44.6407 41.5354 44.5371 40.7697 44.5371C40.3233 44.5371 39.8613 44.5788 39.3961 44.6608C38.4512 44.8284 37.6438 45.4356 36.7892 46.0791C35.5923 46.9805 34.2383 48 32.2141 48Z"/>
</mask>
<path d="M32.2141 48C32.1177 48 32.0258 47.9963 31.9558 47.9927C31.9003 47.9978 31.843 48 31.7857 48C29.7612 48 28.4077 46.9806 27.2131 46.0805C26.357 45.4362 25.5495 44.8281 24.6036 44.6605C24.139 44.5784 23.6769 44.5368 23.2303 44.5368C22.4258 44.5368 21.79 44.6697 21.3257 44.7664C21.0401 44.8257 20.7938 44.8767 20.6034 44.8767C20.404 44.8767 20.1617 44.8296 20.0608 44.4624C19.9807 44.1727 19.9233 43.8921 19.8679 43.6218C19.7294 42.9465 19.6288 42.5343 19.3915 42.4952C16.8524 42.0779 15.3522 41.4632 15.0533 40.7187C15.022 40.6405 15.0045 40.5618 15.0006 40.4839C14.989 40.262 15.1361 40.0674 15.3414 40.0312C17.3578 39.6775 19.1507 38.5423 20.6706 36.656C21.848 35.1957 22.4261 33.8004 22.4882 33.6463C22.4909 33.6394 22.4941 33.6321 22.4973 33.6255C22.7903 32.9923 22.8486 32.4452 22.6711 31.9997C22.3439 31.1779 21.2604 30.8117 20.5436 30.5694C20.3653 30.5094 20.1966 30.4525 20.0623 30.3957C19.4268 30.1283 18.3817 29.5634 18.5209 28.7837C18.6224 28.2151 19.3284 27.8191 19.899 27.8191C20.0574 27.8191 20.1978 27.8487 20.316 27.9079C20.9608 28.2296 21.5408 28.3927 22.0397 28.3927C22.6601 28.3927 22.9597 28.1411 23.0322 28.0696C23.0143 27.7171 22.9925 27.3444 22.9714 26.9919C22.9714 26.9915 22.9709 26.9872 22.9709 26.9872C22.8253 24.5197 22.6437 21.4489 23.3811 19.6879C25.5882 14.4167 30.2689 14.0068 31.6505 14.0068C31.6873 14.0068 32.2527 14.0009 32.2527 14.0009C32.2782 14.0004 32.3059 14 32.3346 14C33.7199 14 38.4104 14.4104 40.6189 19.6847C41.3563 21.4469 41.1745 24.5203 41.0284 26.9904L41.0216 27.1086C41.0015 27.444 40.983 27.7615 40.9674 28.0692C41.0356 28.1361 41.3098 28.3668 41.8677 28.3901C42.3433 28.3707 42.8898 28.2084 43.4916 27.9082C43.6777 27.8152 43.8837 27.7959 44.0235 27.7959C44.2349 27.7959 44.45 27.8397 44.6293 27.9194L44.6389 27.9233C45.1495 28.1164 45.484 28.5023 45.4912 28.9077C45.4976 29.2855 45.234 29.8504 43.9373 30.3959C43.8044 30.4519 43.635 30.5092 43.456 30.5696C42.7385 30.8122 41.6559 31.1782 41.3287 31.9995C41.151 32.445 41.2094 32.9919 41.5025 33.6249C41.5057 33.6318 41.5085 33.6388 41.5117 33.6461C41.6019 33.8714 43.7859 39.1756 48.6585 40.0307C48.8637 40.0671 49.0111 40.2619 48.9993 40.4835C48.995 40.563 48.977 40.6426 48.9454 40.7204C48.6486 41.4607 47.1485 42.0745 44.6087 42.4924C44.3703 42.5316 44.2699 42.942 44.1326 43.6138C44.0758 43.8912 44.0179 44.1632 43.939 44.449C43.8651 44.7178 43.7007 44.8492 43.4367 44.8492H43.3969C43.225 44.8492 42.9815 44.816 42.6743 44.752C42.1375 44.6407 41.5354 44.5371 40.7697 44.5371C40.3233 44.5371 39.8613 44.5788 39.3961 44.6608C38.4512 44.8284 37.6438 45.4356 36.7892 46.0791C35.5923 46.9805 34.2383 48 32.2141 48Z" fill="white"/>
<path d="M31.9558 47.9927L32.0574 45.9953L31.915 45.988L31.773 46.0011L31.9558 47.9927ZM27.2131 46.0805L28.4168 44.4832L28.4156 44.4823L27.2131 46.0805ZM24.6036 44.6605L24.9525 42.6911L24.9515 42.691L24.6036 44.6605ZM21.3257 44.7664L21.7322 46.7246L21.7335 46.7244L21.3257 44.7664ZM20.0608 44.4624L21.9892 43.9322L21.9885 43.9298L20.0608 44.4624ZM19.8679 43.6218L21.8272 43.2202L21.8271 43.2198L19.8679 43.6218ZM19.3915 42.4952L19.7166 40.5218L19.7158 40.5217L19.3915 42.4952ZM15.0533 40.7187L13.1965 41.4618L13.1973 41.4638L15.0533 40.7187ZM15.0006 40.4839L16.9982 40.3844L16.9979 40.3792L15.0006 40.4839ZM15.3414 40.0312L14.9959 38.0613L14.9939 38.0616L15.3414 40.0312ZM20.6706 36.656L19.1136 35.4007L19.1132 35.4012L20.6706 36.656ZM22.4882 33.6463L24.3433 34.3938L24.3471 34.3844L24.3508 34.3749L22.4882 33.6463ZM22.4973 33.6255L24.2934 34.5052L24.3032 34.4854L24.3124 34.4653L22.4973 33.6255ZM22.6711 31.9997L20.8129 32.7394L20.8131 32.7399L22.6711 31.9997ZM20.5436 30.5694L21.1839 28.6747L21.1821 28.6741L20.5436 30.5694ZM20.0623 30.3957L20.8411 28.5535L20.8379 28.5522L20.0623 30.3957ZM18.5209 28.7837L20.4898 29.1352L20.4899 29.1349L18.5209 28.7837ZM20.316 27.9079L19.4215 29.6967L19.4229 29.6974L20.316 27.9079ZM23.0322 28.0696L24.4371 29.4931L25.075 28.8635L25.0296 27.9684L23.0322 28.0696ZM22.9714 26.9919H20.9714V27.0517L20.975 27.1114L22.9714 26.9919ZM22.9709 26.9872L20.9744 27.1051L20.9772 27.1518L20.9821 27.1983L22.9709 26.9872ZM23.3811 19.6879L25.2259 20.4604L25.2259 20.4604L23.3811 19.6879ZM32.2527 14.0009L32.2738 16.0008L32.282 16.0007L32.2903 16.0005L32.2527 14.0009ZM40.6189 19.6847L42.4638 18.9126L42.4637 18.9123L40.6189 19.6847ZM41.0284 26.9904L39.0319 26.8723L39.0318 26.8746L41.0284 26.9904ZM41.0216 27.1086L43.018 27.2278L43.0182 27.2244L41.0216 27.1086ZM40.9674 28.0692L38.97 27.9679L38.9244 28.8669L39.5671 29.4972L40.9674 28.0692ZM41.8677 28.3901L41.7841 30.3884L41.8667 30.3918L41.9493 30.3885L41.8677 28.3901ZM43.4916 27.9082L44.3842 29.698L44.3861 29.6971L43.4916 27.9082ZM44.6293 27.9194L43.8171 29.747L43.8421 29.7581L43.8674 29.7686L44.6293 27.9194ZM44.6389 27.9233L43.877 29.7725L43.9041 29.7837L43.9316 29.7941L44.6389 27.9233ZM45.4912 28.9077L47.4909 28.8738L47.4909 28.872L45.4912 28.9077ZM43.9373 30.3959L43.1617 28.5523L43.1599 28.5531L43.9373 30.3959ZM43.456 30.5696L42.8161 28.6748L42.8154 28.675L43.456 30.5696ZM41.3287 31.9995L43.1863 32.7407L43.1867 32.7396L41.3287 31.9995ZM41.5025 33.6249L39.6875 34.4652L39.692 34.4747L41.5025 33.6249ZM41.5117 33.6461L43.3683 32.9025L43.3582 32.8773L43.3475 32.8524L41.5117 33.6461ZM48.6585 40.0307L49.0079 38.0615L49.0042 38.0608L48.6585 40.0307ZM48.9993 40.4835L50.9964 40.5922L50.9965 40.5892L48.9993 40.4835ZM48.9454 40.7204L47.0924 39.9677L47.089 39.9762L48.9454 40.7204ZM44.6087 42.4924L44.9333 44.4659L44.9334 44.4659L44.6087 42.4924ZM44.1326 43.6138L46.0919 44.0152L46.0921 44.0143L44.1326 43.6138ZM43.939 44.449L42.0112 43.9165L42.0105 43.9189L43.939 44.449ZM42.6743 44.752L43.0824 42.794L43.0803 42.7936L42.6743 44.752ZM39.3961 44.6608L39.049 42.6911L39.0468 42.6915L39.3961 44.6608ZM36.7892 46.0791L35.5861 44.4814L35.586 44.4815L36.7892 46.0791ZM32.2141 46C32.166 46 32.1119 45.998 32.0574 45.9953L31.8543 49.9901C31.9396 49.9945 32.0694 50 32.2141 50V46ZM31.773 46.0011C31.7812 46.0003 31.7862 46.0001 31.7878 46C31.7895 45.9999 31.7888 46 31.7857 46V50C31.8931 50 32.0123 49.9959 32.1387 49.9843L31.773 46.0011ZM31.7857 46C30.5016 46 29.6356 45.4017 28.4168 44.4832L26.0095 47.6777C27.1797 48.5595 29.0208 50 31.7857 50V46ZM28.4156 44.4823C27.6542 43.9094 26.4574 42.9578 24.9525 42.6911L24.2547 46.6298C24.6417 46.6984 25.0597 46.9631 26.0107 47.6786L28.4156 44.4823ZM24.9515 42.691C24.3785 42.5897 23.7998 42.5368 23.2303 42.5368V46.5368C23.5539 46.5368 23.8996 46.5671 24.2557 46.63L24.9515 42.691ZM23.2303 42.5368C22.2039 42.5368 21.3943 42.7092 20.9179 42.8084L21.7335 46.7244C22.1856 46.6302 22.6477 46.5368 23.2303 46.5368V42.5368ZM20.9192 42.8081C20.7667 42.8398 20.6747 42.8586 20.6002 42.871C20.5668 42.8765 20.5507 42.8784 20.5473 42.8788C20.5432 42.8792 20.5642 42.8767 20.6034 42.8767V46.8767C21.047 46.8767 21.5276 46.7671 21.7322 46.7246L20.9192 42.8081ZM20.6034 42.8767C20.6276 42.8767 20.9472 42.8706 21.3087 43.0831C21.7395 43.3364 21.9285 43.7115 21.9892 43.9322L18.1323 44.9926C18.294 45.5805 18.6545 46.1628 19.2816 46.5314C19.8393 46.8593 20.3797 46.8767 20.6034 46.8767V42.8767ZM21.9885 43.9298C21.9292 43.7152 21.8844 43.4994 21.8272 43.2202L17.9087 44.0235C17.9622 44.2848 18.0322 44.6302 18.133 44.995L21.9885 43.9298ZM21.8271 43.2198C21.7656 42.9201 21.6771 42.4849 21.5394 42.1178C21.461 41.9087 21.0308 40.7383 19.7166 40.5218L19.0663 44.4686C18.5346 44.381 18.1834 44.0839 18.0017 43.8629C17.9177 43.7608 17.8665 43.6724 17.8392 43.6205C17.8114 43.5675 17.7975 43.5313 17.7941 43.5221C17.7894 43.5097 17.8004 43.5376 17.825 43.6387C17.8484 43.7352 17.8746 43.8572 17.9088 44.0239L21.8271 43.2198ZM19.7158 40.5217C18.5168 40.3246 17.6726 40.0969 17.1403 39.8788C16.8754 39.7703 16.7491 39.6888 16.7097 39.6589C16.6641 39.6243 16.8052 39.7142 16.9094 39.9737L13.1973 41.4638C13.6733 42.6497 14.8279 43.2543 15.6243 43.5804C16.5515 43.9602 17.727 44.2485 19.0671 44.4687L19.7158 40.5217ZM16.9102 39.9756C16.9559 40.0898 16.9904 40.228 16.9982 40.3844L13.0031 40.5835C13.0187 40.8956 13.0882 41.1912 13.1965 41.4618L16.9102 39.9756ZM16.9979 40.3792C17.0342 41.0721 16.5686 41.8456 15.6889 42.0008L14.9939 38.0616C13.7036 38.2893 12.9438 39.452 13.0034 40.5887L16.9979 40.3792ZM15.687 42.0011C18.2651 41.5489 20.4626 40.1017 22.228 37.9108L19.1132 35.4012C17.8388 36.9828 16.4505 37.8061 14.9959 38.0613L15.687 42.0011ZM22.2276 37.9113C23.578 36.2363 24.244 34.6403 24.3433 34.3938L20.6332 32.8988C20.6083 32.9604 20.1179 34.155 19.1136 35.4007L22.2276 37.9113ZM24.3508 34.3749C24.3367 34.4108 24.3181 34.4549 24.2934 34.5052L20.7012 32.7457C20.6701 32.8093 20.6451 32.8679 20.6257 32.9177L24.3508 34.3749ZM24.3124 34.4653C24.7306 33.5616 24.9871 32.409 24.5291 31.2595L20.8131 32.7399C20.7908 32.6837 20.7793 32.6324 20.7744 32.5918C20.7696 32.5522 20.7719 32.53 20.7719 32.5298C20.7719 32.5298 20.7718 32.5311 20.7714 32.5339C20.7709 32.5367 20.7702 32.5408 20.7691 32.5464C20.7668 32.5575 20.7629 32.5739 20.7563 32.5958C20.7431 32.6402 20.7203 32.7032 20.6822 32.7856L24.3124 34.4653ZM24.5293 31.26C24.1202 30.2323 23.3064 29.6443 22.7299 29.3218C22.142 28.9929 21.5175 28.7875 21.1839 28.6747L19.9032 32.4641C20.2865 32.5937 20.5621 32.6925 20.777 32.8127C21.0033 32.9393 20.8949 32.9453 20.8129 32.7394L24.5293 31.26ZM21.1821 28.6741C20.9816 28.6066 20.8917 28.575 20.8411 28.5535L19.2835 32.2378C19.5015 32.33 19.749 32.4122 19.905 32.4648L21.1821 28.6741ZM20.8379 28.5522C20.7275 28.5058 20.6111 28.4511 20.5042 28.3918C20.3931 28.3302 20.3233 28.2806 20.289 28.2517C20.2473 28.2166 20.3099 28.2564 20.3811 28.3909C20.4203 28.4648 20.464 28.5715 20.4888 28.7076C20.5142 28.847 20.5151 28.9933 20.4898 29.1352L16.5521 28.4321C16.2905 29.8971 17.211 30.8893 17.7132 31.312C18.2658 31.777 18.9034 32.0779 19.2867 32.2392L20.8379 28.5522ZM20.4899 29.1349C20.412 29.5715 20.1518 29.7469 20.1273 29.7629C20.0969 29.7828 20.0728 29.793 20.0508 29.7998C20.0306 29.8061 19.9812 29.8191 19.899 29.8191V25.8191C19.1922 25.8191 18.4974 26.05 17.9407 26.4135C17.3952 26.7696 16.7313 27.4273 16.552 28.4325L20.4899 29.1349ZM19.899 29.8191C19.8121 29.8191 19.634 29.8029 19.4215 29.6967L21.2105 26.119C20.7616 25.8946 20.3027 25.8191 19.899 25.8191V29.8191ZM19.4229 29.6974C20.2308 30.1006 21.1244 30.3927 22.0397 30.3927V26.3927C21.9572 26.3927 21.6907 26.3587 21.2091 26.1183L19.4229 29.6974ZM22.0397 30.3927C23.2669 30.3927 24.0521 29.873 24.4371 29.4931L21.6273 26.6461C21.7367 26.5382 21.8392 26.4704 21.9286 26.4306C22.0236 26.3884 22.0705 26.3927 22.0397 26.3927V30.3927ZM25.0296 27.9684C25.0113 27.6061 24.989 27.2256 24.9678 26.8723L20.975 27.1114C20.996 27.4632 21.0174 27.8281 21.0348 28.1708L25.0296 27.9684ZM24.9714 26.9919C24.9714 26.923 24.9675 26.8678 24.9674 26.8658C24.9664 26.8497 24.9654 26.837 24.9649 26.831C24.9639 26.8185 24.963 26.8086 24.9627 26.805C24.9619 26.7965 24.9612 26.7897 24.9609 26.7874C24.9606 26.7842 24.9603 26.7815 24.9602 26.78C24.9601 26.7791 24.96 26.7783 24.9599 26.7777C24.9599 26.7774 24.9599 26.7771 24.9598 26.7768C24.9598 26.7767 24.9598 26.7766 24.9598 26.7765C24.9598 26.7764 24.9598 26.7764 24.9598 26.7763C24.9598 26.7763 24.9598 26.7763 24.9598 26.7762C24.9598 26.7762 24.9598 26.7762 24.9598 26.7762C24.9598 26.7762 24.9598 26.7762 24.9598 26.7762C24.9598 26.7762 24.9598 26.7762 22.9709 26.9872C20.9821 27.1983 20.9821 27.1983 20.9821 27.1983C20.9821 27.1983 20.9821 27.1983 20.9821 27.1983C20.9821 27.1983 20.9821 27.1982 20.9821 27.1982C20.9821 27.1982 20.9821 27.1982 20.9821 27.1982C20.9821 27.1981 20.9821 27.1981 20.9821 27.198C20.9821 27.1979 20.9821 27.1978 20.982 27.1977C20.982 27.1975 20.982 27.1973 20.982 27.1971C20.9819 27.1968 20.9819 27.1963 20.9818 27.1959C20.9818 27.1951 20.9816 27.1935 20.9814 27.1914C20.9813 27.1902 20.9807 27.1845 20.98 27.1769C20.9797 27.1738 20.9788 27.1643 20.9778 27.152C20.9774 27.1463 20.9764 27.1337 20.9754 27.1177C20.9752 27.1158 20.9714 27.0606 20.9714 26.9919H24.9714ZM24.9675 26.8694C24.8937 25.6201 24.8179 24.3178 24.8444 23.1167C24.8719 21.8703 25.0092 20.978 25.2259 20.4604L21.5363 18.9154C21.0156 20.1588 20.875 21.6824 20.8454 23.0285C20.8147 24.42 20.9025 25.8868 20.9744 27.1051L24.9675 26.8694ZM25.2259 20.4604C26.9601 16.3187 30.5521 16.0068 31.6505 16.0068V12.0068C29.9858 12.0068 24.2164 12.5147 21.5363 18.9155L25.2259 20.4604ZM31.6505 16.0068C31.6824 16.0068 31.8503 16.0051 31.9858 16.0037C32.059 16.003 32.131 16.0022 32.1846 16.0017C32.2115 16.0014 32.2337 16.0012 32.2493 16.001C32.2571 16.0009 32.2632 16.0009 32.2674 16.0008C32.2694 16.0008 32.271 16.0008 32.2721 16.0008C32.2726 16.0008 32.2731 16.0008 32.2733 16.0008C32.2735 16.0008 32.2736 16.0008 32.2736 16.0008C32.2737 16.0008 32.2737 16.0008 32.2737 16.0008C32.2737 16.0008 32.2737 16.0008 32.2737 16.0008C32.2738 16.0008 32.2738 16.0008 32.2527 14.0009C32.2316 12.001 32.2316 12.001 32.2316 12.001C32.2316 12.001 32.2316 12.001 32.2316 12.001C32.2316 12.001 32.2315 12.001 32.2315 12.001C32.2314 12.001 32.2313 12.001 32.2312 12.001C32.2309 12.001 32.2305 12.001 32.23 12.001C32.2289 12.001 32.2274 12.001 32.2253 12.001C32.2212 12.0011 32.2151 12.0011 32.2073 12.0012C32.1918 12.0014 32.1697 12.0016 32.1429 12.0019C32.0894 12.0025 32.0178 12.0032 31.945 12.0039C31.8721 12.0047 31.7985 12.0054 31.7409 12.006C31.6751 12.0066 31.6472 12.0068 31.6505 12.0068V16.0068ZM32.2903 16.0005C32.3091 16.0002 32.3232 16 32.3346 16V12C32.2886 12 32.2473 12.0006 32.215 12.0012L32.2903 16.0005ZM32.3346 16C33.4386 16 37.039 16.3134 38.7741 20.4572L42.4637 18.9123C39.7818 12.5073 34.0013 12 32.3346 12V16ZM38.7739 20.4568C38.9908 20.975 39.1281 21.8684 39.1555 23.1159C39.1818 24.3182 39.1059 25.6219 39.0319 26.8723L43.0249 27.1085C43.0971 25.8888 43.185 24.4207 43.1545 23.0282C43.1249 21.681 42.9844 20.1566 42.4638 18.9126L38.7739 20.4568ZM39.0318 26.8746L39.0249 26.9928L43.0182 27.2244L43.0251 27.1062L39.0318 26.8746ZM39.0251 26.9894C39.005 27.3257 38.9861 27.6507 38.97 27.9679L42.9649 28.1705C42.98 27.8723 42.998 27.5623 43.018 27.2278L39.0251 26.9894ZM39.5671 29.4972C39.9243 29.8475 40.6488 30.3408 41.7841 30.3884L41.9514 26.3919C41.9416 26.3915 41.9939 26.3933 42.0841 26.4357C42.1698 26.4759 42.2658 26.5413 42.3678 26.6412L39.5671 29.4972ZM41.9493 30.3885C42.7986 30.3538 43.6274 30.0755 44.3842 29.698L42.599 26.1185C42.1522 26.3413 41.888 26.3876 41.7861 26.3918L41.9493 30.3885ZM44.3861 29.6971C44.2686 29.7558 44.1743 29.7775 44.1262 29.7861C44.0765 29.795 44.0416 29.7959 44.0235 29.7959V25.7959C43.7422 25.7959 43.1804 25.8277 42.5971 26.1194L44.3861 29.6971ZM44.0235 29.7959C43.9932 29.7959 43.966 29.793 43.939 29.7875C43.9128 29.7821 43.8715 29.7712 43.8171 29.747L45.4415 26.0917C44.9869 25.8897 44.4925 25.7959 44.0235 25.7959V29.7959ZM43.8674 29.7686L43.877 29.7725L45.4008 26.0741L45.3912 26.0702L43.8674 29.7686ZM43.9316 29.7941C43.9184 29.7891 43.8388 29.7569 43.7421 29.6453C43.6443 29.5324 43.4978 29.2943 43.4916 28.9433L47.4909 28.872C47.4638 27.3496 46.2987 26.4127 45.3462 26.0526L43.9316 29.7941ZM43.4915 28.9416C43.4889 28.7888 43.5153 28.6389 43.5668 28.505C43.6174 28.3734 43.678 28.2942 43.7055 28.2632C43.7303 28.2351 43.7189 28.2565 43.6322 28.3133C43.5454 28.3701 43.3971 28.4533 43.1617 28.5524L44.7128 32.2394C46.2815 31.5795 47.5183 30.4885 47.4909 28.8738L43.4915 28.9416ZM43.1599 28.5531C43.1094 28.5744 43.018 28.6066 42.8161 28.6748L44.0959 32.4645C44.252 32.4118 44.4995 32.3294 44.7147 32.2386L43.1599 28.5531ZM42.8154 28.675C42.4816 28.7878 41.8572 28.9933 41.2695 29.3221C40.6931 29.6446 39.8798 30.2323 39.4707 31.2594L43.1867 32.7396C43.1047 32.9454 42.9964 32.9394 43.2225 32.8129C43.4373 32.6928 43.7128 32.594 44.0965 32.4643L42.8154 28.675ZM39.4711 31.2583C39.012 32.4088 39.2694 33.562 39.6876 34.4652L43.3174 32.7846C43.2793 32.7022 43.2565 32.6392 43.2433 32.5949C43.2368 32.573 43.2328 32.5567 43.2306 32.5456C43.2283 32.5345 43.2277 32.5292 43.2277 32.5293C43.2277 32.5296 43.2301 32.5521 43.2253 32.5919C43.2203 32.6328 43.2088 32.6844 43.1863 32.7407L39.4711 31.2583ZM39.692 34.4747C39.6846 34.4588 39.6786 34.4455 39.6744 34.436C39.6703 34.4266 39.6673 34.4196 39.6662 34.417C39.6656 34.4157 39.6653 34.4149 39.6654 34.4152C39.6655 34.4155 39.6656 34.4156 39.6659 34.4163C39.6661 34.4168 39.6664 34.4176 39.6668 34.4185C39.6683 34.422 39.6717 34.43 39.6759 34.4398L43.3475 32.8524C43.3489 32.8557 43.35 32.8583 43.3507 32.86C43.3514 32.8616 43.3519 32.8628 43.3519 32.8628C43.353 32.8654 43.3498 32.8579 43.348 32.8537C43.3434 32.8427 43.3304 32.8123 43.3129 32.775L39.692 34.4747ZM39.6551 34.3897C39.7383 34.5977 40.3935 36.1774 41.7286 37.85C43.0567 39.5137 45.2109 41.4563 48.3128 42.0006L49.0042 38.0608C47.2334 37.7501 45.8594 36.613 44.8547 35.3545C44.3619 34.7371 43.9914 34.1306 43.7401 33.6664C43.4893 33.2032 43.3676 32.9008 43.3683 32.9025L39.6551 34.3897ZM48.309 41.9999C47.4331 41.8445 46.9653 41.074 47.0021 40.3777L50.9965 40.5892C51.0569 39.4498 50.2944 38.2898 49.0079 38.0615L48.309 41.9999ZM47.0023 40.3748C47.0105 40.2236 47.0443 40.0861 47.0924 39.9678L50.7984 41.473C50.9096 41.1991 50.9795 40.9025 50.9964 40.5922L47.0023 40.3748ZM47.089 39.9762C47.1944 39.7132 47.338 39.6218 47.2922 39.6565C47.253 39.6862 47.1268 39.7675 46.8615 39.876C46.3286 40.0938 45.4836 40.3216 44.284 40.5189L44.9334 44.4659C46.2736 44.2454 47.4486 43.9573 48.3749 43.5786C49.1679 43.2545 50.326 42.6515 50.8018 41.4645L47.089 39.9762ZM44.2841 40.5189C42.975 40.7343 42.5425 41.8948 42.461 42.1113C42.3224 42.4795 42.2341 42.9149 42.1731 43.2132L46.0921 44.0143C46.1259 43.8488 46.1517 43.7281 46.1749 43.6329C46.1991 43.5331 46.2098 43.5066 46.2046 43.5204C46.2008 43.5303 46.1865 43.5673 46.1582 43.621C46.1304 43.6736 46.0786 43.7624 45.994 43.8647C45.8103 44.0866 45.4598 44.3793 44.9333 44.4659L44.2841 40.5189ZM42.1733 43.2124C42.1176 43.4844 42.0709 43.7002 42.0112 43.9165L45.8668 44.9815C45.9649 44.6262 46.0339 44.2981 46.0919 44.0152L42.1733 43.2124ZM42.0105 43.9189C42.0503 43.7743 42.1736 43.4562 42.5123 43.1862C42.8627 42.9067 43.2292 42.8492 43.4367 42.8492V46.8492C43.9082 46.8492 44.4888 46.726 45.006 46.3137C45.5113 45.9108 45.7538 45.3926 45.8674 44.9792L42.0105 43.9189ZM43.4367 42.8492H43.3969V46.8492H43.4367V42.8492ZM43.3969 42.8492C43.4301 42.8492 43.4213 42.8517 43.3541 42.8426C43.292 42.8342 43.2026 42.8191 43.0824 42.794L42.2663 46.7099C42.6122 46.782 43.0163 46.8492 43.3969 46.8492V42.8492ZM43.0803 42.7936C42.4809 42.6693 41.729 42.5371 40.7697 42.5371V46.5371C41.3419 46.5371 41.7941 46.612 42.2684 46.7103L43.0803 42.7936ZM40.7697 42.5371C40.2 42.5371 39.6217 42.5902 39.049 42.6911L39.7433 46.6304C40.1008 46.5674 40.4466 46.5371 40.7697 46.5371V42.5371ZM39.0468 42.6915C37.5435 42.9582 36.3478 43.9079 35.5861 44.4814L37.9923 47.6768C38.9399 46.9633 39.3589 46.6986 39.7454 46.63L39.0468 42.6915ZM35.586 44.4815C34.3643 45.4016 33.4979 46 32.2141 46V50C34.9787 50 36.8204 48.5593 37.9924 47.6767L35.586 44.4815Z" fill="black" mask="url(#path-3-outside-1)"/>
</svg>
