<svg width="64" height="64" viewBox="0 0 64 64" fill="none" xmlns="http://www.w3.org/2000/svg">
<circle cx="32" cy="32" r="32" fill="#0F151F"/>
<path d="M20.0177 18.2735L23.357 43.9522C23.5921 45.7601 25.9432 46.352 27.0244 44.8755L31.1997 39.1738C31.6228 38.5961 32.5028 38.6249 32.8862 39.2292L37.853 47.0568C38.4503 47.9982 39.7065 48.2826 40.6588 47.6922L40.978 47.4942C41.9303 46.9038 42.218 45.6619 41.6207 44.7206L36.6533 36.8919C36.2697 36.2874 36.6271 35.4912 37.3379 35.3667L44.3182 34.1444C46.1347 33.8263 46.6205 31.4748 45.0756 30.4781L23.1489 16.3321C21.6947 15.3938 19.7963 16.5709 20.0177 18.2735Z" fill="white"/>
</svg>
