<svg width="64" height="64" viewBox="0 0 64 64" fill="none" xmlns="http://www.w3.org/2000/svg">
<circle cx="32" cy="32" r="32" fill="#1ED760"/>
<path d="M45.2957 43.2403C44.7924 43.9878 43.7122 44.2248 42.8869 43.766C36.2906 40.1168 27.9867 39.2903 18.2073 41.3139C17.265 41.5084 16.3256 40.9736 16.1109 40.1198C15.8952 39.266 16.4833 38.4152 17.428 38.2207C28.1299 36.0063 37.3098 36.9598 44.7153 41.0587C45.5406 41.5175 45.8022 42.4928 45.2957 43.2403ZM48.7344 36.312C48.1003 37.2454 46.7516 37.5401 45.7217 36.9658C38.17 32.7618 26.6585 31.5443 17.7263 34C16.5678 34.3169 15.3443 33.7256 14.9927 32.6782C14.6438 31.629 15.297 30.523 16.4534 30.204C26.6565 27.4001 39.3408 28.7583 48.0131 33.5849C49.043 34.1592 49.3684 35.3804 48.7344 36.312ZM49.0296 29.0974C39.9749 24.2264 25.0358 23.7785 16.3907 26.1549C15.0025 26.5362 13.5344 25.8264 13.1137 24.5691C12.693 23.3112 13.476 21.9824 14.8653 21.6002C24.7892 18.8716 41.2866 19.3988 51.7114 25.0039C52.9628 25.6751 53.3721 27.1357 52.6307 28.2651C51.8926 29.3961 50.2756 29.7689 49.0309 29.0974H49.0296Z" fill="white"/>
</svg>
