<svg width="45" height="46" fill="none" xmlns="http://www.w3.org/2000/svg">
    <path d="M22.1124 45.353C34.2543 45.353 44.0972 35.5101 44.0972 23.3683C44.0972 11.2264 34.2543 1.38354 22.1124 1.38354C9.97059 1.38354 0.127686 11.2264 0.127686 23.3683C0.127686 35.5101 9.97059 45.353 22.1124 45.353Z" fill="#009BF3"/>
    <path d="M24.3926 19.7056C25.1366 18.7865 27.6315 17.1241 28.2445 17.0804C27.3019 16.845 26.488 16.9864 25.8629 17.1701C26.3127 16.2286 26.7601 15.463 27.4564 14.5208C28.3177 13.3548 29.7548 12.158 30.9103 11.5271C30.9385 11.5006 30.8649 11.4297 30.8374 11.4301C29.2415 11.4653 27.4998 12.8006 26.4931 13.9521C25.8333 14.7079 25.1279 15.7217 24.6476 16.8006C24.2112 16.3236 23.5908 15.9279 22.8165 15.6803C22.8168 15.68 24.1739 18.5245 24.3926 19.7056ZM16.108 32.2021V33.6812C16.108 34.8125 18.796 35.7292 22.1124 35.7292C25.4282 35.7292 28.1168 34.8125 28.1168 33.6812V32.2021C28.1168 32.2021 26.8505 33.0836 22.1124 33.0836C17.3277 33.0836 16.108 32.2021 16.108 32.2021ZM16.7684 14.5204C17.4648 15.4627 17.9122 16.2282 18.362 17.1698C17.7372 16.986 16.9229 16.8446 15.9807 17.0801C16.5934 17.1238 19.0882 18.7865 19.8323 19.7052C20.0513 18.5238 21.408 15.6797 21.408 15.6797C20.6338 15.9272 20.013 16.3229 19.5766 16.7999C19.0966 15.7207 18.3912 14.7069 17.7311 13.9514C16.7248 12.7999 14.9834 11.465 13.3871 11.4294C13.3596 11.4291 13.2864 11.4999 13.3146 11.5265C14.4704 12.1576 15.9065 13.3548 16.7684 14.5204ZM13.2108 26.7268V29.6899C15.2864 30.5391 18.5326 31.0768 22.1124 31.0768C25.6929 31.0768 28.9385 30.5394 31.0141 29.6899V26.7268C28.9385 27.5766 25.6929 28.1178 22.1124 28.1178C18.5326 28.1178 15.2864 27.5763 13.2108 26.7268ZM29.6977 17.3999C29.4128 17.5057 28.3342 17.9269 27.1488 18.6192C28.1766 18.9286 28.8038 19.3327 28.8038 19.7761C28.8038 20.7486 25.8081 21.537 22.1124 21.537C18.4171 21.537 15.4214 20.7486 15.4214 19.7761C15.4214 19.3327 16.0489 18.9289 17.0761 18.6196C15.8907 17.9269 14.8117 17.506 14.5272 17.3999C12.4738 18.072 11.1953 19.0143 11.1953 20.0579V23.623C12.6931 25.1305 17.0133 26.2209 22.1124 26.2209C27.2119 26.2209 31.5321 25.1305 33.0296 23.623V20.0579C33.0296 19.0143 31.7507 18.072 29.6977 17.3999ZM24.5478 12.6353H22.8081V10.2H21.4164V12.6353H19.6771L22.1124 15.0707L24.5478 12.6353Z" fill="white"/>
</svg>
