<svg width="64" height="64" viewBox="0 0 64 64" fill="none" xmlns="http://www.w3.org/2000/svg">
<circle cx="32" cy="32" r="32" fill="#BD081C"/>
<path d="M46.9872 42.3782C46.7629 43.9931 43.62 48.1853 42.1732 48.7902C41.6758 48.9915 41.2035 48.9465 40.8194 48.6402C40.5772 48.439 40.322 48.0278 36.931 42.2607L35.9243 40.5421C35.533 39.9234 35.607 39.1097 36.0924 38.491C36.5648 37.8923 37.2542 37.671 37.8565 37.911C37.8876 37.931 40.3971 38.7897 40.3971 38.7897C46.0998 40.7558 46.287 40.8333 46.5292 41.022C46.8894 41.3345 47.0575 41.8157 46.9824 42.3757L46.9872 42.3782ZM35.5569 33.6026C35.1466 32.9576 35.1597 32.1964 35.576 31.6752L37.16 29.4091C40.6393 24.4357 40.8373 24.1745 41.0734 23.9995C41.4778 23.7133 41.9799 23.6995 42.4582 23.947C43.8371 24.6507 46.627 28.9917 46.7939 30.659V30.7178C46.844 31.284 46.6258 31.7465 46.2477 32.0264C45.9864 32.2027 45.7443 32.3002 39.2592 33.9538C38.2347 34.2275 37.6621 34.3775 37.327 34.5013L37.3699 34.4488C36.7306 34.65 36.0161 34.325 35.6058 33.6551L35.5569 33.6026ZM31.5683 31.0253C31.2641 31.1228 30.3195 31.429 29.1577 29.4629C29.1577 29.4629 21.3117 16.5276 21.1316 16.1301C21.0195 15.6814 21.1507 15.1727 21.5359 14.7627C22.7036 13.4928 29.0337 11.6379 30.6928 12.0616C31.2331 12.2116 31.6065 12.5628 31.7365 13.0703C31.8355 13.6303 32.606 25.6281 32.7181 28.3167C32.8243 30.6153 31.8796 30.9278 31.5683 31.0253ZM32.606 44.1756C32.5869 50.4639 32.575 50.6788 32.476 50.9788C32.315 51.4413 31.9297 51.76 31.3953 51.8575C29.8674 52.1312 25.0904 50.2826 24.0896 49.0452C23.8976 48.7715 23.7795 48.4978 23.7545 48.219C23.7294 48.024 23.7545 47.8216 23.8296 47.6466C23.9477 47.3216 24.1159 47.0666 28.4086 41.7945L29.6694 40.2258C30.1048 39.6459 30.8622 39.4709 31.5766 39.7696C32.272 40.0434 32.7014 40.6683 32.6513 41.3445V44.1443L32.606 44.1756ZM19.5905 40.1521C19.1242 40.1396 18.7019 39.8396 18.4538 39.3509C18.2797 38.9934 18.1556 38.4072 18.0745 37.6848C17.8574 35.5174 18.1246 32.2427 18.746 31.2077C19.0323 30.7328 19.4605 30.4791 19.9269 30.4978C20.237 30.4978 20.5173 30.5953 26.6553 33.2451L28.4504 33.9938C29.0969 34.2475 29.4941 34.9437 29.4571 35.7449C29.407 36.5199 28.9788 37.1186 28.3514 37.2948L25.7977 38.1472C20.0891 40.0746 19.8959 40.1196 19.5977 40.0934L19.5905 40.1521ZM43.4089 51.9938H43.4029L43.3969 52L43.4089 51.9938Z" fill="white"/>
</svg>
