<svg width="64" height="64" viewBox="0 0 64 64" fill="none" xmlns="http://www.w3.org/2000/svg">
<circle cx="32" cy="32" r="32" fill="#FF0000"/>
<path fill-rule="evenodd" clip-rule="evenodd" d="M46.0645 19.7758C47.613 20.2035 48.8341 21.4616 49.2473 23.0594C50 25.9571 50 32 50 32C50 32 50 38.0429 49.2473 40.9406C48.8341 42.5384 47.613 43.7965 46.0645 44.2242C43.2582 45 32 45 32 45C32 45 20.7418 45 17.9355 44.2242C16.387 43.7965 15.1659 42.5384 14.7527 40.9406C14 38.0429 14 32 14 32C14 32 14 25.9571 14.7527 23.0594C15.1659 21.4616 16.387 20.2035 17.9355 19.7758C20.7418 19 32 19 32 19C32 19 43.2582 19 46.0645 19.7758ZM38.7331 32L29.0902 37.2V26.8L38.7331 32Z" fill="white"/>
</svg>
