<svg width="34" height="44" viewBox="0 0 34 44" fill="none" xmlns="http://www.w3.org/2000/svg">
<path d="M14.6261 3.07205C15.8271 1.51784 18.1729 1.51784 19.3739 3.07205L32.5826 20.1657C33.4174 21.2461 33.4174 22.7539 32.5826 23.8343L19.3739 40.9279C18.1729 42.4822 15.8271 42.4822 14.6261 40.928L1.41745 23.8343C0.582588 22.7539 0.582586 21.2461 1.41745 20.1657L14.6261 3.07205Z" fill="#3AD3D3"/>
<path d="M10.2058 16C9.64675 16 9.19355 16.4477 9.19355 17C9.19355 17.5523 9.64675 18 10.2058 18H11.2252L13.1368 26.2203C13.241 26.6762 13.651 27 14.1242 27H21.4384C21.8363 27 22.1972 26.7698 22.361 26.4116L25.1038 20.4116C25.2453 20.1021 25.2181 19.7429 25.0317 19.4576C24.8453 19.1723 24.525 19 24.1813 19H13.5619L13.0217 16.7797C12.9175 16.3238 12.5075 16 12.0344 16H10.2058Z" fill="white"/>
<path d="M15.0711 29.5C15.0711 30.3284 14.3913 31 13.5527 31C12.7142 31 12.0344 30.3284 12.0344 29.5C12.0344 28.6716 12.7142 28 13.5527 28C14.3913 28 15.0711 28.6716 15.0711 29.5Z" fill="white"/>
<path d="M21.6507 31C22.4893 31 23.1691 30.3284 23.1691 29.5C23.1691 28.6716 22.4893 28 21.6507 28C20.8121 28 20.1323 28.6716 20.1323 29.5C20.1323 30.3284 20.8121 31 21.6507 31Z" fill="white"/>
</svg>
