<svg width="34" height="44" viewBox="0 0 34 44" fill="none" xmlns="http://www.w3.org/2000/svg">
<path d="M14.6261 3.07205C15.8271 1.51784 18.1729 1.51784 19.3739 3.07205L32.5826 20.1657C33.4174 21.2461 33.4174 22.7539 32.5826 23.8343L19.3739 40.9279C18.1729 42.4822 15.8271 42.4822 14.6261 40.928L1.41745 23.8343C0.582588 22.7539 0.582586 21.2461 1.41745 20.1657L14.6261 3.07205Z" fill="#FF8934"/>
<path fill-rule="evenodd" clip-rule="evenodd" d="M11 26.9999C11 28.1045 11.8954 28.9999 13 28.9999H21C22.1046 28.9999 23 28.1044 23 26.9999V17.4771C23 16.8456 22.7018 16.2512 22.1955 15.8737L18.1955 12.8913C17.4862 12.3624 16.5138 12.3624 15.8045 12.8913L11.8045 15.8737C11.2982 16.2512 11 16.8456 11 17.4771V26.9999ZM17 19.5629C18.1046 19.5629 19 18.6675 19 17.5629C19 16.4583 18.1046 15.5629 17 15.5629C15.8954 15.5629 15 16.4583 15 17.5629C15 18.6675 15.8954 19.5629 17 19.5629Z" fill="white"/>
</svg>
