<svg width="34" height="44" viewBox="0 0 34 44" fill="none" xmlns="http://www.w3.org/2000/svg">
<path d="M14.6261 3.07205C15.8271 1.51784 18.1729 1.51784 19.3739 3.07205L32.5826 20.1657C33.4174 21.2461 33.4174 22.7539 32.5826 23.8343L19.3739 40.9279C18.1729 42.4822 15.8271 42.4822 14.6261 40.928L1.41745 23.8343C0.582588 22.7539 0.582586 21.2461 1.41745 20.1657L14.6261 3.07205Z" fill="#934DFF"/>
<path d="M15.573 17.0522C16.7702 17.0522 17.8288 17.6529 18.471 18.573L21.0403 19.5443C20.5352 16.9536 18.2794 15 15.573 15C12.4951 15 10 17.5267 10 20.6436C10 23.4881 12.078 25.8411 14.7806 26.2307L13.9146 23.819C12.7916 23.2163 12.0265 22.0204 12.0265 20.6436C12.0265 18.6602 13.6143 17.0522 15.573 17.0522Z" fill="white"/>
<path d="M16.8996 26.1264L16.2003 24.179C16.2003 24.179 16.2003 24.179 16.2003 24.179L15.0064 20.8541C14.7773 20.2161 15.3916 19.5993 16.0196 19.8368L25.4891 23.4166C26.1562 23.6688 26.1745 24.6178 25.5175 24.8961L21.0306 26.2619L19.922 30.5183C19.6411 31.1806 18.7049 31.1537 18.4616 30.4762L16.8996 26.1264C16.8996 26.1264 16.8995 26.1264 16.8996 26.1264Z" fill="white"/>
</svg>
