<svg width="34" height="44" viewBox="0 0 34 44" fill="none" xmlns="http://www.w3.org/2000/svg">
<path d="M14.6261 3.07205C15.8271 1.51784 18.1729 1.51784 19.3739 3.07205L32.5826 20.1657C33.4174 21.2461 33.4174 22.7539 32.5826 23.8343L19.3739 40.9279C18.1729 42.4822 15.8271 42.4822 14.6261 40.928L1.41745 23.8343C0.582588 22.7539 0.582586 21.2461 1.41745 20.1657L14.6261 3.07205Z" fill="#1E2532"/>
<path fill-rule="evenodd" clip-rule="evenodd" d="M9 16C9 15.4477 9.44772 15 10 15H24C24.5523 15 25 15.4477 25 16V27C25 27.5523 24.5523 28 24 28H15.2321L13.933 30.25C13.7406 30.5833 13.2594 30.5833 13.067 30.25L11.7679 28L10 28C9.44772 28 9 27.5523 9 27V16ZM12.5 23C13.3284 23 14 22.3284 14 21.5C14 20.6716 13.3284 20 12.5 20C11.6716 20 11 20.6716 11 21.5C11 22.3284 11.6716 23 12.5 23ZM18.5 21.5C18.5 22.3284 17.8284 23 17 23C16.1716 23 15.5 22.3284 15.5 21.5C15.5 20.6716 16.1716 20 17 20C17.8284 20 18.5 20.6716 18.5 21.5ZM21.5 23C22.3284 23 23 22.3284 23 21.5C23 20.6716 22.3284 20 21.5 20C20.6716 20 20 20.6716 20 21.5C20 22.3284 20.6716 23 21.5 23Z" fill="white"/>
</svg>
