<svg width="34" height="44" viewBox="0 0 34 44" fill="none" xmlns="http://www.w3.org/2000/svg">
<path d="M14.6261 3.07205C15.8271 1.51784 18.1729 1.51784 19.3739 3.07205L32.5826 20.1657C33.4174 21.2461 33.4174 22.7539 32.5826 23.8343L19.3739 40.9279C18.1729 42.4822 15.8271 42.4822 14.6261 40.928L1.41745 23.8343C0.582588 22.7539 0.582586 21.2461 1.41745 20.1657L14.6261 3.07205Z" fill="#B381FF"/>
<path fill-rule="evenodd" clip-rule="evenodd" d="M24 15C24 14.4477 23.5523 14 23 14H11C10.4477 14 10 14.4477 10 15V29C10 29.5523 10.4477 30 11 30H12.7679L14.067 32.25C14.2594 32.5833 14.7406 32.5833 14.933 32.25L16.2321 30H23C23.5523 30 24 29.5523 24 29V15ZM13.5 17C13.2239 17 13 17.2239 13 17.5V18.5C13 18.7761 13.2239 19 13.5 19H20.5C20.7761 19 21 18.7761 21 18.5V17.5C21 17.2239 20.7761 17 20.5 17H13.5ZM13 21.5C13 21.2239 13.2239 21 13.5 21H20.5C20.7761 21 21 21.2239 21 21.5V22.5C21 22.7761 20.7761 23 20.5 23H13.5C13.2239 23 13 22.7761 13 22.5V21.5ZM13.5 25C13.2239 25 13 25.2239 13 25.5V26.5C13 26.7761 13.2239 27 13.5 27H20.5C20.7761 27 21 26.7761 21 26.5V25.5C21 25.2239 20.7761 25 20.5 25H13.5Z" fill="white"/>
</svg>
