<svg width="34" height="44" viewBox="0 0 34 44" fill="none" xmlns="http://www.w3.org/2000/svg">
<path d="M14.6261 3.07205C15.8271 1.51784 18.1729 1.51784 19.3739 3.07205L32.5826 20.1657C33.4174 21.2461 33.4174 22.7539 32.5826 23.8343L19.3739 40.9279C18.1729 42.4822 15.8271 42.4822 14.6261 40.928L1.41745 23.8343C0.582588 22.7539 0.582586 21.2461 1.41745 20.1657L14.6261 3.07205Z" fill="#0058A9"/>
<path fill-rule="evenodd" clip-rule="evenodd" d="M10 22C10 18.134 13.134 15 17 15C20.866 15 24 18.134 24 22C24 25.866 20.866 29 17 29C13.134 29 10 25.866 10 22ZM17 13C12.0294 13 8 17.0294 8 22C8 26.9706 12.0294 31 17 31C21.9706 31 26 26.9706 26 22C26 17.0294 21.9706 13 17 13ZM18 17C18 16.4477 17.5523 16 17 16C16.4477 16 16 16.4477 16 17V22C16 22.5523 16.4477 23 17 23H21C21.5523 23 22 22.5523 22 22C22 21.4477 21.5523 21 21 21H18V17Z" fill="white"/>
</svg>
