<svg width="34" height="44" viewBox="0 0 34 44" fill="none" xmlns="http://www.w3.org/2000/svg">
<path d="M14.6261 3.07205C15.8271 1.51784 18.1729 1.51784 19.3739 3.07205L32.5826 20.1657C33.4174 21.2461 33.4174 22.7539 32.5826 23.8343L19.3739 40.9279C18.1729 42.4822 15.8271 42.4822 14.6261 40.928L1.41745 23.8343C0.582588 22.7539 0.582586 21.2461 1.41745 20.1657L14.6261 3.07205Z" fill="#0077CE"/>
<path fill-rule="evenodd" clip-rule="evenodd" d="M11 20C11 16.6863 13.6863 14 17 14C20.3137 14 23 16.6863 23 20V24C23 27.3137 20.3137 30 17 30C13.6863 30 11 27.3137 11 24V20ZM14.2929 23.2929C14.6834 22.9024 15.3166 22.9024 15.7071 23.2929L17 24.5858L18.2929 23.2929C18.6834 22.9024 19.3166 22.9024 19.7071 23.2929C20.0976 23.6834 20.0976 24.3166 19.7071 24.7071L17.7071 26.7071C17.3166 27.0976 16.6834 27.0976 16.2929 26.7071L14.2929 24.7071C13.9024 24.3166 13.9024 23.6834 14.2929 23.2929ZM18.2929 20.7071C18.6834 21.0976 19.3166 21.0976 19.7071 20.7071C20.0976 20.3166 20.0976 19.6834 19.7071 19.2929L17.7071 17.2929C17.3166 16.9024 16.6834 16.9024 16.2929 17.2929L14.2929 19.2929C13.9024 19.6834 13.9024 20.3166 14.2929 20.7071C14.6834 21.0976 15.3166 21.0976 15.7071 20.7071L17 19.4142L18.2929 20.7071Z" fill="white"/>
</svg>
