<svg width="64" height="64" viewBox="0 0 64 64" fill="none" xmlns="http://www.w3.org/2000/svg">
<circle cx="32" cy="32" r="32" fill="#FF9900"/>
<path fill-rule="evenodd" clip-rule="evenodd" d="M35.1524 28.9758C35.1524 30.9265 35.1991 32.5478 34.201 34.2816C33.3928 35.6923 32.1066 36.5584 30.6819 36.5584C28.7276 36.5584 27.5878 35.0954 27.5878 32.9294C27.5878 28.6671 31.4755 27.8913 35.154 27.8913V28.9758H35.1524ZM40.2813 41.1754C39.9448 41.4747 39.457 41.4937 39.0819 41.2926C37.3884 39.9119 37.089 39.2722 36.1617 37.9581C33.3703 40.7558 31.3934 41.595 27.7762 41.595C23.494 41.595 20.1601 38.9967 20.1601 33.7971C20.1601 29.7358 22.3994 26.9745 25.5852 25.6208C28.3461 24.4269 32.2016 24.21 35.1508 23.887V23.2378C35.1508 22.0456 35.2474 20.638 34.5342 19.6057C33.9144 18.6889 32.7248 18.3073 31.6768 18.3073C29.7369 18.3073 28.0112 19.2858 27.5878 21.3109C27.5009 21.7622 27.1677 22.2087 26.704 22.2324L21.7764 21.7052C21.3594 21.6165 20.8942 21.284 21.0165 20.6602C22.1498 14.7765 27.5524 13 32.3915 13C34.8658 13 38.1016 13.6492 40.0511 15.4922C42.527 17.7658 42.2919 20.7995 42.2919 24.1023V31.8971C42.2919 34.242 43.2836 35.2696 44.2108 36.5347C44.5392 36.9891 44.6085 37.5322 44.1947 37.8631C43.1532 38.7197 41.3067 40.2967 40.2941 41.1865L40.2813 41.1754ZM46.0106 44.3231C41.5868 46.6538 36.7783 47.7763 32.4028 47.7763C25.92 47.7763 19.6417 45.5708 14.5644 41.9085C14.1184 41.5887 13.79 42.1523 14.1603 42.5672C18.869 47.8333 25.0846 51 31.9907 51C36.9184 51 42.638 49.0778 46.5853 45.4678C47.2389 44.8709 46.6787 43.9716 46.0106 44.3231ZM47.0892 47.8318C46.9427 48.1912 47.2566 48.3384 47.5882 48.0645C49.7438 46.2912 50.3008 42.5767 49.8597 42.0415C49.4218 41.5095 45.6549 41.0503 43.356 42.6384C43.0019 42.8822 43.063 43.2195 43.4558 43.172C44.7517 43.02 47.6333 42.678 48.1452 43.3272C48.6588 43.9763 47.5738 46.6427 47.0892 47.8318Z" fill="white"/>
</svg>
