<svg width="64" height="64" viewBox="0 0 64 64" fill="none" xmlns="http://www.w3.org/2000/svg">
<circle cx="32" cy="32" r="32" fill="#7C2AFC"/>
<path fill-rule="evenodd" clip-rule="evenodd" d="M21.375 15H42.625C44.4883 15 46 16.5677 46 18.5V45.5C46 47.4323 44.4883 49 42.625 49H21.375C19.5117 49 18 47.4323 18 45.5V18.5C18 16.5677 19.5117 15 21.375 15ZM30.756 38H31.7566C32.4063 38 32.8623 37.3219 32.6491 36.6719L29.4778 27.0081C29.3813 26.7137 29.2005 26.4584 28.9605 26.2777C28.7205 26.097 28.4333 25.9999 28.1387 26H26.564C26.2696 25.9999 25.9824 26.0969 25.7424 26.2775C25.5025 26.458 25.3216 26.7132 25.225 27.0075L22.0531 36.6719C21.8398 37.3219 22.2958 38 22.9462 38H23.9467C24.1431 38.0001 24.3347 37.9354 24.4947 37.815C24.6548 37.6946 24.7754 37.5244 24.8398 37.3281L25.2758 36H29.4276L29.8629 37.3281C29.9952 37.73 30.3538 38 30.756 38ZM28.4429 33L27.3514 29.6737L26.2598 33H28.4429ZM41.0549 38C41.5771 38 42 37.5525 42 37V27C42 26.4475 41.5771 26 41.0549 26H40.1099C39.5877 26 39.1648 26.4475 39.1648 27V29.2762C38.7194 29.1081 38.2469 29 37.7472 29C35.4022 29 33.4943 31.0187 33.4943 33.5C33.4943 35.9812 35.4022 38 37.7472 38C38.3337 38 38.8931 37.8737 39.4022 37.645C39.5759 37.8581 39.8234 38 40.1099 38H41.0549ZM37.7472 32C36.9657 32 36.3296 32.6731 36.3296 33.5C36.3296 34.3269 36.9657 35 37.7472 35C38.5286 35 39.1648 34.3269 39.1648 33.5C39.1648 32.6731 38.5286 32 37.7472 32Z" fill="white"/>
</svg>
