<svg width="64" height="64" viewBox="0 0 64 64" fill="none" xmlns="http://www.w3.org/2000/svg">
<circle cx="32" cy="32" r="32" fill="#11AD66"/>
<path d="M51.9513 24.3428L35.3892 19.2098C34.4867 18.9301 33.5129 18.9301 32.611 19.2098L16.0483 24.3428C14.6506 24.7759 14.6506 26.6404 16.0483 27.0735L18.9357 27.9683C18.3022 28.7583 17.9127 29.722 17.8741 30.7774C17.3023 31.108 16.8997 31.7046 16.8997 32.4167C16.8997 33.0624 17.237 33.6057 17.7227 33.953L16.2068 40.8338C16.075 41.4322 16.5262 42 17.1336 42H20.4652C21.0732 42 21.5244 41.4322 21.3926 40.8338L19.8768 33.953C20.3625 33.6057 20.6997 33.0624 20.6997 32.4167C20.6997 31.7237 20.3156 31.144 19.7699 30.8073C19.815 29.9077 20.271 29.1123 20.9984 28.608L32.6104 32.2071C33.1483 32.3736 34.1803 32.5814 35.3886 32.2071L51.9513 27.0741C53.3496 26.6404 53.3496 24.7765 51.9513 24.3428ZM35.9467 34.0393C34.2527 34.564 32.8093 34.2741 32.0523 34.0393L23.4417 31.371L22.5997 38.1667C22.5997 40.284 27.7036 42 33.9998 42C40.2959 42 45.3998 40.284 45.3998 38.1667L44.5579 31.3704L35.9467 34.0393Z" fill="white"/>
</svg>
