<svg width="64" height="64" viewBox="0 0 64 64" fill="none" xmlns="http://www.w3.org/2000/svg">
<circle cx="32" cy="32" r="32" fill="#17313B"/>
<path fill-rule="evenodd" clip-rule="evenodd" d="M33.0969 42.0546C35.6288 42.0885 38.0826 41.1823 39.9801 39.5126L41.2564 38.3778L47 44.0065L45.6325 45.2775C42.2039 48.3732 37.7246 50.0601 33.0969 49.9984C22.7949 49.9984 15 42.2362 15 31.8866C15 21.537 22.6125 14.0018 33.0969 14.0018C37.6811 13.9377 42.1224 15.5901 45.5413 18.6319L46.9544 19.9483L41.302 25.577L40.0256 24.4876C38.0976 22.8443 35.6344 21.9568 33.0969 21.9909C27.1254 21.9909 22.9772 26.0763 22.9772 31.932C22.9772 37.7877 27.2621 42.0546 33.0969 42.0546ZM39.8889 32C39.8889 35.637 36.9041 38.5853 33.2222 38.5853C29.5403 38.5853 26.5556 35.637 26.5556 32C26.5556 28.363 29.5403 25.4146 33.2222 25.4146C36.9041 25.4146 39.8889 28.363 39.8889 32Z" fill="white"/>
</svg>
