<svg width="64" height="64" viewBox="0 0 64 64" fill="none" xmlns="http://www.w3.org/2000/svg">
<circle cx="32" cy="32" r="32" fill="#0A7CE6"/>
<path fill-rule="evenodd" clip-rule="evenodd" d="M42 16H22C18.134 16 15 19.134 15 23V41C15 44.866 18.134 48 22 48H42C45.866 48 49 44.866 49 41V23C49 19.134 45.866 16 42 16ZM17 23C17 20.2386 19.2386 18 22 18H42C44.7614 18 47 20.2386 47 23V41C47 43.7614 44.7614 46 42 46H22C19.2386 46 17 43.7614 17 41V23ZM20 23.6242C20 23.9006 20.1306 24.1607 20.3523 24.3258L30.8054 32.1104C31.5143 32.6383 32.4857 32.6383 33.1946 32.1104L43.6477 24.3258C43.8694 24.1607 44 23.9006 44 23.6242C44 22.1749 42.8251 21 41.3758 21H22.6242C21.1749 21 20 22.1749 20 23.6242ZM20 27L29.5514 34.394C30.9931 35.51 33.0069 35.51 34.4486 34.394L44 27V40C44 41.6569 42.6569 43 41 43H23C21.3431 43 20 41.6569 20 40V27Z" fill="#F7F8FB"/>
</svg>
