<svg width="64" height="64" viewBox="0 0 64 64" fill="none" xmlns="http://www.w3.org/2000/svg">
<circle cx="32" cy="32" r="32" fill="#34A853"/>
<path d="M29.7903 17.4213C32.1142 15.1159 35.9595 15.6914 37.5411 18.5943C41.3504 25.6517 45.4585 32.5569 49.3587 39.5634L49.3598 39.5654C51.0536 42.5919 49.2156 46.419 45.853 46.9377C43.7874 47.2514 41.8572 46.2989 40.7713 44.3833C36.8371 37.4078 32.7527 30.5174 28.8629 23.5187L28.8599 23.5134C28.401 22.6988 28.1863 21.8164 28.206 20.8721C28.2481 20.3154 28.3125 19.9169 28.4721 19.592L28.4947 19.5459L28.5127 19.4978C28.8208 18.6746 29.2226 17.9757 29.7845 17.427L29.7903 17.4213Z" fill="white"/>
<path d="M25.8103 20.7331C25.7673 21.9574 26.068 23.0943 26.6693 24.1583C28.2443 26.9129 29.8192 29.6822 31.3798 32.4515C31.4429 32.5607 31.5005 32.6699 31.5574 32.7779C31.6296 32.9149 31.7007 33.0498 31.7807 33.1802C30.9217 34.696 30.0626 36.1972 29.1892 37.713C28.8667 38.2797 28.5442 38.8475 28.2215 39.4157C27.8711 40.0325 27.5204 40.6499 27.1691 41.2671C27.1511 41.0243 27.121 40.7794 27.0778 40.5321C26.2436 35.6694 20.9466 33.2271 16.853 35.3963C17.0556 35.0366 17.2587 34.6768 17.4631 34.3171C17.8611 33.6164 25.8103 20.7331 25.8103 20.7331Z" fill="white"/>
<path d="M25.165 41.8197C25.165 44.6787 22.8473 46.9964 19.9883 46.9964C17.1294 46.9964 14.8117 44.6787 14.8117 41.8197C14.8117 38.9607 17.1294 36.6431 19.9883 36.6431C22.8473 36.6431 25.165 38.9607 25.165 41.8197Z" fill="white"/>
</svg>
