<svg width="67" height="67" viewBox="0 0 67 67" fill="none" xmlns="http://www.w3.org/2000/svg">
<circle cx="32" cy="32" r="32" fill="#F00075"/>
<path d="M32.0007 18.0627C36.5404 18.0627 37.0783 18.0799 38.87 18.1623C40.5276 18.238 41.4281 18.5142 42.0271 18.748C42.82 19.0561 43.3871 19.4253 43.9821 20.0203C44.5772 20.6153 44.9451 21.1811 45.2532 21.9753C45.4856 22.5743 45.7632 23.4748 45.8389 25.1323C45.9213 26.9252 45.9386 27.4631 45.9386 32.0013C45.9386 36.5395 45.9213 37.0787 45.8389 38.8704C45.7632 40.5279 45.487 41.4284 45.2532 42.0273C44.9451 42.8202 44.5758 43.3873 43.9821 43.9823C43.3871 44.5773 42.8213 44.9452 42.0271 45.2534C41.4281 45.4858 40.5276 45.7634 38.87 45.8391C37.077 45.9214 36.5404 45.9387 32.0007 45.9387C27.461 45.9387 26.923 45.9214 25.1313 45.8391C23.4738 45.7634 22.5733 45.4871 21.9743 45.2534C21.1813 44.9452 20.6142 44.576 20.0192 43.9823C19.4242 43.3873 19.0563 42.8216 18.7481 42.0273C18.5157 41.4284 18.2381 40.5279 18.1624 38.8704C18.08 37.0774 18.0628 36.5395 18.0628 32.0013C18.0628 27.4631 18.08 26.9239 18.1624 25.1323C18.2381 23.4748 18.5144 22.5743 18.7481 21.9753C19.0563 21.1824 19.4255 20.6153 20.0192 20.0203C20.6129 19.4253 21.18 19.0574 21.9743 18.748C22.5733 18.5155 23.4738 18.238 25.1313 18.1623C26.923 18.0799 27.461 18.0627 32.0007 18.0627ZM32.0007 15C27.3839 15 26.8048 15.0199 24.9919 15.1023C23.1816 15.1846 21.9464 15.4728 20.8639 15.8925C19.7456 16.3268 18.7973 16.9085 17.8529 17.8528C16.9086 18.7971 16.3268 19.7467 15.8925 20.865C15.4728 21.9461 15.1846 23.1813 15.1023 24.9915C15.0199 26.8044 15 27.3834 15 32C15 36.6166 15.0199 37.1956 15.1023 39.0085C15.1846 40.8174 15.4728 42.0539 15.8925 43.135C16.3268 44.2533 16.9086 45.2016 17.8529 46.1459C18.7986 47.0915 19.7456 47.6719 20.8639 48.1062C21.945 48.5259 23.1816 48.8141 24.9905 48.8964C26.8048 48.9801 27.3839 49 32.0007 49C36.6174 49 37.1965 48.9801 39.0095 48.8977C40.8184 48.8154 42.055 48.5272 43.1361 48.1075C44.2544 47.6732 45.2027 47.0915 46.1471 46.1472C47.0927 45.2016 47.6732 44.2546 48.1075 43.1363C48.5272 42.0552 48.8154 40.8188 48.8977 39.0098C48.9801 37.197 49 36.6179 49 32.0013C49 27.3848 48.9801 26.8057 48.8977 24.9928C48.8154 23.1839 48.5272 21.9474 48.1075 20.8663C47.6732 19.748 47.0914 18.7998 46.1471 17.8555C45.2027 16.9112 44.2544 16.3268 43.1361 15.8925C42.055 15.4728 40.8184 15.1846 39.0095 15.1023C37.1965 15.0199 36.6174 15 32.0007 15ZM32.0007 23.2702C27.1794 23.2702 23.2706 27.1789 23.2706 32C23.2706 36.8211 27.1794 40.7298 32.0007 40.7298C36.8219 40.7298 40.7308 36.8211 40.7308 32C40.7308 27.1789 36.8219 23.2702 32.0007 23.2702ZM32.0007 37.6671C28.8715 37.6671 26.3333 35.1304 26.3333 32C26.3333 28.8696 28.8702 26.3329 32.0007 26.3329C35.1312 26.3329 37.668 28.8696 37.668 32C37.668 35.1304 35.1298 37.6671 32.0007 37.6671ZM43.1162 22.9249C43.1162 24.0512 42.2024 24.9649 41.0761 24.9649C39.9498 24.9649 39.036 24.0512 39.036 22.9249C39.036 21.7987 39.9498 20.8849 41.0761 20.8849C42.2024 20.8849 43.1162 21.7987 43.1162 22.9249Z" fill="white"/>
<circle cx="50" cy="50" r="15.5" fill="#AF0055" stroke="white" stroke-width="3"/>
<path fill-rule="evenodd" clip-rule="evenodd" d="M56.2027 43.1966C55.422 42.4159 54.1563 42.4155 53.3751 43.1957L51.4914 45.0771L55.0061 48.5917L56.8849 46.6904C57.658 45.908 57.6542 44.6482 56.8764 43.8704L56.2027 43.1966ZM53.6003 50.0144L50.0763 46.4904L43.0332 53.5246C42.6453 53.9121 42.4334 54.4419 42.4472 54.9901L42.5034 57.2185C42.5102 57.4896 42.732 57.7059 43.0032 57.7059H45.1646C45.6991 57.7059 46.2115 57.4919 46.5872 57.1117L53.6003 50.0144Z" fill="white"/>
</svg>
