<svg width="64" height="64" viewBox="0 0 64 64" fill="none" xmlns="http://www.w3.org/2000/svg">
<circle cx="32" cy="32" r="32" fill="#F00075"/>
<path d="M32 18.0627C36.5395 18.0627 37.0774 18.0799 38.8691 18.1623C40.5266 18.238 41.427 18.5142 42.026 18.748C42.8189 19.0561 43.386 19.4253 43.981 20.0203C44.576 20.6153 44.9439 21.1811 45.252 21.9753C45.4845 22.5743 45.762 23.4748 45.8378 25.1323C45.9201 26.9252 45.9374 27.4631 45.9374 32.0013C45.9374 36.5395 45.9201 37.0788 45.8378 38.8704C45.762 40.5279 45.4858 41.4284 45.252 42.0274C44.9439 42.8202 44.5747 43.3874 43.981 43.9824C43.386 44.5774 42.8203 44.9452 42.026 45.2534C41.427 45.4858 40.5266 45.7634 38.8691 45.8391C37.0761 45.9214 36.5395 45.9387 32 45.9387C27.4605 45.9387 26.9226 45.9214 25.1309 45.8391C23.4734 45.7634 22.573 45.4871 21.974 45.2534C21.1811 44.9452 20.614 44.576 20.019 43.9824C19.424 43.3874 19.0561 42.8216 18.748 42.0274C18.5155 41.4284 18.238 40.5279 18.1623 38.8704C18.0799 37.0774 18.0627 36.5395 18.0627 32.0013C18.0627 27.4631 18.0799 26.9239 18.1623 25.1323C18.238 23.4748 18.5142 22.5743 18.748 21.9753C19.0561 21.1824 19.4253 20.6153 20.019 20.0203C20.6127 19.4253 21.1798 19.0574 21.974 18.748C22.573 18.5155 23.4734 18.238 25.1309 18.1623C26.9226 18.0799 27.4605 18.0627 32 18.0627ZM32 15C27.3834 15 26.8044 15.0199 24.9915 15.1023C23.1813 15.1846 21.9461 15.4728 20.8637 15.8925C19.7454 16.3268 18.7971 16.9085 17.8528 17.8528C16.9085 18.7971 16.3268 19.7467 15.8925 20.865C15.4728 21.9461 15.1846 23.1813 15.1023 24.9915C15.0199 26.8044 15 27.3834 15 32C15 36.6166 15.0199 37.1956 15.1023 39.0085C15.1846 40.8174 15.4728 42.0539 15.8925 43.135C16.3268 44.2533 16.9085 45.2016 17.8528 46.1459C18.7984 47.0915 19.7454 47.6719 20.8637 48.1062C21.9448 48.5259 23.1813 48.8141 24.9902 48.8964C26.8044 48.9801 27.3834 49 32 49C36.6166 49 37.1956 48.9801 39.0085 48.8978C40.8174 48.8154 42.0539 48.5272 43.135 48.1075C44.2533 47.6732 45.2016 47.0915 46.1459 46.1472C47.0915 45.2016 47.6719 44.2546 48.1062 43.1363C48.5259 42.0553 48.8141 40.8188 48.8964 39.0099C48.9788 37.197 48.9987 36.6179 48.9987 32.0013C48.9987 27.3848 48.9788 26.8057 48.8964 24.9928C48.8141 23.1839 48.5259 21.9474 48.1062 20.8663C47.6719 19.748 47.0902 18.7998 46.1459 17.8555C45.2016 16.9112 44.2533 16.3268 43.135 15.8925C42.0539 15.4728 40.8174 15.1846 39.0085 15.1023C37.1956 15.0199 36.6166 15 32 15ZM32 23.2702C27.1789 23.2702 23.2702 27.1789 23.2702 32C23.2702 36.8211 27.1789 40.7298 32 40.7298C36.8211 40.7298 40.7298 36.8211 40.7298 32C40.7298 27.1789 36.8211 23.2702 32 23.2702ZM32 37.6671C28.8709 37.6671 26.3329 35.1304 26.3329 32C26.3329 28.8696 28.8696 26.3329 32 26.3329C35.1304 26.3329 37.6671 28.8696 37.6671 32C37.6671 35.1304 35.1291 37.6671 32 37.6671ZM43.1151 22.9249C43.1151 24.0512 42.2013 24.9649 41.0751 24.9649C39.9488 24.9649 39.0351 24.0512 39.0351 22.9249C39.0351 21.7987 39.9488 20.8849 41.0751 20.8849C42.2013 20.8849 43.1151 21.7987 43.1151 22.9249Z" fill="white"/>
</svg>
