<svg width="68" height="68" viewBox="0 0 68 68" fill="none" xmlns="http://www.w3.org/2000/svg">
<circle cx="32" cy="32" r="32" fill="#F00075"/>
<path d="M32.0012 18.0629C36.5411 18.0629 37.079 18.0801 38.8708 18.1625C40.5284 18.2382 41.4289 18.5145 42.028 18.7482C42.8209 19.0564 43.3881 19.4256 43.9831 20.0207C44.5782 20.6157 44.9461 21.1815 45.2542 21.9758C45.4867 22.5748 45.7643 23.4754 45.84 25.133C45.9223 26.9261 45.9396 27.464 45.9396 32.0026C45.9396 36.5411 45.9223 37.0803 45.84 38.8721C45.7643 40.5297 45.488 41.4303 45.2542 42.0293C44.9461 42.8222 44.5768 43.3894 43.9831 43.9844C43.3881 44.5795 42.8222 44.9474 42.028 45.2555C41.4289 45.488 40.5284 45.7656 38.8708 45.8413C37.0777 45.9236 36.5411 45.9409 32.0012 45.9409C27.4614 45.9409 26.9234 45.9236 25.1317 45.8413C23.474 45.7656 22.5735 45.4893 21.9745 45.2555C21.1815 44.9474 20.6144 44.5782 20.0193 43.9844C19.4243 43.3894 19.0564 42.8236 18.7482 42.0293C18.5158 41.4303 18.2382 40.5297 18.1625 38.8721C18.0801 37.079 18.0629 36.5411 18.0629 32.0026C18.0629 27.464 18.0801 26.9248 18.1625 25.133C18.2382 23.4754 18.5145 22.5748 18.7482 21.9758C19.0564 21.1829 19.4256 20.6157 20.0193 20.0207C20.6131 19.4256 21.1802 19.0577 21.9745 18.7482C22.5735 18.5158 23.474 18.2382 25.1317 18.1625C26.9234 18.0801 27.4614 18.0629 32.0012 18.0629ZM32.0012 15C27.3843 15 26.8052 15.0199 24.9922 15.1023C23.1818 15.1846 21.9466 15.4728 20.8641 15.8926C19.7457 16.3269 18.7974 16.9087 17.853 17.853C16.9087 18.7974 16.3269 19.7471 15.8926 20.8654C15.4728 21.9466 15.1846 23.1818 15.1023 24.9922C15.0199 26.8052 15 27.3843 15 32.0012C15 36.6181 15.0199 37.1972 15.1023 39.0103C15.1846 40.8193 15.4728 42.0559 15.8926 43.137C16.3269 44.2554 16.9087 45.2037 17.853 46.1481C18.7987 47.0938 19.7457 47.6742 20.8641 48.1086C21.9453 48.5283 23.1818 48.8165 24.9909 48.8989C26.8052 48.9825 27.3843 49.0025 32.0012 49.0025C36.6181 49.0025 37.1972 48.9825 39.0103 48.9002C40.8193 48.8178 42.0559 48.5296 43.137 48.1099C44.2554 47.6756 45.2037 47.0938 46.1481 46.1494C47.0938 45.2037 47.6742 44.2567 48.1086 43.1384C48.5283 42.0572 48.8165 40.8206 48.8989 39.0116C48.9812 37.1986 49.0011 36.6195 49.0011 32.0026C49.0011 27.3857 48.9812 26.8066 48.8989 24.9935C48.8165 23.1845 48.5283 21.9479 48.1086 20.8668C47.6742 19.7484 47.0925 18.8 46.1481 17.8557C45.2037 16.9113 44.2554 16.3269 43.137 15.8926C42.0559 15.4728 40.8193 15.1846 39.0103 15.1023C37.1972 15.0199 36.6181 15 32.0012 15ZM32.0012 23.2708C27.1798 23.2708 23.2708 27.1798 23.2708 32.0012C23.2708 36.8227 27.1798 40.7316 32.0012 40.7316C36.8227 40.7316 40.7316 36.8227 40.7316 32.0012C40.7316 27.1798 36.8227 23.2708 32.0012 23.2708ZM32.0012 37.6687C28.8719 37.6687 26.3337 35.1318 26.3337 32.0012C26.3337 28.8706 28.8706 26.3337 32.0012 26.3337C35.1318 26.3337 37.6687 28.8706 37.6687 32.0012C37.6687 35.1318 35.1305 37.6687 32.0012 37.6687ZM43.1171 22.9255C43.1171 24.0518 42.2033 24.9656 41.077 24.9656C39.9506 24.9656 39.0368 24.0518 39.0368 22.9255C39.0368 21.7992 39.9506 20.8853 41.077 20.8853C42.2033 20.8853 43.1171 21.7992 43.1171 22.9255Z" fill="white"/>
<circle cx="50" cy="50" r="16" fill="#AF0055" stroke="white" stroke-width="4"/>
<path fill-rule="evenodd" clip-rule="evenodd" d="M49.0001 42C49.0001 41.4477 49.4478 41 50 41C50.5523 41 51 41.4477 51 42V43.0067C53.3507 43.0765 54.8241 43.6879 55.7382 44.4191C56.2197 44.8043 56.5217 45.2044 56.7073 45.531C56.7995 45.6933 56.862 45.8357 56.9036 45.9471C56.9244 46.0028 56.94 46.0508 56.9515 46.0897C56.9572 46.1092 56.962 46.1264 56.9658 46.1412L56.971 46.1617L56.9731 46.1705L56.974 46.1746L56.9745 46.1765C56.975 46.1789 56.971 46.1617 56.9749 46.1784C57.0973 46.7169 56.76 47.2527 56.2214 47.3751C55.6937 47.4951 55.1686 47.1735 55.0326 46.6538L55.03 46.6467C55.0226 46.6268 55.0041 46.5817 54.9685 46.519C54.8984 46.3956 54.7573 46.1957 54.4888 45.9809C53.9966 45.5871 52.988 45.0758 51 45.0076V49.0148C52.9405 49.0756 54.3586 49.3299 55.3321 49.879C55.9363 50.2199 56.3791 50.6784 56.6551 51.2568C56.9218 51.8156 56.9998 52.4175 56.9998 53C56.9998 54.0698 56.5427 55.1524 55.3298 55.9105C54.355 56.5198 52.9454 56.8864 51 56.9775V58C51 58.5523 50.5523 59 50 59C49.4478 59 49.0001 58.5523 49.0001 58V56.9727C46.7206 56.844 45.2764 56.276 44.3634 55.6064C43.8443 55.2257 43.5174 54.8265 43.3155 54.4933C43.191 54.288 43.0836 54.065 43.0271 53.8303L43.0261 53.8259L43.0256 53.8237C43.0249 53.8209 43.0351 53.8621 43.0251 53.8216C42.9027 53.2831 43.24 52.7473 43.7786 52.6249C44.3036 52.5055 44.826 52.8232 44.9653 53.3382L44.966 53.3401C44.9721 53.3556 44.9896 53.397 45.0258 53.4567C45.0966 53.5735 45.247 53.7743 45.546 53.9936C46.0599 54.3704 47.0744 54.845 49.0001 54.9692V50.9825C47.0408 50.9102 45.6226 50.6117 44.6496 50.0354C44.0557 49.6836 43.6222 49.2255 43.3492 48.6678C43.0824 48.1227 43.0002 47.5466 43.0002 47C43.0002 46.393 43.1402 45.7891 43.4863 45.2392C43.8305 44.6922 44.3387 44.2622 44.9753 43.9354C45.943 43.4386 47.2726 43.1471 49.0001 43.0434V42ZM49.0001 45.0476C47.4928 45.1479 46.5053 45.398 45.8886 45.7146C45.5026 45.9128 45.2948 46.1203 45.1789 46.3045C45.0647 46.4859 45.0002 46.707 45.0002 47C45.0002 47.3534 45.0543 47.6023 45.1455 47.7885C45.2304 47.962 45.3765 48.1414 45.6688 48.3146C46.2154 48.6383 47.2163 48.9081 49.0001 48.9807V45.0476ZM51 54.975C52.7058 54.8854 53.7067 54.5665 54.2699 54.2145C54.8569 53.8476 54.9998 53.4302 54.9998 53C54.9998 52.5825 54.9414 52.3094 54.8502 52.1182C54.7683 51.9466 54.6316 51.7801 54.3495 51.621C53.8039 51.3132 52.8033 51.0784 51 51.0162V54.975Z" fill="white"/>
</svg>
