<svg width="67" height="67" viewBox="0 0 67 67" fill="none" xmlns="http://www.w3.org/2000/svg">
<circle cx="32" cy="32" r="32" fill="#0077B5"/>
<path d="M41.3333 16H22.6667C18.9853 16 16 18.9853 16 22.6667V41.3333C16 45.0147 18.9853 48 22.6667 48H41.3333C45.016 48 48 45.0147 48 41.3333V22.6667C48 18.9853 45.016 16 41.3333 16ZM26.6667 41.3333H22.6667V26.6667H26.6667V41.3333ZM24.6667 24.976C23.3787 24.976 22.3333 23.9227 22.3333 22.624C22.3333 21.3253 23.3787 20.272 24.6667 20.272C25.9547 20.272 27 21.3253 27 22.624C27 23.9227 25.956 24.976 24.6667 24.976ZM42.6667 41.3333H38.6667V33.8613C38.6667 29.3707 33.3333 29.7107 33.3333 33.8613V41.3333H29.3333V26.6667H33.3333V29.02C35.1947 25.572 42.6667 25.3173 42.6667 32.3213V41.3333Z" fill="white"/>
<circle cx="50" cy="50" r="15.5" fill="#005784" stroke="white" stroke-width="3"/>
<path fill-rule="evenodd" clip-rule="evenodd" d="M56.7432 43.5858C55.9625 42.8051 54.6969 42.8047 53.9157 43.5849L52.0354 45.4628L55.5464 48.9738L57.4217 47.0759C58.1948 46.2935 58.1911 45.0337 57.4133 44.2559L56.7432 43.5858ZM54.1421 50.3949L50.6218 46.8746L43.5867 53.9008C43.1987 54.2883 42.9868 54.8181 43.0006 55.3663L43.0567 57.591C43.0635 57.8622 43.2853 58.0784 43.5565 58.0784H45.7143C46.2488 58.0784 46.7612 57.8644 47.1369 57.4842L54.1421 50.3949Z" fill="white"/>
</svg>
