<svg width="64" height="64" viewBox="0 0 64 64" fill="none" xmlns="http://www.w3.org/2000/svg">
<circle cx="32" cy="32" r="32" fill="#0077B5"/>
<path d="M41.3333 16H22.6667C18.9853 16 16 18.9853 16 22.6667V41.3333C16 45.0147 18.9853 48 22.6667 48H41.3333C45.016 48 48 45.0147 48 41.3333V22.6667C48 18.9853 45.016 16 41.3333 16ZM26.6667 41.3333H22.6667V26.6667H26.6667V41.3333ZM24.6667 24.976C23.3787 24.976 22.3333 23.9227 22.3333 22.624C22.3333 21.3253 23.3787 20.272 24.6667 20.272C25.9547 20.272 27 21.3253 27 22.624C27 23.9227 25.956 24.976 24.6667 24.976ZM42.6667 41.3333H38.6667V33.8613C38.6667 29.3707 33.3333 29.7107 33.3333 33.8613V41.3333H29.3333V26.6667H33.3333V29.02C35.1947 25.572 42.6667 25.3173 42.6667 32.3213V41.3333Z" fill="white"/>
</svg>
