<svg width="64" height="64" viewBox="0 0 64 64" fill="none" xmlns="http://www.w3.org/2000/svg">
<path d="M32 64C49.6731 64 64 49.6731 64 32C64 14.3269 49.6731 0 32 0C14.3269 0 0 14.3269 0 32C0 49.6731 14.3269 64 32 64Z" fill="#DA162B"/>
<path d="M24.7113 50.9189C24.4916 48.998 24.3119 46.0365 24.7912 43.9355C25.2307 42.0345 27.6276 31.8494 27.6276 31.8494C27.6276 31.8494 26.9085 30.3887 26.9085 28.2476C26.9085 24.8659 28.866 22.3447 31.3028 22.3447C33.3802 22.3447 34.3789 23.9054 34.3789 25.7664C34.3789 27.8474 33.0606 30.969 32.3615 33.8704C31.7822 36.2916 33.5799 38.2726 35.9568 38.2726C40.2713 38.2726 43.587 33.7103 43.587 27.1471C43.587 21.3242 39.4124 17.2621 33.4401 17.2621C26.529 17.2621 22.4742 22.4447 22.4742 27.8074C22.4742 29.8884 23.2732 32.1296 24.2719 33.3502C24.4717 33.5903 24.4916 33.8104 24.4317 34.0505C24.2519 34.8109 23.8325 36.4717 23.7526 36.8119C23.6527 37.2521 23.393 37.3522 22.9336 37.1321C19.8976 35.7113 18 31.2891 18 27.7073C18 20.0435 23.5528 13 34.0393 13C42.4485 13 49 19.003 49 27.047C49 35.4312 43.7268 42.1746 36.4162 42.1746C33.9594 42.1746 31.6424 40.8939 30.8634 39.3732C30.8634 39.3732 29.645 44.0155 29.3454 45.1561C28.8061 47.2771 27.328 49.9184 26.3293 51.5393L25.2045 53L24.7113 50.9189Z" fill="white"/>
</svg>
