<svg width="64" height="64" viewBox="0 0 64 64" fill="none" xmlns="http://www.w3.org/2000/svg">
<path d="M32 64C14.3296 64 0 49.6704 0 32C0 14.3296 14.3296 0 32 0C49.6704 0 64 14.3296 64 32C64 49.6704 49.6704 64 32 64Z" fill="#FF4500"/>
<path d="M38.5272 39.5798C36.8904 39.5798 35.5559 38.2794 35.5559 36.6844C35.5559 35.0894 36.8904 33.789 38.5272 33.789C40.164 33.789 41.4986 35.0894 41.4986 36.6844C41.4986 38.2794 40.164 39.5798 38.5272 39.5798ZM39.0519 44.3314C37.0216 46.3043 33.1378 46.4599 31.9971 46.4599C30.8565 46.4599 26.967 46.3043 24.9424 44.3314C24.6401 44.0369 24.6401 43.5645 24.9424 43.27C25.2446 42.9754 25.7294 42.9754 26.0317 43.27C27.3092 44.5148 30.041 44.9594 31.9971 44.9594C33.9476 44.9594 36.6851 44.5148 37.9626 43.27C38.2649 42.9754 38.7497 42.9754 39.0519 43.27C39.3485 43.5645 39.3485 44.0369 39.0519 44.3314ZM22.4843 36.6844C22.4843 35.0894 23.8188 33.789 25.4557 33.789C27.0925 33.789 28.427 35.0894 28.427 36.6844C28.427 38.2794 27.0925 39.5798 25.4557 39.5798C23.8188 39.5798 22.4843 38.2794 22.4843 36.6844ZM51 33.789C51 31.5493 49.1408 29.7376 46.8424 29.7376C45.7189 29.7376 44.7037 30.1711 43.9566 30.8769C41.1165 28.8762 37.1984 27.5869 32.8355 27.4368L34.729 18.7506L40.9169 20.0344C40.991 21.5682 42.2799 22.7908 43.8711 22.7908C45.5136 22.7908 46.8424 21.496 46.8424 19.8954C46.8424 18.2949 45.5136 17 43.8711 17C42.7019 17 41.7039 17.6613 41.2191 18.6172L34.3069 17.1834C34.113 17.1445 33.9134 17.1778 33.748 17.2834C33.5826 17.389 33.4686 17.5502 33.4286 17.7391L31.3527 27.2701C31.3413 27.3257 31.3527 27.3757 31.3527 27.4313C26.9099 27.5424 22.9178 28.8373 20.032 30.8658C19.2849 30.1655 18.2754 29.7376 17.1576 29.7376C14.8592 29.7376 13 31.5549 13 33.789C13 35.434 14.0095 36.8511 15.4581 37.4847C15.3953 37.8848 15.3611 38.2961 15.3611 38.7129C15.3611 44.9483 22.8094 50 31.9971 50C41.1849 50 48.6332 44.9483 48.6332 38.7129C48.6332 38.3016 48.599 37.8959 48.5362 37.4958C49.9791 36.8622 51 35.4451 51 33.789Z" fill="white"/>
</svg>
