<svg width="64" height="64" viewBox="0 0 64 64" fill="none" xmlns="http://www.w3.org/2000/svg">
<circle cx="32" cy="32" r="32" fill="#F43B46"/>
<path fill-rule="evenodd" clip-rule="evenodd" d="M29.0406 46.0812C32.7214 46.0812 36.1146 44.8403 38.8215 42.7551L45.0665 49C45.8475 49.7811 47.1138 49.7811 47.8949 49L48 48.8949C48.781 48.1138 48.7811 46.8475 48 46.0665L41.7551 39.8215C43.8403 37.1146 45.0812 33.7214 45.0812 30.0406C45.0812 21.1816 37.8996 14 29.0406 14C20.1816 14 13 21.1816 13 30.0406C13 38.8996 20.1816 46.0812 29.0406 46.0812ZM39.0812 30.0406C39.0812 35.5859 34.5859 40.0812 29.0406 40.0812C23.4953 40.0812 19 35.5859 19 30.0406C19 24.4953 23.4953 20 29.0406 20C34.5859 20 39.0812 24.4953 39.0812 30.0406Z" fill="white"/>
</svg>
