<svg width="64" height="64" viewBox="0 0 64 64" fill="none" xmlns="http://www.w3.org/2000/svg">
<circle cx="32" cy="32" r="32" fill="black"/>
<path d="M42.0108 18.3785C39.321 15.2186 39.6866 12 39.6866 12H37.8338H37.8257H32.9499V38.5651C32.9499 39.4989 32.958 40.3994 32.6493 41.2999C32.1618 42.7423 31.1135 44.0348 29.7158 44.6101C27.6193 45.4689 25.9858 45.3771 24.0274 44.0513C23.5398 43.701 23.1172 43.276 22.7677 42.7922C22.7633 42.7898 22.7589 42.7872 22.7545 42.7848C21.849 41.519 21.6545 40.0467 21.6626 38.9234C21.8982 36.8473 22.6947 35.6882 24.1899 34.4958C26.3353 32.8867 29.0087 33.7954 29.0087 33.7954V26.8334C28.3667 26.7333 27.7166 26.6917 27.0665 26.7083V26.7C25.6038 26.7251 24.1571 27.0335 22.8083 27.6173C21.565 28.1093 20.4029 28.818 19.3789 29.7019C18.2248 30.7276 17.2416 31.9533 16.494 33.3208C16.2095 33.8211 15.1368 35.8305 15.0068 39.0907C14.9337 40.9333 15.4699 42.8512 15.73 43.6431V43.6514C15.8925 44.11 16.5262 45.7109 17.5666 47.0701C17.8672 47.4621 18.1923 47.8372 18.5337 48.1958C19.1352 48.8212 19.7934 49.3882 20.5004 49.8885C23.759 52.1482 27.3754 51.9979 27.3754 51.9979C28.0011 51.9729 30.0978 51.9979 32.4787 50.8472C35.1197 49.5715 36.6233 47.6704 36.6233 47.6704C36.8508 47.3868 38.086 45.9778 38.8825 43.8432C39.4921 42.209 39.6952 40.2495 39.6952 39.4658V25.3742C39.7766 25.4243 40.8654 26.1581 40.8654 26.1581C40.8654 26.1581 42.4337 27.1837 44.8799 27.8508C46.6352 28.326 49 28.426 49 28.426V21.6054C48.553 21.6556 47.8623 21.6054 47.0497 21.4136V21.4053C46.2615 21.2134 45.4894 20.9301 44.7663 20.5547C43.3521 19.8292 42.2553 18.6619 42.0439 18.4201L42.0108 18.3785Z" fill="white"/>
</svg>
