<svg width="64" height="64" viewBox="0 0 64 64" fill="none" xmlns="http://www.w3.org/2000/svg">
<circle cx="32" cy="32" r="32" fill="#1DA1F2"/>
<path d="M26.3213 48C39.9062 48 47.3366 36.4571 47.3366 26.4472C47.3366 26.1193 47.3366 25.7929 47.315 25.468C48.7606 24.3957 50.0084 23.068 51 21.547C49.652 22.1596 48.222 22.5614 46.7578 22.7388C48.2996 21.7922 49.4536 20.3032 50.005 18.5491C48.5551 19.4314 46.9689 20.0533 45.3149 20.3877C44.2013 19.1733 42.7284 18.3692 41.1243 18.0997C39.5201 17.8303 37.8741 18.1105 36.441 18.8971C35.0078 19.6838 33.8673 20.9329 33.1961 22.4512C32.5249 23.9695 32.3603 25.6724 32.7278 27.2963C29.7913 27.1454 26.9186 26.3627 24.2961 24.9993C21.6737 23.6358 19.3601 21.722 17.5056 19.382C16.5611 21.0496 16.2718 23.0237 16.6966 24.9023C17.1215 26.781 18.2285 28.4229 19.7923 29.4939C18.6169 29.4581 17.4671 29.1329 16.44 28.5457C16.44 28.5768 16.44 28.6092 16.44 28.6417C16.4405 30.3906 17.0308 32.0855 18.1108 33.4389C19.1908 34.7923 20.6941 35.7209 22.3656 36.0672C21.2782 36.3714 20.1373 36.4158 19.0306 36.1972C19.5025 37.7023 20.4214 39.0185 21.6587 39.9617C22.8959 40.9049 24.3897 41.428 25.931 41.4577C23.3156 43.5657 20.0847 44.7101 16.7582 44.7067C16.1706 44.7055 15.5835 44.669 15 44.5974C18.3777 46.8204 22.3079 47.9996 26.3213 47.9941" fill="white"/>
</svg>
