<svg width="67" height="67" viewBox="0 0 67 67" fill="none" xmlns="http://www.w3.org/2000/svg">
<circle cx="32" cy="32" r="32" fill="#FF0000"/>
<path fill-rule="evenodd" clip-rule="evenodd" d="M46.0645 19.7758C47.613 20.2035 48.8341 21.4616 49.2473 23.0594C50 25.9571 50 32 50 32C50 32 50 38.0429 49.2473 40.9406C48.8341 42.5384 47.613 43.7965 46.0645 44.2242C43.2582 45 32 45 32 45C32 45 20.7418 45 17.9355 44.2242C16.387 43.7965 15.1659 42.5384 14.7527 40.9406C14 38.0429 14 32 14 32C14 32 14 25.9571 14.7527 23.0594C15.1659 21.4616 16.387 20.2035 17.9355 19.7758C20.7418 19 32 19 32 19C32 19 43.2582 19 46.0645 19.7758ZM38.7331 32L29.0902 37.2V26.8L38.7331 32Z" fill="white"/>
<path d="M50 65.5C58.5604 65.5 65.5 58.5604 65.5 50C65.5 41.4396 58.5604 34.5 50 34.5C41.4396 34.5 34.5 41.4396 34.5 50C34.5 58.5604 41.4396 65.5 50 65.5Z" fill="#D00000" stroke="white" stroke-width="3"/>
<mask id="path-5-outside-1" maskUnits="userSpaceOnUse" x="41.0035" y="40" width="18" height="9" fill="black">
<rect fill="white" x="41.0035" y="40" width="18" height="9"/>
<path fill-rule="evenodd" clip-rule="evenodd" d="M54.6882 42.2089C55.2043 42.324 55.6114 42.6627 55.7491 43.0929C55.9396 43.6851 55.9854 44.7654 55.9965 45.2514C55.6342 45.2025 55.2474 45.1691 54.8909 45.1436C54.2063 45.0946 53.4324 45.0628 52.716 45.0419C51.9965 45.0209 51.3189 45.0105 50.8223 45.0052C50.5736 45.0026 50.3693 45.0013 50.2266 45.0007L50.0608 45.0001L49.9998 45L49.9392 45.0001L49.7734 45.0007C49.6307 45.0013 49.4264 45.0026 49.1777 45.0052C48.6811 45.0105 48.0035 45.0209 47.284 45.0419C46.5676 45.0628 45.7937 45.0946 45.1091 45.1436C44.7526 45.1691 44.3658 45.2025 44.0035 45.2514C44.0146 44.7654 44.0604 43.6851 44.2509 43.0929C44.3886 42.6627 44.7957 42.324 45.3118 42.2089C46.2473 42 50 42 50 42C50 42 53.7527 42 54.6882 42.2089Z"/>
</mask>
<path fill-rule="evenodd" clip-rule="evenodd" d="M54.6882 42.2089C55.2043 42.324 55.6114 42.6627 55.7491 43.0929C55.9396 43.6851 55.9854 44.7654 55.9965 45.2514C55.6342 45.2025 55.2474 45.1691 54.8909 45.1436C54.2063 45.0946 53.4324 45.0628 52.716 45.0419C51.9965 45.0209 51.3189 45.0105 50.8223 45.0052C50.5736 45.0026 50.3693 45.0013 50.2266 45.0007L50.0608 45.0001L49.9998 45L49.9392 45.0001L49.7734 45.0007C49.6307 45.0013 49.4264 45.0026 49.1777 45.0052C48.6811 45.0105 48.0035 45.0209 47.284 45.0419C46.5676 45.0628 45.7937 45.0946 45.1091 45.1436C44.7526 45.1691 44.3658 45.2025 44.0035 45.2514C44.0146 44.7654 44.0604 43.6851 44.2509 43.0929C44.3886 42.6627 44.7957 42.324 45.3118 42.2089C46.2473 42 50 42 50 42C50 42 53.7527 42 54.6882 42.2089Z" fill="white"/>
<path d="M50 47L50 46H50V47ZM56.0403 46.2679C55.1422 46.1283 53.6053 46.064 52.351 46.0323C51.7114 46.0162 51.1245 46.0081 50.6977 46.004C50.4841 46.002 50.3103 46.001 50.1896 46.0005C50.1292 46.0003 50.0822 46.0001 50.05 46.0001C50.0339 46 50.0216 46 50.0132 46C50.009 46 50.0058 46 50.0036 46C50.0025 46 50.0016 46 50.001 46C50.0007 46 50.0005 46 50.0003 46C50.0002 46 50.0002 46 50.0001 46C50 46 50 46 50 47C50 48 50 48 50 48C50 48 50 48 50.0001 48C50.0002 48 50.0003 48 50.0005 48C50.001 48 50.0017 48 50.0026 48C50.0045 48 50.0074 48 50.0112 48C50.019 48 50.0307 48 50.046 48.0001C50.0768 48.0001 50.1224 48.0002 50.1812 48.0005C50.2988 48.001 50.4691 48.002 50.6787 48.004C51.0983 48.0079 51.6743 48.0159 52.3005 48.0317C53.5778 48.064 54.9842 48.1277 55.7331 48.2441L56.0403 46.2679ZM50 47C50 46 50 46 49.9999 46C49.9999 46 49.9998 46 49.9997 46C49.9995 46 49.9993 46 49.999 46C49.9984 46 49.9975 46 49.9964 46C49.9942 46 49.991 46 49.9868 46C49.9784 46 49.9661 46 49.95 46.0001C49.9178 46.0001 49.8708 46.0003 49.8104 46.0005C49.6897 46.001 49.5159 46.002 49.3024 46.004C48.8755 46.0081 48.2886 46.0162 47.649 46.0323C46.3947 46.064 44.8578 46.1283 43.9597 46.2679L44.2669 48.2441C45.0158 48.1277 46.4222 48.064 47.6995 48.0317C48.3257 48.0159 48.9017 48.0079 49.3213 48.004C49.5309 48.002 49.7012 48.001 49.8188 48.0005C49.8776 48.0002 49.9232 48.0001 49.954 48.0001C49.9694 48 49.981 48 49.9888 48C49.9926 48 49.9955 48 49.9974 48C49.9983 48 49.999 48 49.9995 48C49.9997 48 49.9998 48 49.9999 48C50 48 50 48 50 48C50 48 50 48 50 47ZM55.7491 43.0929L53.8443 43.7028L53.8451 43.7052L55.7491 43.0929ZM54.6882 42.2089L54.2524 44.1608L54.2527 44.1609L54.6882 42.2089ZM55.9965 45.2514L55.7291 47.2334L58.0492 47.5465L57.996 45.2059L55.9965 45.2514ZM54.8909 45.1436L54.748 47.1385L54.748 47.1385L54.8909 45.1436ZM52.716 45.0419L52.6577 47.041L52.6577 47.041L52.716 45.0419ZM50.8223 45.0052L50.8433 43.0053L50.8433 43.0053L50.8223 45.0052ZM50.2266 45.0007L50.2359 43.0007L50.2336 43.0007L50.2266 45.0007ZM50.0608 45.0001L50.0678 43.0001L50.0636 43.0001L50.0608 45.0001ZM49.9998 45L50.0026 43L49.997 43L49.9998 45ZM49.9392 45.0001L49.9364 43.0001L49.9322 43.0001L49.9392 45.0001ZM49.7734 45.0007L49.7664 43.0007L49.7642 43.0007L49.7734 45.0007ZM49.1777 45.0052L49.1567 43.0053L49.1567 43.0053L49.1777 45.0052ZM47.284 45.0419L47.3423 47.041L47.3423 47.041L47.284 45.0419ZM45.1091 45.1436L45.252 47.1385L45.252 47.1385L45.1091 45.1436ZM44.0035 45.2514L42.004 45.2059L41.9508 47.5465L44.2709 47.2334L44.0035 45.2514ZM44.2509 43.0929L46.1549 43.7052L46.1557 43.7028L44.2509 43.0929ZM45.3118 42.2089L45.7474 44.1609L45.7477 44.1608L45.3118 42.2089ZM57.6538 42.483C57.2584 41.2479 56.1906 40.4949 55.1237 40.2569L54.2527 44.1609C54.2166 44.1528 54.1541 44.1308 54.0805 44.0695C54.0069 44.0082 53.9045 43.8908 53.8443 43.7028L57.6538 42.483ZM57.996 45.2059C57.9899 44.9391 57.9742 44.4984 57.9319 44.0316C57.8932 43.6042 57.8201 42.9998 57.653 42.4806L53.8451 43.7052C53.8686 43.7782 53.9136 44.0101 53.9482 44.3923C53.9793 44.7352 53.992 45.0777 53.997 45.2969L57.996 45.2059ZM54.748 47.1385C55.0885 47.1629 55.4276 47.1927 55.7291 47.2334L56.2639 43.2693C55.8409 43.2123 55.4063 43.1754 55.0338 43.1487L54.748 47.1385ZM52.6577 47.041C53.3611 47.0615 54.1035 47.0923 54.748 47.1385L55.0338 43.1487C54.3091 43.0968 53.5038 43.064 52.7743 43.0427L52.6577 47.041ZM50.8013 47.0051C51.2899 47.0103 51.9543 47.0205 52.6577 47.041L52.7743 43.0427C52.0386 43.0213 51.348 43.0106 50.8433 43.0053L50.8013 47.0051ZM50.2174 47.0006C50.3567 47.0013 50.557 47.0026 50.8013 47.0051L50.8433 43.0053C50.5902 43.0027 50.3819 43.0014 50.2359 43.0007L50.2174 47.0006ZM50.0539 47.0001L50.2197 47.0007L50.2336 43.0007L50.0678 43.0001L50.0539 47.0001ZM49.997 47L50.0581 47.0001L50.0636 43.0001L50.0026 43L49.997 47ZM49.942 47.0001L50.0026 47L49.997 43L49.9364 43.0001L49.942 47.0001ZM49.7803 47.0007L49.9461 47.0001L49.9322 43.0001L49.7664 43.0007L49.7803 47.0007ZM49.1987 47.0051C49.443 47.0026 49.6433 47.0013 49.7826 47.0006L49.7642 43.0007C49.6181 43.0014 49.4099 43.0027 49.1567 43.0053L49.1987 47.0051ZM47.3423 47.041C48.0457 47.0205 48.7101 47.0103 49.1987 47.0051L49.1567 43.0053C48.652 43.0106 47.9614 43.0213 47.2257 43.0427L47.3423 47.041ZM45.252 47.1385C45.8965 47.0923 46.6389 47.0615 47.3423 47.041L47.2257 43.0427C46.4962 43.064 45.6909 43.0968 44.9663 43.1487L45.252 47.1385ZM44.2709 47.2334C44.5724 47.1927 44.9115 47.1629 45.252 47.1385L44.9663 43.1487C44.5937 43.1754 44.1591 43.2123 43.7361 43.2693L44.2709 47.2334ZM42.347 42.4806C42.18 42.9998 42.1068 43.6042 42.0681 44.0316C42.0258 44.4984 42.0101 44.9391 42.004 45.2059L46.003 45.2968C46.008 45.0777 46.0207 44.7352 46.0518 44.3923C46.0864 44.0101 46.1314 43.7782 46.1549 43.7052L42.347 42.4806ZM44.8763 40.2569C43.8094 40.4949 42.7416 41.2479 42.3462 42.483L46.1557 43.7028C46.0955 43.8908 45.9931 44.0082 45.9195 44.0695C45.8459 44.1308 45.7834 44.1528 45.7474 44.1609L44.8763 40.2569ZM50 42C50 40 49.9999 40 49.9999 40C49.9998 40 49.9997 40 49.9996 40C49.9994 40 49.9992 40 49.9989 40C49.9983 40 49.9975 40 49.9964 40C49.9943 40 49.9913 40 49.9874 40C49.9797 40 49.9685 40 49.9539 40.0001C49.9249 40.0001 49.8828 40.0002 49.8291 40.0004C49.7218 40.0008 49.5682 40.0017 49.3812 40.0033C49.0079 40.0067 48.4985 40.0133 47.9572 40.0267C47.4187 40.04 46.8351 40.0604 46.3177 40.0918C45.8483 40.1203 45.2868 40.1652 44.876 40.2569L45.7477 44.1608C45.7417 44.1621 45.7586 44.1582 45.8065 44.1513C45.852 44.1447 45.9123 44.1371 45.9888 44.1292C46.1427 44.1132 46.3355 44.0981 46.5603 44.0844C47.0096 44.0571 47.5397 44.0383 48.0562 44.0255C48.57 44.0128 49.0572 44.0064 49.4168 44.0032C49.5963 44.0016 49.7432 44.0008 49.8447 44.0004C49.8955 44.0002 49.9349 44.0001 49.9613 44C49.9745 44 49.9845 44 49.991 44C49.9943 44 49.9967 44 49.9982 44C49.9989 44 49.9994 44 49.9998 44C49.9999 44 50 44 50 44C50.0001 44 50.0001 44 50.0001 44C50 44 50 44 50 42ZM55.124 40.2569C54.7132 40.1652 54.1517 40.1203 53.6823 40.0918C53.1649 40.0604 52.5814 40.04 52.0428 40.0267C51.5015 40.0133 50.9921 40.0067 50.6188 40.0033C50.4318 40.0017 50.2782 40.0008 50.1709 40.0004C50.1172 40.0002 50.0751 40.0001 50.0461 40.0001C50.0316 40 50.0203 40 50.0126 40C50.0087 40 50.0057 40 50.0036 40C50.0026 40 50.0017 40 50.0011 40C50.0008 40 50.0006 40 50.0004 40C50.0003 40 50.0002 40 50.0002 40C50.0001 40 50 40 50 42C50 44 50 44 49.9999 44C49.9999 44 49.9999 44 50 44C50 44 50.0001 44 50.0002 44C50.0006 44 50.0011 44 50.0018 44C50.0034 44 50.0058 44 50.009 44C50.0155 44 50.0255 44 50.0387 44C50.0651 44.0001 50.1045 44.0002 50.1553 44.0004C50.2568 44.0008 50.4037 44.0016 50.5832 44.0032C50.9428 44.0064 51.43 44.0128 51.9438 44.0255C52.4604 44.0383 52.9904 44.0571 53.4397 44.0844C53.6645 44.0981 53.8573 44.1132 54.0112 44.1292C54.0877 44.1371 54.148 44.1447 54.1935 44.1513C54.2414 44.1582 54.2583 44.1621 54.2524 44.1608L55.124 40.2569Z" fill="#D00000" mask="url(#path-5-outside-1)"/>
<path fill-rule="evenodd" clip-rule="evenodd" d="M56.2509 47.3282C56.9391 47.5092 57.4818 48.0415 57.6655 48.7174C58 49.9434 58 52.5 58 52.5C58 52.5 58 55.0566 57.6655 56.2826C57.4818 56.9585 56.9391 57.4908 56.2509 57.6718C55.0036 58 50 58 50 58C50 58 44.9964 58 43.7491 57.6718C43.0609 57.4908 42.5182 56.9585 42.3345 56.2826C42 55.0566 42 52.5 42 52.5C42 52.5 42 49.9434 42.3345 48.7174C42.5182 48.0415 43.0609 47.5092 43.7491 47.3282C44.9964 47 50 47 50 47C50 47 55.0036 47 56.2509 47.3282ZM48.6923 54.7116C48.363 54.8488 48 54.6068 48 54.25V50.75C48 50.3932 48.363 50.1513 48.6923 50.2885L52.8923 52.0385C53.3026 52.2094 53.3026 52.7906 52.8923 52.9616L48.6923 54.7116Z" fill="white"/>
</svg>
