<svg width="67" height="67" viewBox="0 0 67 67" fill="none" xmlns="http://www.w3.org/2000/svg">
<circle cx="32" cy="32" r="32" fill="#FF0000"/>
<path fill-rule="evenodd" clip-rule="evenodd" d="M46.0645 19.7758C47.613 20.2035 48.8341 21.4616 49.2473 23.0594C50 25.9571 50 32 50 32C50 32 50 38.0429 49.2473 40.9406C48.8341 42.5384 47.613 43.7965 46.0645 44.2242C43.2582 45 32 45 32 45C32 45 20.7418 45 17.9355 44.2242C16.387 43.7965 15.1659 42.5384 14.7527 40.9406C14 38.0429 14 32 14 32C14 32 14 25.9571 14.7527 23.0594C15.1659 21.4616 16.387 20.2035 17.9355 19.7758C20.7418 19 32 19 32 19C32 19 43.2582 19 46.0645 19.7758ZM38.7331 32L29.0902 37.2V26.8L38.7331 32Z" fill="white"/>
<circle cx="50" cy="50" r="15.5" fill="#D00000" stroke="white" stroke-width="3"/>
<path fill-rule="evenodd" clip-rule="evenodd" d="M49.0001 42C49.0001 41.4477 49.4478 41 50 41C50.5523 41 51 41.4477 51 42V43.0067C53.3507 43.0765 54.8241 43.6879 55.7382 44.4191C56.2197 44.8043 56.5217 45.2044 56.7073 45.531C56.8214 45.7319 56.9212 45.9483 56.974 46.1746L56.9745 46.1765C56.975 46.1789 56.9658 46.1412 56.9749 46.1784C57.0973 46.7169 56.76 47.2527 56.2214 47.3751C55.6937 47.4951 55.1686 47.1735 55.0326 46.6538L55.03 46.6467C55.0226 46.6268 55.0041 46.5817 54.9685 46.519C54.8984 46.3956 54.7573 46.1957 54.4888 45.9809C53.9966 45.5871 52.988 45.0758 51 45.0076V49.0148C52.9405 49.0756 54.3586 49.3299 55.3321 49.879C55.9363 50.2199 56.3791 50.6784 56.6551 51.2568C56.9218 51.8156 56.9998 52.4175 56.9998 53C56.9998 54.0698 56.5427 55.1524 55.3298 55.9105C54.355 56.5198 52.9454 56.8864 51 56.9775V58C51 58.5523 50.5523 59 50 59C49.4478 59 49.0001 58.5523 49.0001 58V56.9727C46.7206 56.844 45.2764 56.276 44.3634 55.6064C43.8443 55.2257 43.5174 54.8265 43.3155 54.4933C43.191 54.288 43.0836 54.065 43.0271 53.8303L43.0261 53.8259L43.0256 53.8237C43.0249 53.8209 43.0251 53.8216 43.0251 53.8216C42.9027 53.2831 43.24 52.7473 43.7786 52.6249C44.3036 52.5055 44.826 52.8232 44.9653 53.3382L44.966 53.3401C44.9721 53.3556 44.9896 53.397 45.0258 53.4567C45.0966 53.5735 45.247 53.7743 45.546 53.9936C46.0599 54.3704 47.0744 54.845 49.0001 54.9692V50.9825C47.0408 50.9102 45.6226 50.6117 44.6496 50.0354C44.0557 49.6836 43.6222 49.2255 43.3492 48.6678C43.0824 48.1227 43.0002 47.5466 43.0002 47C43.0002 46.393 43.1402 45.7891 43.4863 45.2392C43.8305 44.6922 44.3387 44.2622 44.9753 43.9354C45.943 43.4386 47.2726 43.1471 49.0001 43.0434V42ZM49.0001 45.0476C47.4928 45.1479 46.5053 45.398 45.8886 45.7146C45.5026 45.9128 45.2948 46.1203 45.1789 46.3045C45.0647 46.4859 45.0002 46.707 45.0002 47C45.0002 47.3534 45.0543 47.6023 45.1455 47.7885C45.2304 47.962 45.3765 48.1414 45.6688 48.3146C46.2154 48.6383 47.2163 48.9081 49.0001 48.9807V45.0476ZM51 54.975C52.7058 54.8854 53.7067 54.5665 54.2699 54.2145C54.8569 53.8476 54.9998 53.4302 54.9998 53C54.9998 52.5825 54.9414 52.3094 54.8502 52.1182C54.7683 51.9466 54.6316 51.7801 54.3495 51.621C53.8039 51.3132 52.8033 51.0784 51 51.0162V54.975Z" fill="white"/>
</svg>
