<svg xmlns="http://www.w3.org/2000/svg" width="108" height="144" style=""><rect id="backgroundrect" width="100%" height="100%" x="0" y="0" fill="none" stroke="none"/><defs><style>.cls-1,.cls-10,.cls-7{fill:#fff;}.cls-1,.cls-3,.cls-8,.cls-9{fill-rule:evenodd;}.cls-2,.cls-9{fill:#c6cbd5;}.cls-3{fill:#e6eaed;}.cls-4{fill:#ff6259;}.cls-5{fill:#ffbd2d;}.cls-6{fill:#2bca41;}.cls-8{fill:#028fd7;}.cls-10{font-size:8px;font-family:ProximaNova-Extrabld, Proxima Nova;font-weight:700;}.cls-11{letter-spacing:0.02em;}.cls-12{letter-spacing:0.02em;}</style></defs><title>Opt In</title><g class="currentLayer" style=""><title>Layer 1</title><g id="Layer_2" data-name="Layer 2" class=""><g id="Optin"><path class="cls-1" d="M5.63,143.5A5.13,5.13,0,0,1,.5,138.38V15.5h107V138.38a5.13,5.13,0,0,1-5.12,5.13Z" id="svg_1"/><path class="cls-2" d="M107,16V138.38a4.63,4.63,0,0,1-4.62,4.63H5.63A4.63,4.63,0,0,1,1,138.38V16H107m1-1H0V138.38A5.63,5.63,0,0,0,5.63,144h96.75a5.63,5.63,0,0,0,5.63-5.62V15Z" id="svg_2"/><path class="cls-2" d="M94.85,84A1.2,1.2,0,0,1,96,85.25v6.5A1.2,1.2,0,0,1,94.85,93H13.15A1.2,1.2,0,0,1,12,91.75v-6.5A1.2,1.2,0,0,1,13.15,84h81.7m0-1H13.15A2.2,2.2,0,0,0,11,85.25v6.5A2.2,2.2,0,0,0,13.15,94h81.7A2.2,2.2,0,0,0,97,91.75v-6.5A2.2,2.2,0,0,0,94.85,83Z" id="svg_3"/><path class="cls-2" d="M94.85,71A1.2,1.2,0,0,1,96,72.25v6.5A1.2,1.2,0,0,1,94.85,80H13.15A1.2,1.2,0,0,1,12,78.75v-6.5A1.2,1.2,0,0,1,13.15,71h81.7m0-1H13.15A2.2,2.2,0,0,0,11,72.25v6.5A2.2,2.2,0,0,0,13.15,81h81.7A2.2,2.2,0,0,0,97,78.75v-6.5A2.2,2.2,0,0,0,94.85,70Z" id="svg_4"/><path class="cls-3" d="M.5,15.5V5.63A5.13,5.13,0,0,1,5.63.5h96.75a5.13,5.13,0,0,1,5.13,5.13V15.5Z" id="svg_5"/><path class="cls-2" d="M102.38,1A4.63,4.63,0,0,1,107,5.63V15H1V5.63A4.63,4.63,0,0,1,5.63,1h96.75m0-1H5.63A5.63,5.63,0,0,0,0,5.63V16H108V5.63A5.63,5.63,0,0,0,102.38,0Z" id="svg_6"/><circle class="cls-4" cx="11" cy="8" r="2" id="svg_7"/><circle class="cls-5" cx="17" cy="8" r="2" id="svg_8"/><circle class="cls-6" cx="23" cy="8" r="2" id="svg_9"/><rect class="cls-7" x="34.5" y="4.5" width="64" height="7" rx="1.2200000286102295" ry="1.2200000286102295" id="svg_10"/><path class="cls-2" d="M97.28,5a.73.73,0,0,1,.72.72v4.55a.73.73,0,0,1-.72.72H35.72a.73.73,0,0,1-.72-.72V5.72A.73.73,0,0,1,35.72,5H97.28m0-1H35.72A1.72,1.72,0,0,0,34,5.72v4.55A1.72,1.72,0,0,0,35.72,12H97.28A1.72,1.72,0,0,0,99,10.28V5.72A1.72,1.72,0,0,0,97.28,4Z" id="svg_11"/><path class="cls-8" d="M13.15,96h81.7A2.08,2.08,0,0,1,97,98v10a2.08,2.08,0,0,1-2.15,2H13.15A2.08,2.08,0,0,1,11,108V98A2.08,2.08,0,0,1,13.15,96Z" id="svg_12"/><path class="cls-9" d="M11,57H97v2H11Z" id="svg_13"/><path class="cls-9" d="M41,62H67v2H41Z" id="svg_14"/><path class="cls-9" d="M24,52H84v2H24Z" id="svg_15"/><path class="cls-8" d="M11,47H97v2H11Z" id="svg_16"/><text class="cls-10" y="106" x="41.90999984741211" id="svg_17"><tspan class="cls-11" x="41.90999984741211" y="106" id="svg_18">OP</tspan><tspan x="53.43999984741211" y="106" id="svg_19">T </tspan><tspan class="cls-12" x="60.19999984741211" y="106" id="svg_20">I</tspan><tspan x="62.679999847412105" y="106" id="svg_21">N</tspan></text></g></g><rect fill="" stroke-dashoffset="" fill-rule="nonzero" id="svg_22" x="7" y="42" width="94" height="73" style="color: rgb(0, 0, 0);"/><rect fill="#ffffff" stroke-dashoffset="" fill-rule="nonzero" id="svg_24" x="5" y="38" width="98" height="77" style="color: rgb(0, 0, 0);"/><rect fill="#ffffff" stroke-dashoffset="" fill-rule="nonzero" id="svg_26" x="7" y="108" width="95" height="8" style="color: rgb(0, 0, 0);"/></g></svg>