<svg xmlns="http://www.w3.org/2000/svg" viewBox="0 0 108 144"><defs><style>.cls-1,.cls-7,.cls-9{fill:#fff;}.cls-1,.cls-17,.cls-3,.cls-8{fill-rule:evenodd;}.cls-17,.cls-2{fill:#c6cbd5;}.cls-3{fill:#e6eaed;}.cls-4{fill:#ff6259;}.cls-5{fill:#ffbd2d;}.cls-6{fill:#2bca41;}.cls-8{fill:#028fd7;}.cls-9{font-size:8px;font-family:ProximaNova-Extrabld, Proxima Nova;font-weight:700;letter-spacing:0.01em;}.cls-10{letter-spacing:0em;}.cls-11{letter-spacing:0.01em;}.cls-12{letter-spacing:0.02em;}.cls-13{letter-spacing:-0.01em;}.cls-14{letter-spacing:-0.01em;}.cls-15{letter-spacing:0.02em;}.cls-16{letter-spacing:0em;}.cls-18{fill:none;stroke:#028fd7;stroke-linecap:round;stroke-linejoin:round;}</style></defs><title>Download</title><g id="Layer_2" data-name="Layer 2"><g id="Downloads_Page" data-name="Downloads Page"><path class="cls-1" d="M5.63,143.5A5.13,5.13,0,0,1,.5,138.38V15.5h107V138.38a5.13,5.13,0,0,1-5.12,5.13Z"/><path class="cls-2" d="M107,16V138.38a4.63,4.63,0,0,1-4.62,4.63H5.63A4.63,4.63,0,0,1,1,138.38V16H107m1-1H0V138.38A5.63,5.63,0,0,0,5.63,144h96.75a5.63,5.63,0,0,0,5.63-5.62V15Z"/><path class="cls-2" d="M96.75,102A1.25,1.25,0,0,1,98,103.25v6.5A1.25,1.25,0,0,1,96.75,111H11.25A1.25,1.25,0,0,1,10,109.75v-6.5A1.25,1.25,0,0,1,11.25,102h85.5m0-1H11.25A2.25,2.25,0,0,0,9,103.25v6.5A2.25,2.25,0,0,0,11.25,112h85.5A2.25,2.25,0,0,0,99,109.75v-6.5A2.25,2.25,0,0,0,96.75,101Z"/><path class="cls-3" d="M.5,15.5V5.63A5.13,5.13,0,0,1,5.63.5h96.75a5.13,5.13,0,0,1,5.13,5.13V15.5Z"/><path class="cls-2" d="M102.38,1A4.63,4.63,0,0,1,107,5.63V15H1V5.63A4.63,4.63,0,0,1,5.63,1h96.75m0-1H5.63A5.63,5.63,0,0,0,0,5.63V16H108V5.63A5.63,5.63,0,0,0,102.38,0Z"/><circle class="cls-4" cx="11" cy="8" r="2"/><circle class="cls-5" cx="17" cy="8" r="2"/><circle class="cls-6" cx="23" cy="8" r="2"/><rect class="cls-7" x="34.5" y="4.5" width="64" height="7" rx="1.22" ry="1.22"/><path class="cls-2" d="M97.28,5a.73.73,0,0,1,.72.72v4.55a.73.73,0,0,1-.72.72H35.72a.73.73,0,0,1-.72-.72V5.72A.73.73,0,0,1,35.72,5H97.28m0-1H35.72A1.72,1.72,0,0,0,34,5.72v4.55A1.72,1.72,0,0,0,35.72,12H97.28A1.72,1.72,0,0,0,99,10.28V5.72A1.72,1.72,0,0,0,97.28,4Z"/><path class="cls-8" d="M11.25,114h85.5A2.14,2.14,0,0,1,99,116v10a2.14,2.14,0,0,1-2.25,2H11.25A2.14,2.14,0,0,1,9,126V116A2.14,2.14,0,0,1,11.25,114Z"/><text class="cls-9" transform="translate(31.51 124)">D<tspan class="cls-10" x="5.93" y="0">O</tspan><tspan class="cls-11" x="12.05" y="0">W</tspan><tspan class="cls-12" x="19.65" y="0">N</tspan><tspan class="cls-13" x="25.73" y="0">L</tspan><tspan class="cls-14" x="29.91" y="0">O</tspan><tspan class="cls-15" x="35.96" y="0">A</tspan><tspan class="cls-16" x="41.67" y="0">D</tspan></text><path class="cls-17" d="M11,88H97v2H11Z"/><path class="cls-17" d="M21,93H85v2H21Z"/><path class="cls-17" d="M11,83H97v2H11Z"/><path class="cls-8" d="M11,78H97v2H11Z"/><path class="cls-18" d="M56.79,53.3h3.94a4.78,4.78,0,1,0,0-9.57h-.08a6.9,6.9,0,0,0-13.71.95,6.53,6.53,0,0,0,.08,1h-.08a3.83,3.83,0,1,0,0,7.65h3.94"/><polyline class="cls-18" points="57.77 56.17 53.83 60 49.89 56.17 53.83 60 53.83 45.65"/><circle class="cls-18" cx="54" cy="48" r="20.5"/></g></g></svg>