<svg xmlns="http://www.w3.org/2000/svg" width="108" height="144" viewBox="0 0 108 144"><defs><style>.cls-1,.cls-8{fill:#fff;}.cls-1,.cls-10,.cls-4,.cls-9{fill-rule:evenodd;}.cls-2,.cls-9{fill:#c6cbd5;}.cls-10,.cls-3{fill:#028fd7;}.cls-4{fill:#e6eaed;}.cls-5{fill:#ff6259;}.cls-6{fill:#ffbd2d;}.cls-7{fill:#2bca41;}.cls-11{fill:none;stroke:#028fd7;stroke-miterlimit:10;}</style></defs><title>Generic Page</title><g id="Layer_2" data-name="Layer 2"><g id="Layer_21" data-name="Layer 21"><path class="cls-1" d="M5.63,143.5A5.13,5.13,0,0,1,.5,138.38V15.5h107V138.38a5.13,5.13,0,0,1-5.12,5.13Z"/><path class="cls-2" d="M107,16V138.38a4.63,4.63,0,0,1-4.62,4.63H5.63A4.63,4.63,0,0,1,1,138.38V16H107m1-1H0V138.38A5.62,5.62,0,0,0,5.63,144h96.75a5.62,5.62,0,0,0,5.63-5.62V15Z"/><path class="cls-3" d="M94.85,30A1.09,1.09,0,0,1,96,31V62a1.09,1.09,0,0,1-1.15,1H13.15A1.09,1.09,0,0,1,12,62V31a1.09,1.09,0,0,1,1.15-1h81.7m0-1H13.15A2.09,2.09,0,0,0,11,31V62a2.09,2.09,0,0,0,2.15,2h81.7A2.09,2.09,0,0,0,97,62V31a2.09,2.09,0,0,0-2.15-2Z"/><path class="cls-4" d="M.5,15.5V5.63A5.13,5.13,0,0,1,5.63.5h96.75a5.13,5.13,0,0,1,5.13,5.12V15.5Z"/><path class="cls-2" d="M102.38,1A4.63,4.63,0,0,1,107,5.63V15H1V5.63A4.63,4.63,0,0,1,5.63,1h96.75m0-1H5.63A5.62,5.62,0,0,0,0,5.63V16H108V5.63A5.62,5.62,0,0,0,102.38,0Z"/><circle class="cls-5" cx="11" cy="8" r="2"/><circle class="cls-6" cx="17" cy="8" r="2"/><circle class="cls-7" cx="23" cy="8" r="2"/><rect class="cls-8" x="34.5" y="4.5" width="64" height="7" rx="1.22" ry="1.22"/><path class="cls-2" d="M97.28,5a.73.73,0,0,1,.72.72v4.55a.73.73,0,0,1-.72.72H35.72a.73.73,0,0,1-.72-.72V5.72A.73.73,0,0,1,35.72,5H97.28m0-1H35.72A1.72,1.72,0,0,0,34,5.72v4.55A1.72,1.72,0,0,0,35.72,12H97.28A1.72,1.72,0,0,0,99,10.28V5.72A1.72,1.72,0,0,0,97.28,4Z"/><path class="cls-9" d="M11,82H97v2H11Z"/><path class="cls-9" d="M27,77H81v2H27Z"/><path class="cls-10" d="M11,72H97v2H11Z"/><polygon class="cls-11" points="41 54.5 48.43 43.99 52.14 48.41 57.71 41.55 67 54.5 41 54.5"/><circle class="cls-11" cx="51.34" cy="39.87" r="1.83"/><path class="cls-9" d="M11,117H68.28v2H11Z"/><path class="cls-9" d="M11,112H62.48v2H11Z"/><path class="cls-9" d="M11,127H69v2H11Z"/><path class="cls-10" d="M11,107H56v2H11Z"/><path class="cls-10" d="M11,102H68.28v2H11Z"/><path class="cls-9" d="M73,112H95v2H73Z"/><path class="cls-9" d="M73,117H88.71v2H73Z"/><path class="cls-9" d="M73,107H92.61v2H73Z"/><path class="cls-10" d="M73,102H97v2H73Z"/><path class="cls-9" d="M11,122H56v2H11Z"/><path class="cls-9" d="M35,92H73v2H35Z"/><path class="cls-9" d="M15,87H93v2H15Z"/><path class="cls-9" d="M73,127H95v2H73Z"/><path class="cls-9" d="M73,122H92.61v2H73Z"/></g></g></svg>