<svg xmlns="http://www.w3.org/2000/svg" viewBox="0 0 108 144"><defs><style>.cls-1,.cls-8{fill:#fff;}.cls-1,.cls-10,.cls-4,.cls-9{fill-rule:evenodd;}.cls-10,.cls-2{fill:#c6cbd5;}.cls-3,.cls-9{fill:#028fd7;}.cls-4{fill:#e6eaed;}.cls-5{fill:#ff6259;}.cls-6{fill:#ffbd2d;}.cls-7{fill:#2bca41;}.cls-11{fill:none;stroke:#028fd7;stroke-miterlimit:10;}</style></defs><title>Popup</title><g id="Layer_2" data-name="Layer 2"><g id="Layer_15_copy" data-name="Layer 15 copy"><path class="cls-1" d="M5.63,143.5A5.13,5.13,0,0,1,.5,138.38V15.5h107V138.38a5.13,5.13,0,0,1-5.12,5.13Z"/><path class="cls-2" d="M107,16V138.38a4.63,4.63,0,0,1-4.62,4.63H5.63A4.63,4.63,0,0,1,1,138.38V16H107m1-1H0V138.38A5.62,5.62,0,0,0,5.63,144h96.75a5.62,5.62,0,0,0,5.63-5.62V15Z"/><path class="cls-3" d="M89.15,43.44a.8.8,0,0,1,.85.74V70.82a.8.8,0,0,1-.85.74H18.85a.8.8,0,0,1-.85-.74V44.18a.8.8,0,0,1,.85-.74h70.3m0-1H18.85A1.8,1.8,0,0,0,17,44.18V70.82a1.8,1.8,0,0,0,1.85,1.74h70.3A1.8,1.8,0,0,0,91,70.82V44.18a1.8,1.8,0,0,0-1.85-1.74Z"/><path class="cls-4" d="M.5,15.5V5.63A5.13,5.13,0,0,1,5.63.5h96.75a5.13,5.13,0,0,1,5.13,5.13V15.5Z"/><path class="cls-2" d="M102.38,1A4.63,4.63,0,0,1,107,5.63V15H1V5.63A4.63,4.63,0,0,1,5.63,1h96.75m0-1H5.63A5.62,5.62,0,0,0,0,5.63V16H108V5.63A5.62,5.62,0,0,0,102.38,0Z"/><circle class="cls-5" cx="11" cy="8" r="2"/><circle class="cls-6" cx="17" cy="8" r="2"/><circle class="cls-7" cx="23" cy="8" r="2"/><rect class="cls-8" x="34.5" y="4.5" width="64" height="7" rx="1.22" ry="1.22"/><path class="cls-2" d="M97.28,5a.73.73,0,0,1,.72.72v4.55a.73.73,0,0,1-.72.72H35.72a.73.73,0,0,1-.72-.72V5.72A.73.73,0,0,1,35.72,5H97.28m0-1H35.72A1.72,1.72,0,0,0,34,5.72v4.55A1.72,1.72,0,0,0,35.72,12H97.28A1.72,1.72,0,0,0,99,10.28V5.72A1.72,1.72,0,0,0,97.28,4Z"/><path class="cls-9" d="M19.15,100h69.7A2.08,2.08,0,0,1,91,102v10a2.08,2.08,0,0,1-2.15,2H19.15A2.08,2.08,0,0,1,17,112V102A2.08,2.08,0,0,1,19.15,100Z"/><path class="cls-8" d="M26.7,109.86A2.48,2.48,0,0,0,29,108.43l-1.18-.56a1.28,1.28,0,0,1-1.14.78,1.55,1.55,0,0,1,0-3.09,1.28,1.28,0,0,1,1.14.78l1.18-.56a2.46,2.46,0,0,0-2.33-1.43,2.76,2.76,0,1,0,0,5.52Z"/><path class="cls-8" d="M34.67,109.77l-2-5.34H30.92l-2,5.34h1.56l.26-.77h2.1l.26.77Zm-2.2-2H31.1l.68-2Z"/><path class="cls-8" d="M38.5,109.77v-1.2H36.35v-4.14H35v5.34Z"/><path class="cls-8" d="M42.65,109.77v-1.2H40.5v-4.14H39.13v5.34Z"/><path class="cls-8" d="M47.82,109.77v-4.14h1.49v-1.2H44.94v1.2h1.5v4.14Z"/><path class="cls-8" d="M52.29,109.86a2.76,2.76,0,1,0-2.86-2.76A2.71,2.71,0,0,0,52.29,109.86Zm0-1.22a1.55,1.55,0,1,1,1.45-1.54A1.44,1.44,0,0,1,52.29,108.65Z"/><path class="cls-8" d="M62.91,109.77l-2-5.34H59.16l-2,5.34h1.56L59,109h2.1l.26.77Zm-2.2-2H59.34l.68-2Z"/><path class="cls-8" d="M65.58,109.86a2.48,2.48,0,0,0,2.33-1.43l-1.18-.56a1.28,1.28,0,0,1-1.14.78,1.55,1.55,0,0,1,0-3.09,1.28,1.28,0,0,1,1.14.78l1.18-.56a2.46,2.46,0,0,0-2.33-1.43,2.76,2.76,0,1,0,0,5.52Z"/><path class="cls-8" d="M71,109.77v-4.14h1.49v-1.2H68.11v1.2h1.5v4.14Z"/><path class="cls-8" d="M74.42,109.77v-5.34H73v5.34Z"/><path class="cls-8" d="M77.89,109.86A2.76,2.76,0,1,0,75,107.1,2.71,2.71,0,0,0,77.89,109.86Zm0-1.22a1.55,1.55,0,1,1,1.45-1.54A1.44,1.44,0,0,1,77.89,108.65Z"/><path class="cls-8" d="M86.31,109.77v-5.34H84.93v2.94l-2.16-2.94H81.35v5.34h1.38v-3.09L85,109.77Z"/><path class="cls-10" d="M17,88H91v2H17Z"/><path class="cls-10" d="M44,93H64.65v2H44Z"/><path class="cls-10" d="M31,83H77.47v2H31Z"/><path class="cls-9" d="M17,78H91v2H17Z"/><polygon class="cls-11" points="42.81 64.38 49.21 55.34 52.4 59.14 57.2 53.24 65.19 64.38 42.81 64.38"/><circle class="cls-11" cx="51.71" cy="51.8" r="1.57"/><path class="cls-3" d="M94.85,37A1.09,1.09,0,0,1,96,38v81a1.09,1.09,0,0,1-1.15,1H13.15A1.09,1.09,0,0,1,12,119V38a1.09,1.09,0,0,1,1.15-1h81.7m0-1H13.15A2.09,2.09,0,0,0,11,38v81a2.09,2.09,0,0,0,2.15,2h81.7A2.09,2.09,0,0,0,97,119V38a2.09,2.09,0,0,0-2.15-2Z"/></g></g></svg>