<svg xmlns="http://www.w3.org/2000/svg" viewBox="0 0 108 144"><defs><style>.cls-1,.cls-12,.cls-8{fill:#fff;}.cls-1,.cls-10,.cls-11,.cls-4,.cls-9{fill-rule:evenodd;}.cls-11,.cls-2{fill:#c6cbd5;}.cls-3,.cls-9{fill:#028fd7;}.cls-4{fill:#e6eaed;}.cls-5{fill:#ff6259;}.cls-6{fill:#ffbd2d;}.cls-7{fill:#2bca41;}.cls-10{fill:none;stroke:#028fd7;stroke-miterlimit:10;}.cls-12{font-size:8px;font-family:ProximaNova-Extrabld, Proxima Nova;font-weight:700;}.cls-13{letter-spacing:0.01em;}.cls-14{letter-spacing:0.02em;}.cls-15{letter-spacing:0.02em;}.cls-16{letter-spacing:0em;}</style></defs><title>Upsell OTO</title><g id="Layer_2" data-name="Layer 2"><g id="Upsell_OTO" data-name="Upsell OTO"><path class="cls-1" d="M5.63,143.5A5.13,5.13,0,0,1,.5,138.38V15.5h107V138.38a5.13,5.13,0,0,1-5.12,5.13Z"/><path class="cls-2" d="M107,16V138.38a4.63,4.63,0,0,1-4.62,4.63H5.63A4.63,4.63,0,0,1,1,138.38V16H107m1-1H0V138.38A5.62,5.62,0,0,0,5.63,144h96.75a5.62,5.62,0,0,0,5.63-5.62V15Z"/><path class="cls-3" d="M94.85,61c.54,0,1.15.75,1.15,1.83V99.17c0,1.08-.61,1.83-1.15,1.83H13.15c-.54,0-1.15-.75-1.15-1.83V62.83c0-1.08.61-1.83,1.15-1.83h81.7m0-1H13.15C12,60,11,61.27,11,62.83V99.17c0,1.56,1,2.83,2.15,2.83h81.7C96,102,97,100.73,97,99.17V62.83C97,61.27,96,60,94.85,60Z"/><path class="cls-4" d="M.5,15.5V5.63A5.13,5.13,0,0,1,5.63.5h96.75a5.13,5.13,0,0,1,5.13,5.13V15.5Z"/><path class="cls-2" d="M102.38,1A4.63,4.63,0,0,1,107,5.63V15H1V5.63A4.63,4.63,0,0,1,5.63,1h96.75m0-1H5.63A5.63,5.63,0,0,0,0,5.63V16H108V5.63A5.63,5.63,0,0,0,102.38,0Z"/><circle class="cls-5" cx="11" cy="8" r="2"/><circle class="cls-6" cx="17" cy="8" r="2"/><circle class="cls-7" cx="23" cy="8" r="2"/><rect class="cls-8" x="34.5" y="4.5" width="64" height="7" rx="1.22" ry="1.22"/><path class="cls-2" d="M97.28,5a.73.73,0,0,1,.72.72v4.55a.73.73,0,0,1-.72.72H35.72a.73.73,0,0,1-.72-.72V5.72A.73.73,0,0,1,35.72,5H97.28m0-1H35.72A1.72,1.72,0,0,0,34,5.72v4.55A1.72,1.72,0,0,0,35.72,12H97.28A1.72,1.72,0,0,0,99,10.28V5.72A1.72,1.72,0,0,0,97.28,4Z"/><path class="cls-9" d="M13.15,108h81.7A2.08,2.08,0,0,1,97,110v10a2.08,2.08,0,0,1-2.15,2H13.15A2.08,2.08,0,0,1,11,120V110A2.08,2.08,0,0,1,13.15,108Z"/><polygon class="cls-10" points="60.05 81.51 48.84 75.04 48.84 87.99 60.05 81.51"/><path class="cls-11" d="M11,47H88v2H11Z"/><path class="cls-11" d="M11,52H55v2H11Z"/><path class="cls-9" d="M11,42H68v2H11Z"/><path class="cls-9" d="M11,37H97v2H11Z"/><text class="cls-12" transform="translate(34.69 118)"><tspan class="cls-13">B</tspan><tspan class="cls-14" x="5.54" y="0">U</tspan><tspan x="11.67" y="0">Y </tspan><tspan class="cls-15" x="18.96" y="0">N</tspan><tspan class="cls-16" x="25.01" y="0">O</tspan><tspan x="31.13" y="0">W</tspan></text></g></g></svg>