<svg width="64" height="64" viewBox="0 0 64 64" fill="none" xmlns="http://www.w3.org/2000/svg">
<circle cx="32" cy="32" r="32" fill="#356AE6"/>
<path d="M31.7053 33.4238C32.2868 33.4238 32.8722 33.2009 33.4961 32.7524C34.226 32.252 34.8843 31.823 34.8843 31.823L35.1081 31.6765L34.8869 31.5261C34.7889 31.4587 25.0558 24.8493 24.0491 24.2167C23.5842 23.8862 23.0517 23.8162 22.6252 24.0288C22.2278 24.2271 22 24.6354 22 25.15V27.3938L22.0782 27.4469C22.1457 27.4923 28.8349 32.0459 30.1396 32.8975C30.6774 33.2488 31.19 33.4238 31.7053 33.4238Z" fill="white"/>
<path d="M44.7549 29.4691C44.1734 29.0427 23.2952 14.8024 22.4064 14.197L22.119 14V17.4972C22.119 18.6094 22.7137 19.0306 23.4661 19.5647C23.4661 19.5647 39.4817 30.4867 41.4673 31.8347C39.4685 33.1906 24.3973 43.4178 23.4462 44.0153C22.3057 44.7594 22.1918 45.2416 22.1918 46.2435V50C22.1918 50 44.2674 34.5412 44.7509 34.2029L44.7549 34.2003C45.7603 33.4615 45.9894 32.5775 46 31.9514V31.5483C46.0013 30.7355 45.5801 30.0343 44.7549 29.4691Z" fill="white"/>
</svg>
