<svg width="64" height="64" viewBox="0 0 64 64" fill="none" xmlns="http://www.w3.org/2000/svg">
<circle cx="32" cy="32" r="32" fill="#FFC803"/>
<path d="M25.0756 33.1667H27.6744L26.375 29.286L25.0756 33.1667ZM38.75 32C37.8198 32 37.0625 32.7853 37.0625 33.75C37.0625 34.7147 37.8198 35.5 38.75 35.5C39.6802 35.5 40.4375 34.7147 40.4375 33.75C40.4375 32.7853 39.6802 32 38.75 32ZM46.625 18H17.375C15.5117 18 14 19.5677 14 21.5V42.5C14 44.4323 15.5117 46 17.375 46H46.625C48.4883 46 50 44.4323 50 42.5V21.5C50 19.5677 48.4883 18 46.625 18ZM31.6189 39H30.4278C29.949 39 29.5222 38.685 29.3647 38.2161L28.8465 36.6667H23.9042L23.3853 38.2161C23.3086 38.4452 23.165 38.6437 22.9745 38.7842C22.784 38.9247 22.556 39.0001 22.3222 39H21.1311C20.357 39 19.8141 38.2089 20.068 37.4505L23.8438 26.1754C23.9588 25.8321 24.1741 25.5344 24.4597 25.3237C24.7454 25.1131 25.0872 24.9999 25.4377 25H27.3123C27.6629 24.9999 28.0048 25.1132 28.2905 25.324C28.5761 25.5348 28.7914 25.8326 28.9062 26.1761L32.6813 37.4505C32.9352 38.2089 32.3923 39 31.6189 39V39ZM43.8125 37.8333C43.8125 38.4779 43.3091 39 42.6875 39H41.5625C41.2215 39 40.9269 38.8345 40.7202 38.5858C40.1141 38.8527 39.4482 39 38.75 39C35.9586 39 33.6875 36.6448 33.6875 33.75C33.6875 30.8552 35.9586 28.5 38.75 28.5C39.3448 28.5 39.9073 28.6261 40.4375 28.8223V26.1667C40.4375 25.5221 40.9409 25 41.5625 25H42.6875C43.3091 25 43.8125 25.5221 43.8125 26.1667V37.8333Z" fill="white"/>
</svg>
