<svg width="64" height="64" viewBox="0 0 64 64" fill="none" xmlns="http://www.w3.org/2000/svg">
<circle cx="32" cy="32" r="32" fill="#4A5468"/>
<mask id="path-3-inside-1" fill="white">
<path fill-rule="evenodd" clip-rule="evenodd" d="M49 32C49 41.3888 41.3888 49 32 49C22.6112 49 15 41.3888 15 32C15 22.6112 22.6112 15 32 15C41.3888 15 49 22.6112 49 32ZM30 21.5C30 20.6716 30.6716 20 31.5 20C32.3284 20 33 20.6716 33 21.5V32H40.5C41.3284 32 42 32.6716 42 33.5C42 34.3284 41.3284 35 40.5 35H31.5C30.6716 35 30 34.3284 30 33.5V21.5Z"/>
</mask>
<path fill-rule="evenodd" clip-rule="evenodd" d="M49 32C49 41.3888 41.3888 49 32 49C22.6112 49 15 41.3888 15 32C15 22.6112 22.6112 15 32 15C41.3888 15 49 22.6112 49 32ZM30 21.5C30 20.6716 30.6716 20 31.5 20C32.3284 20 33 20.6716 33 21.5V32H40.5C41.3284 32 42 32.6716 42 33.5C42 34.3284 41.3284 35 40.5 35H31.5C30.6716 35 30 34.3284 30 33.5V21.5Z" fill="white"/>
<path d="M33 32H30V35H33V32ZM32 52C43.0457 52 52 43.0457 52 32H46C46 39.732 39.732 46 32 46V52ZM12 32C12 43.0457 20.9543 52 32 52V46C24.268 46 18 39.732 18 32H12ZM32 12C20.9543 12 12 20.9543 12 32H18C18 24.268 24.268 18 32 18V12ZM52 32C52 20.9543 43.0457 12 32 12V18C39.732 18 46 24.268 46 32H52ZM31.5 17C29.0147 17 27 19.0147 27 21.5H33C33 22.3284 32.3284 23 31.5 23V17ZM36 21.5C36 19.0147 33.9853 17 31.5 17V23C30.6716 23 30 22.3284 30 21.5H36ZM36 32V21.5H30V32H36ZM33 35H40.5V29H33V35ZM40.5 35C39.6716 35 39 34.3284 39 33.5H45C45 31.0147 42.9853 29 40.5 29V35ZM39 33.5C39 32.6716 39.6716 32 40.5 32V38C42.9853 38 45 35.9853 45 33.5H39ZM40.5 32H31.5V38H40.5V32ZM27 33.5C27 35.9853 29.0147 38 31.5 38V32C32.3284 32 33 32.6716 33 33.5H27ZM27 21.5V33.5H33V21.5H27Z" fill="white" mask="url(#path-3-inside-1)"/>
</svg>
