<svg width="64" height="64" viewBox="0 0 64 64" fill="none" xmlns="http://www.w3.org/2000/svg">
<circle cx="32" cy="32" r="32" fill="#7C44D6"/>
<path fill-rule="evenodd" clip-rule="evenodd" d="M15 18C15 16.3431 16.3431 15 18 15H46C47.6569 15 49 16.3431 49 18V35C49 36.6569 47.6569 38 46 38H42.9907L42.9965 37.3098L43.0244 35.0798L43.3058 35.0244C44.337 34.8124 44.9463 33.9833 45.1433 32.5458C45.3026 31.3939 45.209 29.2754 45.012 28.6766C44.8056 28.0499 44.2341 27.4236 43.6337 27.175C43.1931 26.9905 42.1711 26.8064 41.5246 26.7973L41.2432 26.7968H37.2132L33.5101 26.806C31.4755 26.816 29.6193 26.8526 29.3944 26.8989C28.7665 27.0188 28.3067 27.3594 28.1195 27.8479C27.9602 28.2531 27.9602 28.2902 28.1195 28.6958C28.3165 29.2026 28.7571 29.5157 29.4694 29.654C29.7507 29.7002 31.2128 29.746 32.7225 29.746H35.4785V33.6427V38H18C16.3431 38 15 36.6569 15 35V18ZM38.2336 19.107C37.5652 19.2881 37.1738 19.5364 36.706 20.0609C36.0186 20.8428 35.8179 21.9777 36.1713 23.0553C36.41 23.7803 37.2122 24.5811 37.9376 24.8195C39.1217 25.2104 40.2484 24.9626 41.0977 24.1139C42.3008 22.9122 42.3008 21.1001 41.0977 19.8984C40.3153 19.1165 39.246 18.8208 38.2336 19.107ZM23 45C23 47.2091 21.2091 49 19 49C16.7909 49 15 47.2091 15 45C15 42.7909 16.7909 41 19 41C21.2091 41 23 42.7909 23 45ZM32 49C34.2091 49 36 47.2091 36 45C36 42.7909 34.2091 41 32 41C29.7909 41 28 42.7909 28 45C28 47.2091 29.7909 49 32 49ZM49 45C49 47.2091 47.2091 49 45 49C42.7909 49 41 47.2091 41 45C41 42.7909 42.7909 41 45 41C47.2091 41 49 42.7909 49 45ZM20 21C19.4477 21 19 21.4477 19 22V31C19 31.5523 19.4477 32 20 32H25C25.5523 32 26 31.5523 26 31V22C26 21.4477 25.5523 21 25 21H20Z" fill="white"/>
</svg>
