<svg width="64" height="64" viewBox="0 0 64 64" fill="none" xmlns="http://www.w3.org/2000/svg">
<circle cx="32" cy="32" r="32" fill="#439FD3"/>
<path d="M30.7662 32.2339C32.6309 31.7952 34.6053 31.3564 36.4701 31.137C37.2379 31.0274 38.1154 30.9177 38.9929 30.808C39.5413 28.7239 40.1995 26.7495 40.9673 24.6654H40.7479C38.1154 25.1042 35.4829 25.872 32.96 26.7495C32.0825 28.6142 31.3147 30.3692 30.7662 32.2339Z" fill="white"/>
<path d="M23.8557 29.4916C24.7333 27.8463 25.6108 26.0913 26.598 24.5556C25.0623 25.4331 23.5267 26.3107 22.1007 27.2979C21.0038 28.9432 19.907 30.5885 19.0294 32.3435C20.6748 31.3563 22.2104 30.3691 23.8557 29.4916Z" fill="white"/>
<path d="M29.5596 32.5629C30.1081 30.8079 30.7662 28.9432 31.534 27.1882C29.1209 28.0657 26.8174 29.0529 24.6236 30.2595C23.8558 31.7951 23.1977 33.4405 22.5396 35.0858C24.843 34.0986 27.1465 33.2211 29.5596 32.5629Z" fill="white"/>
<path d="M40.5285 23.7879C40.8576 23.7879 41.077 23.6782 41.406 23.6782C42.2835 21.5941 43.1611 19.6197 44.2579 17.5357C41.7351 18.1938 39.1026 18.9616 36.5797 19.8391C35.4828 21.7038 34.3859 23.5685 33.5084 25.5429C35.8119 24.7751 38.1154 24.2267 40.5285 23.7879Z" fill="white"/>
<path d="M14.7516 39.3638C15.3 38.0475 15.8484 36.7312 16.3969 35.415C15.3 36.1828 14.3128 36.9506 13.3256 37.8281C12.4481 39.2541 11.5706 40.68 10.9125 42.2157C12.119 41.1188 13.4353 40.2413 14.7516 39.3638Z" fill="white"/>
<path d="M21.333 35.6343C21.8814 34.0987 22.5395 32.563 23.1977 31.0274C21.4427 32.0146 19.7973 33.0018 18.0423 34.2084C17.3842 35.6343 16.726 37.0603 16.0679 38.4862C17.8229 37.3893 19.5779 36.4022 21.333 35.6343Z" fill="white"/>
<path d="M39.98 30.6983C43.0513 30.4789 46.2323 30.3692 49.0842 30.6983C49.7423 28.2851 50.5101 25.9817 51.278 23.7879H50.8392C47.8776 23.7879 44.916 24.0073 41.8447 24.5557C41.2963 26.5301 40.5284 28.6142 39.98 30.6983Z" fill="white"/>
<path d="M50.9489 22.8007H51.7167C52.7039 20.3876 53.8008 18.0841 55.0074 16C52.8136 16.1097 49.5229 16.3291 45.4645 17.2066C44.3676 19.181 43.3804 21.2651 42.5029 23.4588C45.3548 23.0201 48.2067 22.8007 50.9489 22.8007Z" fill="white"/>
<path d="M29.0111 38.9249C30.108 38.7055 31.3146 38.5959 32.4114 38.4862C34.1665 38.2668 35.9215 38.1571 37.6765 38.1571C37.8959 36.073 38.2249 33.9889 38.7734 31.7952C38.0056 31.9048 37.3474 32.0145 36.5796 32.1242C34.4955 32.4533 32.4114 32.892 30.3273 33.4405C29.7789 35.1955 29.3401 37.0602 29.0111 38.9249Z" fill="white"/>
<path d="M13.1062 44.6287C13.4353 43.4222 13.7644 42.2156 14.2031 40.8993C12.6675 41.9962 11.2415 43.0931 9.92527 44.2997C9.37683 45.5062 8.93808 46.6031 8.60901 47.7C9.92528 46.6031 11.4609 45.6159 13.1062 44.6287Z" fill="white"/>
<path d="M27.9142 39.1444C28.2433 37.3894 28.6821 35.5247 29.2305 33.6599C26.8173 34.4278 24.4042 35.3053 22.1007 36.2925C21.5523 37.8281 21.1135 39.4735 20.6748 41.0091C22.9782 40.2413 25.5011 39.5831 27.9142 39.1444Z" fill="white"/>
</svg>
