<svg width="64" height="64" viewBox="0 0 64 64" fill="none" xmlns="http://www.w3.org/2000/svg">
<circle cx="32" cy="32" r="32" fill="#111111"/>
<path d="M44.941 14C44.941 14 45.2442 14 45.3769 14.0381C45.9265 14.162 46.1634 14.6669 45.8791 15.0957C45.8222 15.1814 45.6801 15.3339 45.6801 15.3339L36.2897 26.0716C36.2897 26.0716 36.1192 26.2621 36.0434 26.3574C35.7022 26.8433 36.0528 27.4245 36.7066 27.4626C36.8109 27.4721 37.0193 27.4626 37.0193 27.4626H40.2411C40.2411 27.4626 40.4495 27.4626 40.5443 27.4721C41.1697 27.5388 41.5013 28.12 41.1697 28.5869C41.0939 28.6917 40.9044 28.9013 40.9044 28.9013L33.9777 36.7521C33.9777 36.7521 33.8071 36.9427 33.7408 37.0379C33.4375 37.5048 33.7881 38.0669 34.4135 38.0955C34.5841 38.105 34.7547 38.0955 34.9252 38.105C35.2948 38.1241 35.5885 38.2575 35.7307 38.5719C35.8728 38.8672 35.778 39.134 35.5317 39.3627C35.4653 39.4198 35.3422 39.5342 35.3422 39.5342L21.3277 51.6724C21.3277 51.6724 21.1381 51.8439 21.0339 51.9202C20.8728 52.025 20.6738 52.025 20.5222 51.9297C20.3801 51.8344 20.3138 51.6915 20.3706 51.5391C20.4085 51.4343 20.5127 51.2342 20.5127 51.2342L24.9284 42.0876C24.9284 42.0876 25.0137 41.9066 25.0611 41.8208C25.3548 41.2206 25.0611 40.7156 24.4072 40.6299C24.3314 40.6203 24.1514 40.6203 24.1514 40.6203L21.0718 40.6299C21.0718 40.6299 20.816 40.6299 20.6928 40.6108C20.1527 40.5251 19.8589 40.0677 20.0674 39.6199C20.1148 39.5151 20.2285 39.3246 20.2285 39.3246L25.7054 30.0922C25.7054 30.0922 25.7717 29.9874 25.8002 29.9303C26.0939 29.3872 25.7338 28.8632 25.0421 28.8441C24.7578 28.8346 24.1893 28.8441 24.1893 28.8441C24.1893 28.8441 22.7111 28.8441 21.7541 28.8441C21.7541 28.8441 21.5456 28.8441 21.4508 28.8441C20.9865 28.8441 20.6549 28.5964 20.5886 28.2248C20.5506 28.0247 20.6359 27.8532 20.7307 27.6817C21.2898 26.7004 21.8393 25.7095 22.3984 24.7282C24.2272 21.4888 26.056 18.2398 27.8753 15.0004C27.9227 14.9242 27.9701 14.8384 28.008 14.7622C28.2923 14.2477 28.7566 14 29.4009 14C29.4767 14 29.8178 14 29.8178 14H44.941Z" fill="white"/>
</svg>
