<svg width="64" height="64" viewBox="0 0 64 64" fill="none" xmlns="http://www.w3.org/2000/svg">
<circle cx="32" cy="32" r="32" fill="#0076FB"/>
<path d="M44.4392 33.7094C44.4392 34.0125 44.3201 34.3032 44.108 34.5175C43.8959 34.7318 43.6083 34.8522 43.3084 34.8522C43.0085 34.8522 42.7208 34.7318 42.5088 34.5175C42.2967 34.3032 42.1776 34.0125 42.1776 33.7094V23.5001C42.1776 23.197 42.2967 22.9063 42.5088 22.692C42.7208 22.4777 43.0085 22.3573 43.3084 22.3573C43.6083 22.3573 43.8959 22.4777 44.108 22.692C44.3201 22.9063 44.4392 23.197 44.4392 23.5001V33.7094ZM44.0467 40.7833C43.8972 40.9344 39.6916 44.476 31.9813 44.476C24.271 44.476 20.0935 40.9533 19.9159 40.8022C19.804 40.7068 19.7118 40.5901 19.6447 40.4587C19.5775 40.3272 19.5367 40.1837 19.5245 40.0363C19.5123 39.8889 19.5291 39.7405 19.5738 39.5996C19.6185 39.4588 19.6903 39.3283 19.7851 39.2155C19.9802 38.9873 20.2568 38.8463 20.5544 38.8233C20.8521 38.8003 21.1466 38.8972 21.3739 39.0927C21.4393 39.14 25.1962 42.2188 31.972 42.2188C38.7477 42.2188 42.5327 39.1211 42.5701 39.0927C42.7999 38.8989 43.0954 38.8033 43.3938 38.8263C43.6923 38.8492 43.97 38.9888 44.1682 39.2155C44.3589 39.4403 44.454 39.7321 44.4331 40.0274C44.412 40.3227 44.2766 40.5978 44.056 40.7927L44.0467 40.7833ZM19.514 23.5001C19.5309 23.196 19.6663 22.9111 19.8904 22.7076C20.1146 22.5041 20.4093 22.3985 20.7103 22.4139C20.9893 22.4299 21.2525 22.5498 21.4493 22.7503C21.646 22.9509 21.7623 23.218 21.7757 23.5001V33.6905C21.7757 33.9936 21.6566 34.2843 21.4445 34.4986C21.2324 34.7129 20.9448 34.8333 20.6449 34.8333C20.345 34.8333 20.0573 34.7129 19.8452 34.4986C19.6332 34.2843 19.514 33.9936 19.514 33.6905V23.5001ZM25.1869 21.2334C25.2038 20.9294 25.3391 20.6444 25.5633 20.4409C25.7875 20.2374 26.0822 20.1318 26.3832 20.1473C26.6622 20.1633 26.9254 20.2831 27.1222 20.4837C27.3189 20.6842 27.4352 20.9513 27.4486 21.2334V36.3444C27.4486 36.6475 27.3295 36.9382 27.1174 37.1525C26.9053 37.3668 26.6177 37.4872 26.3178 37.4872C26.0178 37.4872 25.7302 37.3668 25.5181 37.1525C25.3061 36.9382 25.1869 36.6475 25.1869 36.3444V21.2334ZM30.8878 20.6667C30.8878 20.3636 31.007 20.073 31.2191 19.8587C31.4311 19.6443 31.7188 19.524 32.0187 19.524C32.3186 19.524 32.6062 19.6443 32.8183 19.8587C33.0304 20.073 33.1495 20.3636 33.1495 20.6667V37.1C33.1495 37.4031 33.0304 37.6937 32.8183 37.908C32.6062 38.1223 32.3186 38.2428 32.0187 38.2428C31.7188 38.2428 31.4311 38.1223 31.2191 37.908C31.007 37.6937 30.8878 37.4031 30.8878 37.1V20.6667ZM36.4953 21.2334C36.4953 20.9303 36.6144 20.6397 36.8265 20.4253C37.0386 20.211 37.3263 20.0906 37.6262 20.0906C37.9261 20.0906 38.2137 20.211 38.4258 20.4253C38.6379 20.6397 38.757 20.9303 38.757 21.2334V36.3444C38.757 36.6475 38.6379 36.9382 38.4258 37.1525C38.2137 37.3668 37.9261 37.4872 37.6262 37.4872C37.3263 37.4872 37.0386 37.3668 36.8265 37.1525C36.6144 36.9382 36.4953 36.6475 36.4953 36.3444V21.2334ZM44.7476 15.0001H19.2524C18.6968 14.9964 18.146 15.1034 17.6315 15.3151C17.117 15.5267 16.6488 15.8389 16.2538 16.2337C15.8588 16.6284 15.5447 17.0981 15.3296 17.6157C15.1145 18.1333 15.0025 18.6887 15 19.2501V44.7499C15.0025 45.3113 15.1145 45.8667 15.3296 46.3843C15.5447 46.9019 15.8588 47.3716 16.2538 47.7663C16.6488 48.1611 17.117 48.4733 17.6315 48.6849C18.146 48.8966 18.6968 49.0036 19.2524 48.9999H44.7476C45.3024 49.0036 45.8524 48.8969 46.3664 48.6858C46.8803 48.4748 47.348 48.1634 47.7429 47.7697C48.1378 47.3759 48.452 46.9074 48.6677 46.3909C48.8834 45.8743 48.9963 45.32 49 44.7594V19.2501C48.9975 18.6895 48.8859 18.1349 48.6713 17.6179C48.4567 17.1009 48.1435 16.6317 47.7495 16.2371C47.3555 15.8424 46.8885 15.53 46.375 15.3178C45.8615 15.1056 45.3118 14.9976 44.757 15.0001" fill="white"/>
</svg>
