<svg width="64" height="64" viewBox="0 0 64 64" fill="none" xmlns="http://www.w3.org/2000/svg">
<circle cx="32" cy="32" r="32" fill="#3AD3D3"/>
<path d="M36.25 19.7419C36.25 22.0936 34.3472 24 32 24C29.6528 24 27.75 22.0936 27.75 19.7419C27.75 17.3903 29.6528 15.4839 32 15.4839C34.3472 15.4839 36.25 17.3903 36.25 19.7419Z" fill="white"/>
<path d="M24.875 21.8064C24.875 23.5702 23.4479 25 21.6875 25C19.9271 25 18.5 23.5702 18.5 21.8064C18.5 20.0427 19.9271 18.6129 21.6875 18.6129C23.4479 18.6129 24.875 20.0427 24.875 21.8064Z" fill="white"/>
<path d="M22.4375 30.9678L22.4375 40C22.4375 40.5523 22.8852 41 23.4375 41L25 41L25 45L18 45C17.4477 45 17 44.5523 17 44L17 37L16 37C15.4477 37 15 36.5523 15 36L15 30.9678C15 28.6194 16.8186 26.9894 19.1625 26.9894H23.4125C23.4679 26.9894 23.5229 26.9947 23.5777 27C23.6112 27.0033 23.6447 27.0065 23.6781 27.0085C22.843 28.2136 22.4375 29.3933 22.4375 30.9678Z" fill="white"/>
<path d="M42 25C43.7604 25 45.1875 23.5702 45.1875 21.8064C45.1875 20.0427 43.7604 18.6129 42 18.6129C40.2396 18.6129 38.8125 20.0427 38.8125 21.8064C38.8125 23.5702 40.2396 25 42 25Z" fill="white"/>
<path d="M41.5625 30.9678L41.5625 40C41.5625 40.5523 41.1148 41 40.5625 41L39 41L39 45L46 45C46.5523 45 47 44.5523 47 44L47 37L48 37C48.5523 37 49 36.5523 49 36L49 30.9678C49 28.6194 47.0939 27.0085 44.75 27.0085H40.5C40.4446 27.0085 40.3896 27.0139 40.3348 27.0192C40.3013 27.0224 40.2678 27.0257 40.2344 27.0277C41.0695 28.2327 41.5625 29.3933 41.5625 30.9678Z" fill="white"/>
<path d="M34.125 26H29.875C26.9457 26 24.5625 28.0329 24.5625 30.9678L24.5625 38C24.5625 38.5523 25.0102 39 25.5625 39L27 39L27 47C27 47.5523 27.4477 48 28 48L36 48C36.5523 48 37 47.5523 37 47L37 39L38.4375 39C38.9898 39 39.4375 38.5523 39.4375 38L39.4375 30.9678C39.4375 28.0329 37.0543 26 34.125 26Z" fill="white"/>
</svg>
