<svg width="64" height="64" viewBox="0 0 64 64" fill="none" xmlns="http://www.w3.org/2000/svg">
<circle cx="32" cy="32" r="32" fill="#231C15"/>
<path d="M21.0575 32.7484C20.7568 32.7328 20.478 32.7593 20.2474 32.806C18.3173 33.1955 17.2268 34.8374 17.4418 36.9701C17.6365 38.9002 19.5884 40.5281 21.3971 40.5764C21.584 40.5811 21.7694 40.5686 21.9517 40.5375C23.9067 40.2041 24.4192 38.0808 24.0968 35.9933C23.7322 33.6379 22.1386 32.8076 21.0575 32.7484ZM22.9736 38.33C22.9019 38.4967 22.6168 38.7257 22.2103 38.7102C21.7912 38.6774 21.3254 38.3737 21.2631 37.6166C21.2319 37.2427 21.3737 36.7878 21.4594 36.5495C21.6276 36.0883 21.4765 35.607 21.0824 35.3484C20.8503 35.1973 20.5745 35.1459 20.3035 35.2035C20.0387 35.2611 19.8112 35.4169 19.6663 35.6428C19.5464 35.8313 19.4732 36.065 19.4327 36.1912C19.4218 36.2254 19.414 36.2519 19.4077 36.2691C19.3189 36.5074 19.1772 36.5775 19.0822 36.5635C19.037 36.5573 18.9747 36.5277 18.9342 36.4186C18.8251 36.1211 18.9139 35.2767 19.4763 34.6567C19.833 34.2641 20.3907 34.0616 20.9344 34.1317C21.4999 34.2034 21.9703 34.5461 22.2585 35.0945C22.6418 35.8235 22.3006 36.59 22.0965 37.0464C22.0747 37.0963 22.0545 37.1414 22.0373 37.1819C21.9096 37.4857 21.9034 37.7505 22.0186 37.9281C22.1074 38.0652 22.2663 38.1447 22.4533 38.1478C22.5405 38.1493 22.62 38.1306 22.6901 38.1151C22.7913 38.0917 22.8941 38.0668 22.958 38.1462C22.9814 38.1712 23.0172 38.2303 22.9736 38.33Z" fill="white"/>
<path d="M48.2569 36.4389C48.0295 36.1601 47.7553 35.9357 47.4593 35.7753C47.4344 35.6943 47.4079 35.607 47.3799 35.5182C47.3471 35.4154 47.316 35.3188 47.2848 35.23C47.7475 34.2533 47.7101 33.4027 47.6307 32.9338C47.5076 32.1409 47.1695 31.4757 46.5667 30.8432C45.8314 30.0705 44.6054 29.5752 43.6302 29.2823C43.6177 28.8181 43.6037 28.2931 43.5897 27.9659C43.571 27.5313 43.5305 26.6278 43.247 25.718C43.0367 24.9687 42.7282 24.2817 42.345 23.7006C43.8218 21.9263 44.6241 20.0943 44.621 18.4601C44.6163 15.8119 42.5553 14.0998 39.368 14.0998C37.8554 14.0998 36.1293 14.483 34.3752 15.209C34.3721 15.2105 34.2755 15.251 34.1415 15.3071C33.6088 14.7837 32.9046 14.0951 32.8579 14.0546C32.0556 13.3552 31.0602 13 29.898 13C28.5147 13 26.9257 13.5125 25.1763 14.5235C23.6668 15.3959 22.0435 16.6422 20.4842 18.1283C17.3047 21.1598 14.7405 24.7896 13.6251 27.8366C13.1468 29.1452 12.9412 30.3323 13.0144 31.3666C13.1032 32.6207 13.6126 33.6753 14.485 34.4122L15.0287 34.8717C14.8573 35.6164 14.8106 36.4062 14.8932 37.2272C15.0505 38.785 15.8388 40.2665 17.1146 41.3959C18.1412 42.3056 19.3984 42.896 20.6649 43.0783C21.8005 45.3465 23.5375 47.2579 25.72 48.6382C28.0754 50.1259 30.895 50.9593 33.8736 51.0481C34.0636 51.0543 34.2553 51.0559 34.4453 51.0559C37.5204 51.0559 40.4008 50.3003 42.7718 48.8703C45.2145 47.3981 47.0854 45.2297 48.1821 42.6032C48.1868 42.5938 48.1899 42.5845 48.193 42.5751C48.3831 42.0875 49 40.3739 49 38.7632C49.0031 37.5979 48.5981 36.8564 48.2569 36.4389ZM47.0293 42.1203C44.9232 47.166 39.8992 49.9748 33.9125 49.7972C28.3324 49.632 23.5733 46.6862 21.4905 41.8866C20.2302 41.8881 18.9326 41.3336 17.9465 40.4596C16.9059 39.539 16.2656 38.3457 16.1394 37.1025C16.0413 36.1336 16.1612 35.2331 16.465 34.448L15.2951 33.4572C9.94242 28.9365 26.6827 10.3268 32.0385 14.9971C32.065 15.0205 33.8596 16.7808 33.8642 16.7855C33.872 16.7824 34.855 16.3649 34.8597 16.3633C39.5565 14.4192 43.3669 15.357 43.3716 18.4601C43.3747 20.074 42.3465 21.9543 40.6984 23.6617C41.295 24.2163 41.7733 25.0809 42.0474 26.0716C42.278 26.8022 42.3185 27.5453 42.3388 28.0205C42.3668 28.6779 42.3995 30.2108 42.4026 30.2372C42.4447 30.2497 42.9198 30.3806 43.0647 30.4211C44.325 30.7747 45.2223 31.2467 45.6616 31.7063C46.1009 32.1674 46.3174 32.6113 46.3969 33.1348C46.4701 33.5569 46.4607 34.3016 45.9046 35.1334C45.9046 35.1334 46.0479 35.4466 46.1866 35.8905C46.3252 36.3345 46.4265 36.7037 46.442 36.7583C46.9515 36.7583 47.7522 37.3455 47.7522 38.76C47.7506 40.1714 47.1664 41.7666 47.0293 42.1203Z" fill="white"/>
<path d="M46.1881 37.914C45.9186 37.7473 45.5961 37.8065 45.5961 37.8065C45.5961 37.8065 45.4497 36.7986 45.0322 35.8826C43.7969 36.8578 42.2048 37.5432 40.9928 37.8922C39.5939 38.2941 37.7027 38.6026 35.5918 38.4764C34.4204 38.3813 33.6461 38.0402 33.3548 38.9873C36.0296 39.9672 38.8617 39.5481 38.8617 39.5481C38.9162 39.5419 38.9661 39.5824 38.9707 39.6369C38.9754 39.6821 38.9474 39.7257 38.9084 39.7429C38.9084 39.7429 36.7337 40.7523 33.2785 39.6837C33.3751 40.4937 34.1649 40.8567 34.5419 41.0047C35.017 41.1901 35.5373 41.2758 35.5373 41.2758C39.8182 42.0126 43.8202 39.5637 44.7222 38.9484C44.7892 38.9017 44.8344 38.9468 44.7798 39.0294C44.7284 39.1073 44.7253 39.112 44.691 39.1556C43.5881 40.5779 40.6236 42.226 36.7649 42.2245C35.0824 42.2245 33.4016 41.6309 32.7831 40.7212C31.825 39.3082 32.7364 37.2457 34.3316 37.4607C34.3316 37.4607 34.8768 37.523 35.031 37.5401C37.0266 37.7629 39.9148 37.4825 42.2951 36.378C44.4729 35.367 45.2955 34.2547 45.1724 33.3543C45.1381 33.1113 45.0306 32.8573 44.797 32.6174C44.406 32.2342 43.7844 31.9367 42.7375 31.6422C42.3917 31.5456 42.1565 31.4833 41.9041 31.3992C41.4539 31.2512 41.2327 31.1313 41.1828 30.2869C41.161 29.9177 41.0972 28.6294 41.0738 28.0966C41.0333 27.1635 40.9211 25.8892 40.1298 25.3627C39.9241 25.2256 39.6951 25.1602 39.4537 25.1461C39.2184 25.1352 39.1 25.1773 39.0517 25.1851C38.6 25.2614 38.3336 25.5013 38.0002 25.7786C37.0141 26.6011 36.1807 26.7351 35.2554 26.6946C34.7023 26.6712 34.115 26.5856 33.4436 26.5451C33.3128 26.5373 33.1819 26.5295 33.051 26.5217C31.4995 26.4422 29.8357 27.782 29.56 29.6841C29.1752 32.3323 31.0929 33.7001 31.6459 34.5039C31.716 34.6005 31.7986 34.7361 31.7986 34.8638C31.7986 35.018 31.6989 35.1395 31.6007 35.2423V35.2439C30.018 36.8718 29.5117 39.4562 30.1083 41.6123C30.1831 41.8818 30.2766 42.1388 30.3887 42.3849C31.7877 45.6548 36.1293 47.1783 40.3697 45.7934C40.9383 45.6081 41.4757 45.3791 41.9804 45.1127C42.9323 44.6469 43.7626 44.0051 44.448 43.2682C45.5728 42.0921 46.2426 40.8147 46.5028 39.2397C46.629 38.3969 46.442 38.0698 46.1881 37.914ZM40.4772 32.499C40.4709 32.848 40.2606 33.1268 40.0067 33.1222C39.7528 33.1175 39.5518 32.8324 39.5565 32.4835C39.5627 32.1345 39.773 31.8557 40.0269 31.8603C40.2824 31.865 40.4834 32.1516 40.4772 32.499ZM39.3119 28.3786C39.8057 28.2992 40.0456 28.8117 40.2217 29.6576C40.3401 30.2262 40.3183 30.7496 40.1858 31.0534C39.9568 31.0207 39.7091 31.0222 39.449 31.0534C39.2511 30.801 39.0751 30.3944 38.9754 29.9193C38.7994 29.0718 38.8181 28.4581 39.3119 28.3786ZM37.6528 32.9274C37.765 32.7 38.1093 32.6392 38.4224 32.7919C38.7355 32.9461 38.8975 33.2546 38.7854 33.4836C38.6732 33.711 38.3289 33.7718 38.0158 33.6175C37.7042 33.4649 37.5407 33.1549 37.6528 32.9274ZM35.7149 32.6704C35.6635 32.7498 35.5545 32.7358 35.3223 32.7093C34.9033 32.661 34.4796 32.633 33.8393 32.8636C33.8393 32.8636 33.6056 32.957 33.5028 32.957C33.4732 32.957 33.4483 32.9461 33.4265 32.9274C33.4109 32.915 33.3922 32.8885 33.3906 32.8433C33.3906 32.7483 33.4763 32.6143 33.615 32.4928C33.7785 32.351 34.0325 32.1999 34.4936 32.1267C35.1276 32.0519 35.5934 32.3479 35.7009 32.5224C35.7476 32.5987 35.7305 32.6486 35.7149 32.6704ZM32.1756 31.798C32.093 31.7871 32.0572 31.7513 32.0463 31.703C32.0135 31.5566 32.2379 31.3166 32.4747 31.1437C33.1912 30.6281 34.1213 30.5175 34.9002 30.8524C35.2818 31.0144 35.6401 31.3042 35.8146 31.5893C35.8987 31.7279 35.9159 31.8338 35.8613 31.8899C35.7757 31.9803 35.5591 31.8775 35.2055 31.7217C34.8519 31.5659 34.3923 31.393 33.8377 31.4273C33.0526 31.4755 32.3703 31.8198 32.1756 31.798Z" fill="white"/>
<path d="M37.5641 22.1974C37.6326 22.213 37.6747 22.0962 37.6139 22.0619C36.7182 21.5587 35.3426 21.2176 34.3674 21.2113C34.3191 21.2113 34.2927 21.1552 34.3207 21.1163C34.4889 20.8889 34.7211 20.6645 34.9314 20.5025C34.9781 20.4667 34.9501 20.3904 34.8909 20.3935C33.5013 20.4792 31.9185 21.1443 31.0072 21.7644C30.962 21.7955 30.9044 21.755 30.9153 21.702C30.987 21.3609 31.2097 20.9091 31.3266 20.6988C31.3546 20.649 31.3001 20.5944 31.2502 20.6194C29.7875 21.3687 28.1533 22.7006 26.826 24.2351C26.7793 24.2896 26.8494 24.3659 26.907 24.3238C28.0536 23.4904 29.6239 22.7146 31.6833 22.213C33.9889 21.6506 36.2088 21.8874 37.5641 22.1974Z" fill="white"/>
<path d="M32.6102 17.4445C32.6102 17.4445 31.1536 15.7542 30.7128 15.6296C28.0068 14.8974 22.1603 18.9306 18.4263 24.2568C16.9152 26.4128 14.7529 30.2295 15.7873 32.1923C15.9151 32.4353 16.6363 33.06 17.0227 33.384C17.6707 32.4431 18.7285 31.7624 19.9311 31.5287C21.4609 27.4238 24.0141 23.6415 27.3946 21.0384C29.9042 18.9462 32.6102 17.4445 32.6102 17.4445Z" fill="white"/>
</svg>
