<svg width="64" height="64" viewBox="0 0 64 64" fill="none" xmlns="http://www.w3.org/2000/svg">
<circle cx="32" cy="32" r="32" fill="#1285FF"/>
<path d="M52 42.2941V31.7913C52 26.1742 49.292 23 44.2868 23C41.2442 23 38.947 24.2448 37.6082 26.3609H37.5321V24.7427H34.9611L34.9763 40.8315C34.9763 40.9871 34.9458 42.1541 34.9763 42.2941H37.5169C37.5473 42.1696 37.5473 40.9871 37.5473 40.8315V32.6782C37.5473 28.2281 39.951 25.4273 43.7392 25.4273C47.4512 25.4273 49.4137 27.6524 49.4137 31.9002L49.3985 42.2941" fill="white"/>
<path d="M20.4019 39.8979C24.4638 39.8979 27.2327 36.9727 27.2327 32.6471C27.2327 28.3214 24.4638 25.3962 20.4019 25.3962C16.3703 25.3962 13.6167 28.3214 13.6167 32.6471C13.6167 36.9727 16.3703 39.8979 20.4019 39.8979ZM20.4019 23C26.0004 23 29.8341 26.9055 29.8341 32.6471C29.8341 38.3575 25.9852 42.2941 20.4019 42.2941C14.849 42.2941 11 38.3575 11 32.6471C11 26.8899 14.849 23 20.4019 23Z" fill="white"/>
</svg>
