<svg width="64" height="64" viewBox="0 0 64 64" fill="none" xmlns="http://www.w3.org/2000/svg">
<circle cx="32" cy="32" r="32" fill="#009BF3"/>
<path d="M47.7649 16.6343L40.8588 15.0406C40.1084 14.8679 39.3381 15.2597 39.0326 15.9636L35.8452 23.4009C35.5663 24.0517 35.7522 24.8154 36.3034 25.2603L40.3275 28.5539C37.9369 33.6472 33.7601 37.8838 28.5606 40.3209L25.2669 36.2968C24.8153 35.7456 24.0583 35.5597 23.4076 35.8386L15.9702 39.026C15.2597 39.3381 14.8679 40.1084 15.0405 40.8588L16.6343 47.7649C16.8003 48.482 17.4378 49 18.1881 49C35.1944 49 49 35.221 49 18.1882C49 17.4444 48.4887 16.8003 47.7649 16.6343Z" fill="white"/>
</svg>
