<svg width="64" height="64" viewBox="0 0 64 64" fill="none" xmlns="http://www.w3.org/2000/svg">
<circle cx="32" cy="32" r="32" fill="#0F151F"/>
<path d="M25.88 15H28.6V16.36H27.24V19.08H25.88V15Z" fill="white"/>
<path d="M32.6801 24.52H31.3201V21.8L34.0399 21.8V23.16H32.6801V24.52Z" fill="white"/>
<path d="M34.0399 24.52V25.88H32.6799L32.6801 24.52H34.0399Z" fill="white"/>
<path d="M34.0399 24.52V23.16L35.3999 23.16V24.52H34.0399Z" fill="white"/>
<path d="M31.3201 21.8H29.9601L29.96 20.44L31.3201 20.44V21.8Z" fill="white"/>
<path fill-rule="evenodd" clip-rule="evenodd" d="M38.12 25.88V16.36H36.76V17.72H35.3999V15H29.9601V16.36H28.6V20.44L25.88 20.44V21.8H27.24V23.16L25.88 23.16V24.52H27.24V23.16H28.6V24.52H29.96L29.9601 28.6H32.6801L32.6799 29.96H29.9601V31.32H28.6V27.24L27.24 27.24V25.88H19.08V27.24H16.36V25.88H15V29.96H16.36V28.6H17.72V29.96H19.08V31.32L16.36 31.32V32.68H15V38.12H16.36V35.4H19.08V38.12H20.4399L20.4401 34.04H21.8V35.4H24.52V34.04L21.8 34.04V32.68H24.52V31.32H25.88V34.04H27.24V35.4H28.6V38.12H29.96L29.9601 39.48H31.3201V38.12H32.6801L32.6799 39.48H34.0399V36.76H32.6801L32.6799 35.4H34.0399V34.04H35.3999L35.4 35.4H39.48V34.04L38.12 34.04V32.68H34.0399V34.04H32.6801V32.68H31.3201V31.32H32.6801L32.6799 29.96H34.0399V28.6H35.3999L35.4 29.96H36.76V31.32H38.12V28.6H39.48V32.68H42.2V35.4H40.84V36.76H36.76V39.48H38.12V38.12H42.2V39.48H43.5599V36.76H45.2222V38.0822H46.28V38.12L44.92 38.12V39.48H47.64V36.76H49V34.04L47.64 34.04V32.68H49V28.6H47.64V27.24H49V25.88H44.92V27.24H43.5599V25.88H42.2V27.24L40.84 27.24V28.6H39.48V25.88L38.12 25.88ZM36.76 25.88V28.6H38.12V25.88H36.76ZM32.6799 25.88L32.6801 27.24H35.4V25.88L36.76 25.88V20.44H35.4L35.3999 19.08H34.0399V20.44H32.6799L32.6801 17.72H34.0399V16.36H32.6801V17.72H29.96V20.44H28.6V21.8H29.9601L29.96 24.52H31.3201V25.88H32.6799ZM47.64 28.6V29.96H44.9199V28.6H47.64ZM40.84 28.6V29.96H42.2V32.68H43.5599V34.04H46.28V32.68H47.64V31.32H43.5599V28.6H40.84ZM47.64 36.76V35.4H46.28V36.7222H46.5822V36.76H47.64ZM43.5599 36.76H42.2V35.4H43.5599V36.76ZM31.3201 32.68H28.6V31.32H27.24V28.6H25.88V27.24H20.4399V28.6H19.08V29.96H20.4401L20.4399 28.6H25.88V31.32H27.24V34.04L29.96 34.04V36.76H31.3201V35.4H32.6799L32.6801 34.04H31.3201V32.68ZM24.52 31.32V29.96H23.16V31.32H24.52ZM20.4399 32.68L20.4401 34.04H19.08V32.68H20.4399ZM20.4399 32.68H21.8V31.32H20.4399V32.68Z" fill="white"/>
<path d="M21.8 36.76H27.24V39.48H25.88V38.12H21.8V36.76Z" fill="white"/>
<path d="M25.88 39.48H27.24V40.84H31.3201V43.5599H28.6V42.2H27.24V43.5599H25.88V39.48Z" fill="white"/>
<path d="M32.6801 40.84H31.3201V39.48H32.6799L32.6801 40.84Z" fill="white"/>
<path d="M32.6801 40.84L34.0399 40.84V43.5599H32.6799L32.6801 40.84Z" fill="white"/>
<path d="M36.76 40.84V39.48H38.12V42.2H42.2V39.48H43.5599V43.5599H40.84H35.4V40.84L36.76 40.84Z" fill="white"/>
<path d="M40.84 39.48H39.48V40.84H40.84V39.48Z" fill="white"/>
<path d="M49 39.48L47.64 39.48V40.84H49V39.48Z" fill="white"/>
<path d="M46.28 42.2H49V43.5599H46.28V42.2Z" fill="white"/>
<path d="M25.88 44.92V43.5599H27.24H28.6V44.92H25.88Z" fill="white"/>
<path d="M31.3201 44.92V46.28H28.6V44.92H31.3201Z" fill="white"/>
<path d="M31.3201 44.92V43.5599H32.6799H34.0399H35.4H40.84V44.92H39.48V46.28H38.12V44.92H34.0399V46.28H32.6799L32.6801 44.92H31.3201Z" fill="white"/>
<path d="M46.28 43.5599V44.92H42.2V46.28H43.5599H44.9199H49V43.5599H46.28Z" fill="white"/>
<path d="M27.24 46.28L28.6 46.28H31.3201H32.6799H34.0399V49H25.88V47.64H27.24V46.28Z" fill="white"/>
<path d="M42.2 46.28L40.84 46.28V47.64H43.5599V49H44.9199L44.92 47.64H47.64V49H49V46.28H44.9199L44.92 47.64H43.5599V46.28H42.2Z" fill="white"/>
<path d="M36.76 49V47.64H39.48V49H36.76Z" fill="white"/>
<path d="M15 15V24.52H24.52V15H15Z" fill="white"/>
<path d="M39.48 15V24.52H49V15H39.48Z" fill="white"/>
<path d="M15 39.48V49H24.52V39.48H15Z" fill="white"/>
</svg>
