<svg width="64" height="64" viewBox="0 0 64 64" fill="none" xmlns="http://www.w3.org/2000/svg">
<circle cx="32" cy="32" r="32" fill="#00A1E0"/>
<path d="M48.5184 31.1533C48.1681 31.1533 47.9198 31.2855 47.7559 31.5258C47.6476 31.6835 47.5782 31.8874 47.5404 32.1313H49.4422C49.4233 31.8959 49.3754 31.6835 49.2658 31.5258C49.0994 31.2855 48.8675 31.1533 48.5184 31.1533ZM21.9254 32.7028C21.9254 32.7028 21.5838 32.6482 21.202 32.6433C20.6575 32.6361 20.4269 32.829 20.4282 32.829C20.2681 32.9382 20.19 33.1008 20.19 33.3265C20.19 33.4697 20.2164 33.5813 20.2694 33.6602C20.3047 33.7123 20.3198 33.7318 20.4231 33.8118C20.4206 33.8106 20.6626 33.9939 21.2045 33.9623C21.5864 33.9405 21.9241 33.8701 21.9241 33.8701H21.9229V32.7028H21.9254ZM37.8867 31.1691C37.5364 31.1691 37.2869 31.2855 37.123 31.5258C36.9579 31.7685 36.8735 32.1143 36.8735 32.5523C36.8735 32.9916 36.9579 33.3386 37.123 33.5837C37.2856 33.8264 37.5364 33.9441 37.8867 33.9441C38.2371 33.9441 38.4879 33.8264 38.653 33.5837C38.8206 33.3386 38.9063 32.9928 38.9063 32.5523C38.9063 32.1131 38.8206 31.7673 38.6542 31.5258C38.4879 31.2855 38.2371 31.1691 37.8867 31.1691ZM27.1643 31.1533C26.814 31.1533 26.5657 31.2855 26.4019 31.5258C26.2935 31.6835 26.2242 31.8874 26.1864 32.1313H28.0881C28.0692 31.8959 28.0213 31.6835 27.9117 31.5258C27.7466 31.2855 27.5147 31.1533 27.1643 31.1533ZM45.0829 22.1996C43.655 22.1996 42.2977 22.4932 41.0715 23.0198C39.6612 20.5991 37.0109 18.9695 33.9749 18.9695C31.69 18.9695 29.6256 19.8929 28.141 21.3805C26.5102 19.3262 23.9355 18 21.0381 18C16.1042 18 12.1041 21.8465 12.1041 26.5909C12.1041 27.8055 12.3675 28.9607 12.8388 30.0066C10.5451 31.2977 9 33.7123 9 36.4765C9 40.602 12.438 43.9462 16.6776 43.9462C17.2182 43.9462 17.7463 43.8916 18.2555 43.7872C19.4199 46.8304 22.4559 49 26.0175 49C29.4379 49 32.3718 47.0003 33.6308 44.1476C34.5886 44.5978 35.6649 44.8502 36.8029 44.8502C39.5201 44.8502 41.8881 43.4086 43.1307 41.2743C43.7621 41.3968 44.4162 41.4611 45.0842 41.4611C50.5613 41.4611 55.0013 37.1487 55.0013 31.8291C55 26.512 50.5601 22.1996 45.0829 22.1996ZM18.8503 33.3774C18.8503 34.1552 18.2643 34.6382 17.3203 34.6382C16.8565 34.6382 16.4142 34.5678 15.9454 34.3288C15.8572 34.2802 15.7689 34.2365 15.682 34.1759C15.6732 34.1637 15.6341 34.148 15.6618 34.0752L15.8483 33.5777C15.8773 33.4915 15.9454 33.5206 15.9718 33.5364C16.0235 33.5655 16.0613 33.5934 16.1281 33.6298C16.6763 33.9635 17.1842 33.9672 17.343 33.9672C17.7526 33.9672 18.0072 33.7572 18.0072 33.4757V33.4612C18.0072 33.153 17.6165 33.0377 17.1615 32.903L17.0607 32.8739C16.4381 32.7028 15.7727 32.4565 15.7727 31.6969V31.6823C15.7727 30.9628 16.3751 30.4604 17.2397 30.4604L17.3342 30.4592C17.8408 30.4592 18.3311 30.6012 18.6865 30.8087C18.718 30.8281 18.7495 30.8633 18.7318 30.9106C18.7155 30.9543 18.5579 31.362 18.5403 31.4081C18.5062 31.493 18.4155 31.436 18.4155 31.436C18.1055 31.271 17.6228 31.1411 17.217 31.1411C16.8515 31.1411 16.6158 31.328 16.6158 31.5816V31.5974C16.6158 31.8935 17.0191 32.0196 17.4879 32.1665L17.5686 32.192C18.1887 32.38 18.8503 32.6421 18.8503 33.3605V33.3774V33.3774ZM22.713 34.3882C22.713 34.3882 22.6147 34.4137 22.5265 34.4343C22.437 34.4537 22.1169 34.5168 21.8548 34.5593C21.5901 34.603 21.3179 34.6248 21.0444 34.6248C20.7848 34.6248 20.5479 34.6018 20.3387 34.5557C20.127 34.5096 19.943 34.4331 19.7955 34.3288C19.6455 34.2244 19.5283 34.0897 19.4477 33.9271C19.367 33.7657 19.3254 33.568 19.3254 33.341C19.3254 33.1178 19.3733 32.9188 19.4678 32.7489C19.5624 32.5802 19.6922 32.4371 19.8547 32.3254C20.0161 32.2138 20.2038 32.1301 20.4118 32.0767C20.6185 32.0233 20.8403 31.9954 21.0684 31.9954C21.236 31.9954 21.3759 32.0002 21.4843 32.0075C21.4843 32.0075 21.6947 32.0257 21.9241 32.0573V31.9493C21.9241 31.6071 21.8498 31.4457 21.7048 31.3377C21.5548 31.2273 21.3343 31.1715 21.0457 31.1715C21.0457 31.1715 20.3967 31.163 19.8837 31.4324C19.8598 31.4457 19.8396 31.453 19.8396 31.453C19.8396 31.453 19.7766 31.4748 19.7527 31.4117L19.5636 30.9239C19.5346 30.8536 19.5876 30.822 19.5876 30.822C19.827 30.6412 20.4105 30.5332 20.4105 30.5332C20.6033 30.4956 20.9247 30.4689 21.1251 30.4689C21.6582 30.4689 22.0703 30.5878 22.3501 30.8244C22.6311 31.0611 22.7735 31.4433 22.7735 31.9578L22.7748 34.3057C22.7748 34.3045 22.7798 34.3724 22.713 34.3882ZM24.5039 34.4622C24.5039 34.5047 24.4724 34.5399 24.427 34.5399H23.72C23.6759 34.5399 23.6444 34.5047 23.6444 34.4622V28.9837C23.6444 28.9412 23.6759 28.9061 23.72 28.9061H24.427C24.4711 28.9061 24.5039 28.9412 24.5039 28.9837V34.4622ZM28.9186 32.7004C28.9111 32.7659 28.8418 32.7671 28.8418 32.7671L26.175 32.7647C26.1927 33.1542 26.2884 33.4308 26.485 33.6189C26.6766 33.8021 26.9841 33.9198 27.3962 33.9211C28.0301 33.9223 28.3011 33.7997 28.4914 33.7318C28.4914 33.7318 28.5658 33.7063 28.5922 33.7754L28.7661 34.245C28.8014 34.3251 28.7737 34.3518 28.7435 34.3676C28.5758 34.4562 28.1713 34.6224 27.4013 34.6248C27.027 34.626 26.7018 34.5739 26.4334 34.4744C26.1637 34.3737 25.9381 34.2305 25.7629 34.046C25.5877 33.864 25.4579 33.6432 25.376 33.3932C25.2953 33.1457 25.255 32.869 25.255 32.5742C25.255 32.283 25.2953 32.0075 25.3722 31.7551C25.4491 31.5003 25.5713 31.277 25.7327 31.089C25.894 30.9009 26.1007 30.7492 26.3464 30.6376C26.5909 30.526 26.8946 30.4726 27.2261 30.4726C27.5122 30.4726 27.773 30.532 27.9898 30.6218C28.1562 30.691 28.3238 30.816 28.4952 30.9931C28.6036 31.106 28.7687 31.3511 28.8355 31.5937C29.0106 32.1725 28.9212 32.6725 28.9186 32.7004ZM31.1342 34.6382C30.6704 34.6382 30.2281 34.5678 29.7592 34.3288C29.671 34.2802 29.5828 34.2365 29.4958 34.1759C29.487 34.1637 29.4479 34.148 29.4757 34.0752L29.6622 33.5777C29.6899 33.4964 29.7693 33.5255 29.787 33.5364C29.8374 33.5667 29.8764 33.5934 29.942 33.6298C30.4902 33.9635 30.9981 33.9672 31.1581 33.9672C31.5677 33.9672 31.8236 33.7572 31.8236 33.4757V33.4612C31.8236 33.153 31.4316 33.0377 30.9779 32.903L30.8771 32.8739C30.2545 32.7028 29.5891 32.4565 29.5891 31.6969V31.6823C29.5891 30.9628 30.1915 30.4604 31.0561 30.4604L31.1506 30.4592C31.6572 30.4592 32.1475 30.6012 32.5029 30.8087C32.5344 30.8281 32.5659 30.8633 32.5482 30.9106C32.5318 30.9543 32.3743 31.362 32.3567 31.4081C32.3226 31.493 32.2319 31.436 32.2319 31.436C31.9219 31.271 31.4392 31.1411 31.0321 31.1411C30.6666 31.1411 30.431 31.328 30.431 31.5816V31.5974C30.431 31.8935 30.8342 32.0196 31.3031 32.1665L31.3837 32.192C32.0038 32.38 32.6654 32.6421 32.6654 33.3605V33.375C32.6642 34.1552 32.0781 34.6382 31.1342 34.6382ZM35.7909 31.1678C35.7758 31.2455 35.7014 31.2431 35.7014 31.2431H34.823L34.2219 34.5156C34.1589 34.8542 34.0795 35.1442 33.9875 35.3771C33.8942 35.6137 33.7972 35.786 33.6409 35.9523C33.4972 36.1052 33.3346 36.218 33.1481 36.2823C32.9629 36.3466 32.7385 36.3806 32.494 36.3806C32.3768 36.3806 32.2521 36.3782 32.1033 36.3454C31.9962 36.3212 31.9382 36.303 31.8601 36.2763C31.8261 36.2641 31.8009 36.2241 31.8185 36.1731C31.8374 36.1222 31.995 35.706 32.0164 35.6514C32.0441 35.5846 32.1122 35.6101 32.1122 35.6101C32.1601 35.6295 32.1928 35.6429 32.2558 35.655C32.3189 35.6671 32.4058 35.6781 32.4701 35.6781C32.586 35.6781 32.6919 35.6647 32.7839 35.6344C32.8948 35.598 32.9591 35.5361 33.0271 35.4536C33.0977 35.3662 33.1544 35.2473 33.2136 35.0883C33.2729 34.927 33.3271 34.7146 33.3737 34.4562L33.9711 31.2431H33.3825C33.3119 31.2431 33.2893 31.2103 33.2956 31.1606L33.3951 30.6267C33.4102 30.5502 33.4846 30.5526 33.4846 30.5526H34.0895L34.1223 30.3791C34.213 29.8634 34.3933 29.4715 34.6579 29.2143C34.9251 28.9558 35.3044 28.8248 35.7871 28.8248C35.9258 28.8248 36.0467 28.8333 36.1501 28.8515C36.2509 28.8697 36.3278 28.8866 36.4135 28.9121C36.4324 28.9194 36.4841 28.9437 36.4626 29.0019L36.2585 29.5407C36.2408 29.5807 36.2295 29.6062 36.1425 29.5807C36.1211 29.5746 36.0883 29.5661 36.0064 29.5479C35.9472 29.5358 35.8678 29.5273 35.7871 29.5273C35.6813 29.5273 35.5855 29.5395 35.501 29.5661C35.4179 29.5916 35.3435 29.6365 35.278 29.6996C35.2112 29.7639 35.133 29.8586 35.0915 29.9739C34.9944 30.2457 34.9553 30.5344 34.9503 30.5526H35.8022C35.8741 30.5526 35.8955 30.5842 35.8892 30.6352L35.7909 31.1678ZM39.694 33.3677C39.6171 33.6189 39.4961 33.841 39.3361 34.0266C39.176 34.2123 38.9718 34.3603 38.7311 34.4659C38.4904 34.5714 38.2069 34.6248 37.8867 34.6248C37.5666 34.6248 37.2831 34.5714 37.0424 34.4659C36.8016 34.3603 36.5975 34.2123 36.4374 34.0266C36.2761 33.841 36.1564 33.6189 36.0782 33.3677C36.0014 33.1178 35.9623 32.8435 35.9623 32.5523C35.9623 32.2611 36.0014 31.9881 36.0782 31.7369C36.1564 31.4858 36.2774 31.2637 36.4362 31.078C36.5975 30.8924 36.8004 30.7431 37.0411 30.6352C37.2818 30.5272 37.5654 30.4726 37.8855 30.4726C38.2043 30.4726 38.4892 30.5272 38.7299 30.6352C38.9706 30.7431 39.1747 30.8924 39.3348 31.078C39.4949 31.2625 39.6158 31.4845 39.6927 31.7369C39.7696 31.9869 39.8087 32.2623 39.8087 32.5523C39.8099 32.8423 39.7721 33.1166 39.694 33.3677ZM42.9896 30.6849C42.9644 30.7553 42.8346 31.106 42.7892 31.2237C42.7716 31.2686 42.7438 31.2989 42.6922 31.2928C42.6922 31.2928 42.5384 31.2576 42.3998 31.2576C42.3027 31.2576 42.1654 31.2698 42.0419 31.3062C41.9209 31.3426 41.81 31.4057 41.7117 31.4967C41.6146 31.5877 41.5365 31.7151 41.4785 31.874C41.4193 32.0354 41.3903 32.2915 41.3903 32.5475V34.4598C41.3903 34.5023 41.3538 34.5375 41.3096 34.5375H40.6089C40.5648 34.5375 40.5283 34.5023 40.5283 34.4598V30.6303C40.5283 30.5866 40.5598 30.5526 40.6052 30.5526H41.2882C41.3323 30.5526 41.3651 30.5878 41.3651 30.6303V30.9421C41.4672 30.8099 41.6512 30.6946 41.8163 30.6218C41.9826 30.5502 42.1692 30.4956 42.5031 30.515C42.6783 30.526 42.9052 30.5721 42.9505 30.589C42.9669 30.6 43.0098 30.6267 42.9896 30.6849ZM46.323 34.4307C46.0256 34.5435 45.611 34.6224 45.2077 34.6224C44.5246 34.6224 44.0016 34.4319 43.6525 34.0594C43.3047 33.6869 43.1282 33.1784 43.1282 32.5499C43.1282 32.2587 43.1711 31.9845 43.2568 31.7333C43.3425 31.4821 43.471 31.2601 43.6399 31.0744C43.8088 30.8888 44.023 30.7395 44.2738 30.6327C44.5259 30.5247 44.8208 30.4701 45.1522 30.4701C45.374 30.4701 45.5732 30.4835 45.7433 30.509C45.926 30.5357 46.1667 30.5975 46.2688 30.6364C46.2877 30.6437 46.3381 30.6679 46.3167 30.7249C46.2436 30.9276 46.1919 31.0598 46.1239 31.2431C46.0949 31.3207 46.0319 31.2952 46.0319 31.2952C45.7723 31.2164 45.5253 31.18 45.2001 31.18C44.8107 31.18 44.5183 31.305 44.3255 31.5501C44.1327 31.7964 44.0243 32.1191 44.023 32.5487C44.0218 33.0207 44.144 33.369 44.3608 33.5849C44.5775 33.8009 44.88 33.9101 45.2619 33.9101C45.4169 33.9101 45.5618 33.9004 45.6941 33.881C45.8239 33.8616 45.9462 33.8228 46.0609 33.7803C46.0609 33.7803 46.1352 33.7524 46.1617 33.8264L46.3545 34.3409C46.381 34.404 46.323 34.4307 46.323 34.4307ZM50.2715 32.7004C50.2639 32.7659 50.1946 32.7671 50.1946 32.7671L47.5278 32.7647C47.5455 33.1542 47.6413 33.4308 47.8379 33.6189C48.0294 33.8021 48.3369 33.9198 48.7503 33.9211C49.383 33.9223 49.6539 33.7997 49.8442 33.7318C49.8442 33.7318 49.9186 33.7063 49.945 33.7754L50.119 34.245C50.1542 34.3251 50.1265 34.3518 50.0963 34.3676C49.9287 34.4562 49.5241 34.6224 48.7541 34.6248C48.3798 34.626 48.0546 34.5739 47.7862 34.4744C47.5165 34.3737 47.2909 34.2305 47.1157 34.046C46.9406 33.864 46.8107 33.6432 46.7288 33.3932C46.6482 33.1457 46.6078 32.869 46.6078 32.5742C46.6078 32.283 46.6469 32.0075 46.725 31.7551C46.8019 31.5003 46.9242 31.277 47.0855 31.089C47.2468 30.9009 47.4535 30.7492 47.6992 30.6376C47.9437 30.526 48.2462 30.4726 48.5789 30.4726C48.865 30.4726 49.1259 30.532 49.3426 30.6218C49.509 30.691 49.6766 30.816 49.848 30.9931C49.9564 31.106 50.1227 31.3511 50.1895 31.5937C50.3635 32.1725 50.274 32.6725 50.2715 32.7004Z" fill="white"/>
</svg>
