<svg width="64" height="64" viewBox="0 0 64 64" fill="none" xmlns="http://www.w3.org/2000/svg">
<circle cx="32" cy="32" r="32" fill="#E01563"/>
<path d="M21.5635 36.7493C21.5635 38.8307 19.8632 40.531 17.7818 40.531C15.7003 40.531 14 38.8307 14 36.7493C14 34.6678 15.7003 32.9675 17.7818 32.9675H21.5635V36.7493Z" fill="white"/>
<path d="M23.4691 36.7492C23.4691 34.6678 25.1694 32.9675 27.2508 32.9675C29.3323 32.9675 31.0326 34.6678 31.0326 36.7492V46.2183C31.0326 48.2997 29.3323 50 27.2508 50C25.1694 50 23.4691 48.2997 23.4691 46.2183V36.7492Z" fill="white"/>
<path d="M27.2508 21.5635C25.1694 21.5635 23.4691 19.8632 23.4691 17.7818C23.4691 15.7003 25.1694 14 27.2508 14C29.3323 14 31.0326 15.7003 31.0326 17.7818V21.5635H27.2508Z" fill="white"/>
<path d="M27.2508 23.4691C29.3323 23.4691 31.0326 25.1694 31.0326 27.2508C31.0326 29.3323 29.3323 31.0326 27.2508 31.0326H17.7818C15.7003 31.0326 14 29.3323 14 27.2508C14 25.1694 15.7003 23.4691 17.7818 23.4691H27.2508Z" fill="white"/>
<path d="M42.4365 27.2508C42.4365 25.1694 44.1368 23.4691 46.2183 23.4691C48.2997 23.4691 50 25.1694 50 27.2508C50 29.3323 48.2997 31.0326 46.2183 31.0326H42.4365V27.2508Z" fill="white"/>
<path d="M40.531 27.2508C40.531 29.3323 38.8306 31.0326 36.7492 31.0326C34.6678 31.0326 32.9674 29.3323 32.9674 27.2508V17.7818C32.9674 15.7003 34.6678 14 36.7492 14C38.8306 14 40.531 15.7003 40.531 17.7818V27.2508Z" fill="white"/>
<path d="M36.7492 42.4365C38.8307 42.4365 40.531 44.1368 40.531 46.2183C40.531 48.2997 38.8307 50 36.7492 50C34.6678 50 32.9675 48.2997 32.9675 46.2183V42.4365H36.7492Z" fill="white"/>
<path d="M36.7492 40.531C34.6678 40.531 32.9674 38.8307 32.9674 36.7493C32.9674 34.6678 34.6678 32.9675 36.7492 32.9675H46.2183C48.2997 32.9675 50 34.6678 50 36.7493C50 38.8307 48.2997 40.531 46.2183 40.531H36.7492Z" fill="white"/>
</svg>
