<svg width="64" height="64" viewBox="0 0 64 64" fill="none" xmlns="http://www.w3.org/2000/svg">
<circle cx="32" cy="32" r="32" fill="#EA1394"/>
<path fill-rule="evenodd" clip-rule="evenodd" d="M15 19.8333C15 18.2685 16.2685 17 17.8333 17H46.1667C47.7315 17 49 18.2685 49 19.8333V43C49 44.6569 47.6569 46 46 46H26.7037L24.4354 49.9513C23.9028 50.879 22.5735 50.9044 22.0059 49.9976L19.5037 46H17.8333C16.2685 46 15 44.7315 15 43.1667V19.8333ZM22.0802 36H21.1332C20.7917 36 20.5123 35.7469 20.5123 35.4375V34.3125C20.5123 34.0031 20.7917 33.75 21.1332 33.75H22.088C22.5537 33.75 22.8952 33.5039 22.8952 33.2859C22.8952 33.1945 22.8331 33.0961 22.7322 33.0187L21.0323 31.6969C20.3726 31.1906 20 30.4664 20 29.7211C20 28.2234 21.4748 27.007 23.2911 27.007H24.238C24.5796 27.007 24.859 27.2602 24.859 27.5695V28.6945C24.859 29.0039 24.5796 29.257 24.238 29.257H23.2833C22.8176 29.257 22.4761 29.5031 22.4761 29.7211C22.4761 29.8125 22.5382 29.9109 22.6391 29.9883L24.3389 31.3102C24.9987 31.8164 25.3713 32.5406 25.3713 33.2859C25.379 34.7836 23.8965 36 22.0802 36ZM36.9676 35.4375C36.9676 35.7469 36.6882 36 36.3467 36H35.1048C34.7632 36 34.4838 35.7469 34.4838 35.4375V30.6422L32.5588 34.5656C32.3337 34.9805 31.674 34.9805 31.4489 34.5656L29.5162 30.6422V35.4375C29.5162 35.7469 29.2367 36 28.8952 36H27.6533C27.3118 36 27.0323 35.7469 27.0323 35.4375V28.125C27.0323 27.5063 27.5912 27 28.2742 27H29.5162C29.9896 27 30.4165 27.2391 30.6261 27.6187L32 30.1078L33.3739 27.6187C33.5834 27.2391 34.0181 27 34.4838 27H35.7257C36.4088 27 36.9676 27.5063 36.9676 28.125V35.4375ZM40.7167 36H39.7619C39.4204 36 39.141 35.7469 39.141 35.4375V34.3125C39.141 34.0031 39.4204 33.75 39.7619 33.75H40.7167C41.1824 33.75 41.5239 33.5039 41.5239 33.2859C41.5239 33.1945 41.4618 33.0961 41.3609 33.0187L39.661 31.6969C39.0013 31.1906 38.6287 30.4664 38.6287 29.7211C38.6287 28.2234 40.1035 27.007 41.9198 27.007H42.8667C43.2082 27.007 43.4877 27.2602 43.4877 27.5695V28.6945C43.4877 29.0039 43.2082 29.257 42.8667 29.257H41.912C41.4463 29.257 41.1048 29.5031 41.1048 29.7211C41.1048 29.8125 41.1669 29.9109 41.2678 29.9883L42.9676 31.3102C43.6274 31.8164 44 32.5406 44 33.2859C44.0077 34.7836 42.533 36 40.7167 36Z" fill="white"/>
</svg>
