<svg width="64" height="64" viewBox="0 0 64 64" fill="none" xmlns="http://www.w3.org/2000/svg">
<circle cx="32" cy="32" r="32" fill="#34B0B3"/>
<path d="M25.7001 36.9375C25.5656 36.9375 25.4312 36.9573 25.3029 36.9992C24.5739 37.2377 23.8073 37.3906 23.0001 37.3906C22.1929 37.3906 21.4262 37.2377 20.6966 36.9992C20.5684 36.9573 20.4345 36.9375 20.3001 36.9375C16.8092 36.9375 13.9815 39.7967 14.0001 43.3164C14.008 44.8037 15.2224 46 16.7001 46H29.3001C30.7777 46 31.9922 44.8037 32 43.3164C32.0186 39.7967 29.1909 36.9375 25.7001 36.9375ZM23.0001 35.125C25.9824 35.125 28.4001 32.6906 28.4001 29.6875C28.4001 26.6844 25.9824 24.25 23.0001 24.25C20.0177 24.25 17.6001 26.6844 17.6001 29.6875C17.6001 32.6906 20.0177 35.125 23.0001 35.125ZM47.3 17L25.2263 17.0415C23.7374 17.0415 22.5263 18.3018 22.5263 19.8503V21.8333C23 21.8333 24.8947 21.8333 26.3158 22.8V20.8667H46.2105V37.3906H42.4211V35.4C42.4211 34.8477 41.9733 34.4 41.4211 34.4H36.7895C36.2372 34.4 35.7895 34.8477 35.7895 35.4V37.3906H31.4727C32.9474 38.2667 33.5252 39.1312 33.8947 40.5625H47.3C48.7889 40.5625 50 39.3022 50 37.7537V19.8088C50 18.2603 48.7889 17 47.3 17Z" fill="white"/>
</svg>
