<svg width="64" height="64" viewBox="0 0 64 64" fill="none" xmlns="http://www.w3.org/2000/svg">
<circle cx="32" cy="32" r="32" fill="#0B0B0B"/>
<path d="M15.5 25.7982V25.8026V25.7982ZM43.472 13L17.7643 17.0276L16.1476 24.9133L41.8941 21.0596L43.472 13ZM16.0792 26.5003L20.1745 51L45.7044 47.0861L41.9009 22.6354L16.0792 26.5003ZM37.7828 44.115C37.3609 44.4538 36.6335 44.6968 35.5914 44.8728L29.6947 45.858C28.7666 46.0118 28.0346 46.092 27.4896 46.092C27.0609 46.0898 26.7485 46.0452 26.5365 45.9338C26.3085 45.8112 26.1238 45.6039 25.9801 45.3275C25.8364 45.0489 25.727 44.699 25.654 44.2733C25.6016 43.9768 25.5765 43.6715 25.5765 43.355C25.5765 42.9137 25.6267 42.4523 25.727 41.9731C25.898 41.1506 26.2127 40.317 26.6642 39.4678C27.3004 38.2353 28.3493 36.7553 29.8178 35.019C30.194 34.5576 30.4722 34.2188 30.6546 34.0004C31.2977 33.2002 31.7013 32.5717 31.8632 32.1326C31.9818 31.8139 32.041 31.4885 32.041 31.1564C32.041 31.0628 32.0342 30.9691 32.0251 30.8755L26.5867 31.7715C26.272 31.825 25.9824 31.8518 25.7201 31.8518C25.3348 31.8518 25.0041 31.7938 24.7282 31.6735C24.2653 31.4729 23.9757 31.0761 23.8845 30.5367C23.864 30.4253 23.8549 30.3161 23.8549 30.2113C23.8526 29.8101 24.0054 29.4602 24.2995 29.1905C24.6712 28.8495 25.2504 28.6221 26.0394 28.4906L32.5381 27.403C33.0261 27.3227 33.4434 27.2804 33.7923 27.2804C34.2141 27.2804 34.5357 27.3383 34.766 27.4743C34.9689 27.5969 35.1331 27.7908 35.2631 28.0471C35.393 28.3034 35.4888 28.6221 35.5572 29.0055C35.6302 29.4268 35.6667 29.8547 35.6667 30.2893C35.6667 30.452 35.6621 30.617 35.6507 30.7842C35.6119 31.3904 35.507 31.9922 35.3315 32.5895C35.0259 33.6438 34.2301 34.9856 32.944 36.6349C32.7502 36.8868 32.5997 37.0785 32.4925 37.21C32.342 37.4061 32.1277 37.687 31.8427 38.057C31.0172 39.1201 30.3924 40.0317 29.9683 40.7918C29.5898 41.4694 29.3731 42.0266 29.3138 42.4501L34.937 41.5117C35.4272 41.4292 35.8605 41.3891 36.2413 41.3891C36.6449 41.3891 36.9869 41.4359 37.2697 41.5318C37.5456 41.6254 37.7714 41.7703 37.9401 41.9664C38.1088 42.1625 38.216 42.4055 38.2662 42.6908C38.2867 42.8089 38.2981 42.9248 38.2981 43.034C38.2958 43.4731 38.1202 43.8453 37.7828 44.115ZM44.6965 15.0416L43.3785 21.7617L46.9996 45.0467L48.5 37.395L44.6965 15.0416Z" fill="white"/>
</svg>
