<svg width="64" height="64" viewBox="0 0 64 64" fill="none" xmlns="http://www.w3.org/2000/svg">
<circle cx="32" cy="32" r="32" fill="#2D8CFF"/>
<path d="M43.9252 38.4773L47.4392 41.5043C48.3 42.246 48.7312 42.6168 49.0779 42.7049C49.788 42.8857 50.5236 42.5303 50.8432 41.8504C51 41.5182 51 40.9388 51 39.7799V24.2201C51 23.0613 51 22.4818 50.8432 22.1496C50.5236 21.4698 49.788 21.1144 49.0779 21.2952C48.7312 21.3832 48.3 21.7541 47.4392 22.4957L43.9252 25.5227C43.3524 26.0156 43.0659 26.2629 42.8368 26.5441C42.3755 27.1096 42.0664 27.791 41.9413 28.5203C41.8795 28.8834 41.8795 29.2682 41.8795 30.0392V33.9593C41.8795 34.7303 41.8795 35.1151 41.9413 35.4782C42.0664 36.2075 42.3755 36.8889 42.8368 37.4545C43.0674 37.7372 43.3539 37.9829 43.9252 38.4773Z" fill="white"/>
<path d="M13 25.1549C13 23.7009 13 22.9732 13.2744 22.4185C13.5156 21.9302 13.9 21.5331 14.3718 21.2843C14.9085 21 15.6125 21 17.019 21H29.836C33.5203 21 35.3625 21 36.769 21.7417C38.0067 22.3937 39.0137 23.4336 39.6439 24.713C40.3614 26.167 40.3614 28.0722 40.3614 31.8795V38.8435C40.3614 40.2975 40.3614 41.0253 40.0871 41.58C39.8459 42.0683 39.4615 42.4654 38.9896 42.7141C38.4529 42.9969 37.7489 42.9969 36.3424 42.9969H23.524C19.8396 42.9969 17.9974 42.9969 16.5909 42.2552C15.3532 41.6032 14.3462 40.5633 13.7161 39.2839C13 37.8314 13 35.9278 13 32.119V25.1549Z" fill="white"/>
</svg>
