<svg width="34" height="44" viewBox="0 0 34 44" fill="none" xmlns="http://www.w3.org/2000/svg">
<path d="M14.6261 3.07205C15.8271 1.51784 18.1729 1.51784 19.3739 3.07205L32.5826 20.1657C33.4174 21.2461 33.4174 22.7539 32.5826 23.8343L19.3739 40.9279C18.1729 42.4822 15.8271 42.4822 14.6261 40.928L1.41745 23.8343C0.582588 22.7539 0.582586 21.2461 1.41745 20.1657L14.6261 3.07205Z" fill="#4A5468"/>
<path fill-rule="evenodd" clip-rule="evenodd" d="M10.5 18.5C11.3284 18.5 12 17.8284 12 17C12 16.1716 11.3284 15.5 10.5 15.5C9.67157 15.5 9 16.1716 9 17C9 17.8284 9.67157 18.5 10.5 18.5ZM15 16C14.4477 16 14 16.4477 14 17C14 17.5523 14.4477 18 15 18H24C24.5523 18 25 17.5523 25 17C25 16.4477 24.5523 16 24 16H15ZM15 21C14.4477 21 14 21.4477 14 22C14 22.5523 14.4477 23 15 23H24C24.5523 23 25 22.5523 25 22C25 21.4477 24.5523 21 24 21H15ZM14 27C14 26.4477 14.4477 26 15 26H24C24.5523 26 25 26.4477 25 27C25 27.5523 24.5523 28 24 28H15C14.4477 28 14 27.5523 14 27ZM12 22C12 22.8284 11.3284 23.5 10.5 23.5C9.67157 23.5 9 22.8284 9 22C9 21.1716 9.67157 20.5 10.5 20.5C11.3284 20.5 12 21.1716 12 22ZM10.5 28.5C11.3284 28.5 12 27.8284 12 27C12 26.1716 11.3284 25.5 10.5 25.5C9.67157 25.5 9 26.1716 9 27C9 27.8284 9.67157 28.5 10.5 28.5Z" fill="white"/>
</svg>
