<svg width="34" height="44" viewBox="0 0 34 44" fill="none" xmlns="http://www.w3.org/2000/svg">
<path d="M14.6261 3.07205C15.8271 1.51784 18.1729 1.51784 19.3739 3.07205L32.5826 20.1657C33.4174 21.2461 33.4174 22.7539 32.5826 23.8343L19.3739 40.9279C18.1729 42.4822 15.8271 42.4822 14.6261 40.928L1.41745 23.8343C0.582588 22.7539 0.582586 21.2461 1.41745 20.1657L14.6261 3.07205Z" fill="#FFD703"/>
<path fill-rule="evenodd" clip-rule="evenodd" d="M22.9365 16.4981L8.65005 20.6509C7.90687 20.8479 7.61365 21.7515 8.09855 22.3505L10.2843 25.0505L9.11709 28.1329C8.82745 28.8978 9.46901 29.6902 10.2719 29.5593L13.5074 29.0318L15.4566 31.4395C15.9415 32.0385 16.8801 31.9321 17.222 31.2394L24.2392 18.1072C24.6427 17.2895 23.8138 16.2656 22.9365 16.4981ZM14.4549 26.8342L16.06 28.8168L21.2792 19.2658L10.7728 22.2858L12.4281 24.3306L16.5677 23.0447L14.4549 26.8342Z" fill="white"/>
</svg>
