<svg width="34" height="44" viewBox="0 0 34 44" fill="none" xmlns="http://www.w3.org/2000/svg">
<path d="M14.6261 3.07205C15.8271 1.51784 18.1729 1.51784 19.3739 3.07205L32.5826 20.1657C33.4174 21.2461 33.4174 22.7539 32.5826 23.8343L19.3739 40.9279C18.1729 42.4822 15.8271 42.4822 14.6261 40.928L1.41745 23.8343C0.582588 22.7539 0.582586 21.2461 1.41745 20.1657L14.6261 3.07205Z" fill="#FFB803"/>
<path d="M21 17C21 19.2091 19.2091 21 17 21C14.7909 21 13 19.2091 13 17C13 14.7909 14.7909 13 17 13C19.2091 13 21 14.7909 21 17Z" fill="white"/>
<path d="M14.6516 22.5229C14.4222 22.4252 14.166 22.3945 13.929 22.4718C11.6024 23.2303 10 24.8237 10 26.6665V27.9999C10 28.5522 10.4477 28.9999 11 28.9999H23C23.5523 28.9999 24 28.5522 24 27.9999V26.6665C24 24.8237 22.3976 23.2303 20.071 22.4718C19.834 22.3945 19.5778 22.4252 19.3484 22.5229C18.6271 22.83 17.8334 22.9999 17 22.9999C16.1666 22.9999 15.3729 22.83 14.6516 22.5229Z" fill="white"/>
</svg>
