<svg width="34" height="44" viewBox="0 0 34 44" fill="none" xmlns="http://www.w3.org/2000/svg">
<path d="M14.6261 3.07205C15.8271 1.51784 18.1729 1.51784 19.3739 3.07205L32.5826 20.1657C33.4174 21.2461 33.4174 22.7539 32.5826 23.8343L19.3739 40.9279C18.1729 42.4822 15.8271 42.4822 14.6261 40.928L1.41745 23.8343C0.582588 22.7539 0.582586 21.2461 1.41745 20.1657L14.6261 3.07205Z" fill="#F01E83"/>
<path fill-rule="evenodd" clip-rule="evenodd" d="M10 16C10 14.8954 10.8954 14 12 14H22C23.1046 14 24 14.8954 24 16V28C24 29.1046 23.1046 30 22 30H12C10.8954 30 10 29.1046 10 28V16ZM20.7929 16.2071C20.9255 16.0745 21.1054 16 21.2929 16C21.6834 16 22 16.3166 22 16.7071C22 16.8946 21.9255 17.0745 21.7929 17.2071L21 18L21.7929 18.7929C21.9255 18.9255 22 19.1054 22 19.2929C22 19.6834 21.6834 20 21.2929 20C21.1054 20 20.9255 19.9255 20.7929 19.7929L20 19L19.2071 19.7929C19.0745 19.9255 18.8946 20 18.7071 20C18.3166 20 18 19.6834 18 19.2929C18 19.1054 18.0745 18.9255 18.2071 18.7929L19 18L18.2071 17.2071C18.0745 17.0745 18 16.8946 18 16.7071C18 16.3166 18.3166 16 18.7071 16C18.8946 16 19.0745 16.0745 19.2071 16.2071L20 17L20.7929 16.2071ZM12 23C12 23.5523 12.4477 24 13 24H21C21.5523 24 22 23.5523 22 23C22 22.4477 21.5523 22 21 22H13C12.4477 22 12 22.4477 12 23ZM13 25C12.4477 25 12 25.4477 12 26C12 26.5523 12.4477 27 13 27H21C21.5523 27 22 26.5523 22 26C22 25.4477 21.5523 25 21 25H13Z" fill="white"/>
</svg>
