<svg width="34" height="44" viewBox="0 0 34 44" fill="none" xmlns="http://www.w3.org/2000/svg">
<path d="M14.6261 3.07205C15.8271 1.51784 18.1729 1.51784 19.3739 3.07205L32.5826 20.1657C33.4174 21.2461 33.4174 22.7539 32.5826 23.8343L19.3739 40.9279C18.1729 42.4822 15.8271 42.4822 14.6261 40.928L1.41745 23.8343C0.582588 22.7539 0.582586 21.2461 1.41745 20.1657L14.6261 3.07205Z" fill="#0ED073"/>
<path fill-rule="evenodd" clip-rule="evenodd" d="M16.3336 14.8889C16.3336 14.398 16.7315 14 17.2224 14C17.7134 14 18.1113 14.398 18.1113 14.8889V15.7837C20.2009 15.8458 21.5107 16.3892 22.3232 17.0392C22.7512 17.3816 23.0197 17.7372 23.1847 18.0275C23.2666 18.1718 23.3222 18.2984 23.3591 18.3974C23.3776 18.4469 23.3915 18.4896 23.4017 18.5242C23.4068 18.5415 23.411 18.5568 23.4145 18.57L23.419 18.5881L23.4209 18.596L23.4218 18.5996L23.4222 18.6013C23.4222 18.6013 23.4225 18.603 22.5557 18.8L23.4225 18.603C23.5313 19.0817 23.2315 19.558 22.7527 19.6668C22.2836 19.7734 21.8169 19.4876 21.696 19.0256L21.6937 19.0193C21.6871 19.0016 21.6706 18.9615 21.639 18.9058C21.5767 18.7961 21.4512 18.6184 21.2126 18.4274C20.7751 18.0774 19.8785 17.6229 18.1113 17.5623V21.1243C19.8362 21.1783 21.0968 21.4043 21.9622 21.8925C22.4993 22.1954 22.8929 22.603 23.1383 23.1171C23.3754 23.6139 23.4446 24.1489 23.4446 24.6667C23.4446 25.6176 23.0384 26.5799 21.9602 27.2538C21.0937 27.7954 19.8406 28.1212 18.1113 28.2022V29.1111C18.1113 29.602 17.7134 30 17.2224 30C16.7315 30 16.3336 29.602 16.3336 29.1111V28.198C14.3073 28.0836 13.0235 27.5787 12.2119 26.9835C11.7505 26.6451 11.4599 26.2902 11.2804 25.994C11.1914 25.8471 11.1312 25.7172 11.0911 25.6144C11.0711 25.563 11.0561 25.5183 11.045 25.4817C11.0395 25.4634 11.0349 25.4471 11.0312 25.433L11.0262 25.4133L11.0241 25.4047L11.0232 25.4008L11.0227 25.3989C11.0227 25.3989 11.0223 25.397 11.8891 25.2L11.0223 25.397C10.9135 24.9183 11.2134 24.442 11.6921 24.3332C12.1588 24.2271 12.6232 24.5095 12.747 24.9673L12.7476 24.969C12.753 24.9828 12.7686 25.0195 12.8008 25.0726C12.8637 25.1765 12.9974 25.3549 13.2632 25.5499C13.72 25.8848 14.6218 26.3067 16.3336 26.417V22.8733C14.5919 22.8091 13.3313 22.5438 12.4664 22.0315C11.9384 21.7187 11.5531 21.3115 11.3104 20.8158C11.0732 20.3313 11.0002 19.8192 11.0002 19.3333C11.0002 18.7938 11.1246 18.257 11.4322 17.7682C11.7382 17.282 12.19 16.8997 12.7559 16.6092C13.6161 16.1676 14.798 15.9086 16.3336 15.8163V14.8889ZM16.3336 17.5978C14.9937 17.687 14.116 17.9094 13.5677 18.1908C13.2246 18.3669 13.0399 18.5513 12.9368 18.7151C12.8354 18.8764 12.778 19.0729 12.778 19.3333C12.778 19.6475 12.8261 19.8687 12.9071 20.0342C12.9827 20.1885 13.1125 20.3479 13.3724 20.5019C13.8582 20.7896 14.7479 21.0294 16.3336 21.094V17.5978ZM18.1113 26.4222C19.6277 26.3425 20.5173 26.0591 21.018 25.7462C21.5398 25.4201 21.6669 25.049 21.6669 24.6667C21.6669 24.2955 21.6149 24.0528 21.5338 23.8829C21.461 23.7303 21.3395 23.5823 21.0887 23.4409C20.6038 23.1673 19.7143 22.9586 18.1113 22.9033V26.4222Z" fill="white"/>
</svg>
