<svg width="34" height="44" viewBox="0 0 34 44" fill="none" xmlns="http://www.w3.org/2000/svg">
<path d="M14.6261 3.07205C15.8271 1.51784 18.1729 1.51784 19.3739 3.07205L32.5826 20.1657C33.4174 21.2461 33.4174 22.7539 32.5826 23.8343L19.3739 40.9279C18.1729 42.4822 15.8271 42.4822 14.6261 40.928L1.41745 23.8343C0.582588 22.7539 0.582586 21.2461 1.41745 20.1657L14.6261 3.07205Z" fill="#33AFF5"/>
<path fill-rule="evenodd" clip-rule="evenodd" d="M12 14C12 13.4477 12.4477 13 13 13C13.5523 13 14 13.4477 14 14V16H16V14C16 13.4477 16.4477 13 17 13C17.5523 13 18 13.4477 18 14V16H20V14C20 13.4477 20.4477 13 21 13C21.5523 13 22 13.4477 22 14V16H23C23.5523 16 24 16.4477 24 17V30C24 30.5523 23.5523 31 23 31H11C10.4477 31 10 30.5523 10 30V17C10 16.4477 10.4477 16 11 16H12V14ZM19 20C19 21.1046 18.1046 22 17 22C15.8954 22 15 21.1046 15 20C15 18.8954 15.8954 18 17 18C18.1046 18 19 18.8954 19 20ZM13 24C12.4477 24 12 24.4477 12 25C12 25.5523 12.4477 26 13 26C13.5523 26 14 25.5523 14 25C14 24.4477 13.5523 24 13 24ZM16 24C15.4477 24 15 24.4477 15 25C15 25.5523 15.4477 26 16 26H21C21.5523 26 22 25.5523 22 25C22 24.4477 21.5523 24 21 24H16ZM15 28C15 27.4477 15.4477 27 16 27H21C21.5523 27 22 27.4477 22 28C22 28.5523 21.5523 29 21 29H16C15.4477 29 15 28.5523 15 28ZM13 27C12.4477 27 12 27.4477 12 28C12 28.5523 12.4477 29 13 29C13.5523 29 14 28.5523 14 28C14 27.4477 13.5523 27 13 27Z" fill="white"/>
</svg>
