<svg width="34" height="44" viewBox="0 0 34 44" fill="none" xmlns="http://www.w3.org/2000/svg">
<path d="M14.6261 3.07205C15.8271 1.51784 18.1729 1.51784 19.3739 3.07205L32.5826 20.1657C33.4174 21.2461 33.4174 22.7539 32.5826 23.8343L19.3739 40.9279C18.1729 42.4822 15.8271 42.4822 14.6261 40.928L1.41745 23.8343C0.582588 22.7539 0.582586 21.2461 1.41745 20.1657L14.6261 3.07205Z" fill="#F43B46"/>
<path d="M20.1056 22.4673C20.4741 22.2748 20.4741 21.7253 20.1056 21.5328L15.7236 19.2439C15.3912 19.0702 15 19.3228 15 19.7111L15 24.289C15 24.6773 15.3912 24.9299 15.7236 24.7562L20.1056 22.4673Z" fill="white"/>
<path fill-rule="evenodd" clip-rule="evenodd" d="M22.5822 14.3631C18.8751 13.879 15.1249 13.879 11.4178 14.3631C10.0366 14.5435 9 15.7702 9 17.2244V26.7756C9 28.2298 10.0366 29.4565 11.4178 29.6369C15.1249 30.121 18.8751 30.121 22.5822 29.6369C23.9634 29.4565 25 28.2298 25 26.7756V17.2244C25 15.7702 23.9634 14.5435 22.5822 14.3631ZM11.6659 16.4364C15.2082 15.9738 18.7918 15.9738 22.3341 16.4364C22.7145 16.4861 23 16.8239 23 17.2244V26.7756C23 27.1761 22.7145 27.5139 22.3341 27.5636C18.7918 28.0262 15.2082 28.0262 11.6659 27.5636C11.2855 27.5139 11 27.1761 11 26.7756V17.2244C11 16.8239 11.2855 16.4861 11.6659 16.4364Z" fill="white"/>
</svg>
